<svg xmlns="http://www.w3.org/2000/svg" xmlns:xlink="http://www.w3.org/1999/xlink" id="Layer_1" x="0px" y="0px" viewBox="0 0 278 34.5" style="enable-background:new 0 0 278 34.5;" xml:space="preserve"><style type="text/css">	.st0{fill:#146E38;}	.st1{fill:#FFFFFF;}</style><path class="st0" d="M28.9,23.9c0.2-1,0.5-2,1.1-2.8c0-0.1,0.1-0.1,0.1-0.2c0.8-1.3,2.1-2.5,3.8-3.4c0.6-0.3,1.1-0.3,1.7,0 c1.7,0.9,2.9,2,3.8,3.4c0,0,0.1,0.1,0.1,0.1C40,22,40.4,23,40.6,24c0,0.1,0,0.2,0.1,0.3c0,0.1,0,0.1,0,0.1c0,0.2,0,3.4,0,3.6 c0,0.4,0,5.8-0.1,6.2c0,0,0,0,0,0h-2c0-0.4,0.1-5.8,0-6.2c0-0.4-0.1-3.8-0.2-4.2c0-0.1,0-0.1-0.1-0.2c0,0,0-0.1,0-0.1 c-0.5-1.6-1.6-3-3.3-4c-0.2-0.1-0.4-0.1-0.6,0c-1.6,1-2.7,2.4-3.2,4c0,0.1-0.1,0.2-0.1,0.4c-0.1,0.4-0.2,3.7-0.2,4.1 c0,0.4,0,5.8,0,6.2h-2c0,0,0,0,0-0.1c0-0.3-0.1-5.5-0.1-5.8c0-0.1,0-0.2,0-0.3v0c0-0.3,0-3.5,0.1-3.7C28.9,24.2,28.9,24.1,28.9,23.9  M28.7,28.5c0,0.3,0,5.6,0.1,5.8c0,0,0,0.1,0,0.1l0,0.1h2.3l0-0.1c0,0,0-0.1,0-0.1c-0.1-0.4-0.1-5.8,0-6.2c0-0.3,0-3.4,0.1-3.7 c0-0.2,0.1-0.3,0.1-0.5c0.4-1.7,1.6-3.2,3.2-4.3c0.2-0.1,0.3-0.1,0.5,0c1.6,1,2.7,2.4,3.2,4c0,0.1,0,0.1,0.1,0.2 c0,0.1,0.1,0.3,0.1,0.4c0.1,0.3,0.1,3.5,0.1,3.7c0,0.4,0,5.8,0,6.2c0,0,0,0,0,0.1l0,0.1h2.3l0-0.1c0.1-0.5,0.1-5.9,0.1-6.3 c0-0.3,0-3.5-0.1-3.8c0-0.1,0-0.2,0-0.3c0-0.1,0-0.2-0.1-0.4c-0.2-1-0.6-1.9-1.1-2.7c0-0.1-0.1-0.1-0.1-0.2 c-0.9-1.3-2.1-2.4-3.8-3.3c-0.7-0.3-1.2-0.3-1.9,0c-1.7,0.9-3,2-3.8,3.3c0,0.1-0.1,0.1-0.1,0.2c-0.5,0.8-0.9,1.7-1.1,2.7 c0,0.1-0.1,0.2-0.1,0.4c-0.1,0.4-0.1,3.7-0.1,4.2v0C28.6,28.3,28.7,28.4,28.7,28.5"></path><path class="st0" d="M47.9,24.1c0.2-1.1,0.5-2,1.1-2.9c0-0.1,0.1-0.1,0.1-0.2c0.8-1.4,2.1-2.5,3.8-3.4c0.6-0.3,1.1-0.3,1.7,0 c1.7,0.9,2.9,2,3.8,3.3c0,0,0.1,0.1,0.1,0.1C59,22,59.4,23,59.5,24c0,0.1,0,0.2,0.1,0.3c0,0.1,0,0.1,0,0.1c0,0.2,0,3.4,0,3.6 c0,0.4,0,5.8-0.1,6.2c0,0,0,0,0,0h-2c0-0.4,0.1-5.8,0-6.2c0-0.4-0.1-3.8-0.2-4.2c0-0.1,0-0.1-0.1-0.2c0,0,0-0.1,0-0.1 c-0.5-1.6-1.6-3-3.3-4c-0.2-0.1-0.4-0.1-0.7,0c-1.6,1-2.8,2.5-3.3,4.1c0,0.1-0.1,0.3-0.1,0.4c-0.1,0.4-0.1,3.6-0.2,4 c0,0.4,0,5.8,0,6.2h-2c0,0,0,0,0-0.1c0-0.1,0-5.1,0-5.2c0-0.2,0-0.4-0.1-0.7c0-0.1,0-0.2,0-0.3v0c0-0.2,0-3.3,0-3.5v0 C47.9,24.4,47.9,24.3,47.9,24.1 M47.7,28.5c0,0.3,0,5.6,0.1,5.8c0,0,0,0.1,0,0.1l0,0.1h2.3l0-0.1c0-0.1,0-5.2,0-5.4 c0-0.3,0-0.6,0-0.9c0-0.2,0-3.3,0.1-3.4c0-0.2,0.1-0.4,0.1-0.5c0.4-1.8,1.6-3.4,3.3-4.4c0.2-0.1,0.3-0.1,0.5,0c1.6,1,2.7,2.4,3.2,4 c0,0.1,0,0.1,0.1,0.2c0,0.1,0.1,0.3,0.1,0.4c0.1,0.3,0.1,3.5,0.1,3.7c0,0.4,0,5.8,0,6.2c0,0,0,0,0,0.1l0,0.1h2.3l0-0.1 c0.1-0.5,0.1-5.9,0.1-6.3c0-0.3,0-3.5-0.1-3.8c0-0.1,0-0.2-0.1-0.3c0-0.1,0-0.2-0.1-0.4c-0.2-1-0.6-1.9-1.1-2.7 c0-0.1-0.1-0.1-0.1-0.2c-0.9-1.3-2.1-2.4-3.8-3.3c-0.7-0.3-1.2-0.3-1.9,0c-1.7,0.9-3,2-3.8,3.4c0,0.1-0.1,0.1-0.1,0.2 c-0.5,0.8-0.9,1.7-1.1,2.7v0c0,0.1-0.1,0.2-0.1,0.4c-0.1,0.4-0.1,3.6-0.1,4v0C47.6,28.3,47.6,28.4,47.7,28.5"></path><path class="st0" d="M10,24.1c0.2-1.1,0.5-2,1.1-2.9c0-0.1,0.1-0.1,0.1-0.2c0.8-1.4,2.1-2.5,3.8-3.4c0.6-0.3,1.1-0.3,1.7,0 c1.7,0.9,2.9,2,3.8,3.4c0,0,0.1,0.1,0.1,0.1c0.5,0.9,0.9,1.8,1.1,2.9c0,0.1,0,0.2,0.1,0.3c0,0.1,0,0.1,0,0.2c0,0.2,0,3.4,0,3.6 c0,0.4,0,5.8-0.1,6.2c0,0,0,0,0,0h-2c0.1-0.4,0.1-5.8,0-6.2c0-0.4-0.1-3.8-0.2-4.2c0-0.1,0-0.2-0.1-0.2c0,0,0-0.1,0-0.1 c-0.5-1.6-1.6-3-3.3-4c-0.2-0.1-0.4-0.1-0.6,0c-1.6,1-2.8,2.5-3.3,4.1v0c0,0.1-0.1,0.3-0.1,0.4c-0.1,0.4-0.1,3.6-0.2,4 c0,0.4,0,5.8,0,6.2h-2c0,0,0,0,0-0.1c0-0.1,0-5.1,0-5.2c0-0.2,0-0.4-0.1-0.6c0-0.1,0-0.2,0-0.3v0c0-0.2,0-3.3,0.1-3.6 C9.9,24.4,10,24.2,10,24.1 M9.7,28.5c0,0.3,0,5.6,0.1,5.8c0,0,0,0.1,0,0.1l0,0.1h2.3l0-0.1c0-0.1,0-5.2,0-5.3c0-0.3,0-0.6,0-0.9 c0-0.2,0-3.3,0.1-3.4c0-0.2,0.1-0.4,0.1-0.5c0.4-1.8,1.6-3.4,3.3-4.4c0.2-0.1,0.3-0.1,0.5,0c1.6,1,2.7,2.4,3.2,4 c0,0.1,0,0.1,0.1,0.2c0,0.1,0.1,0.3,0.1,0.4c0.1,0.3,0.1,3.5,0.1,3.7c0,0.4,0,5.8,0,6.2c0,0,0,0,0,0.1l0,0.1h2.3l0-0.1 c0.1-0.5,0.1-5.9,0.1-6.3c0-0.3,0-3.5-0.1-3.8c0-0.1,0-0.2-0.1-0.3c0-0.1,0-0.2-0.1-0.4c-0.2-1-0.6-1.9-1.1-2.7 c0-0.1-0.1-0.1-0.1-0.2c-0.9-1.3-2.1-2.4-3.8-3.3c-0.7-0.3-1.2-0.3-1.9,0c-1.7,0.9-3,2-3.8,3.4c0,0.1-0.1,0.1-0.1,0.2 c-0.5,0.8-0.9,1.7-1.1,2.7v0c0,0.1-0.1,0.2-0.1,0.4c-0.1,0.4-0.1,3.6-0.1,4v0C9.7,28.3,9.7,28.4,9.7,28.5"></path><path class="st1" d="M38.4,23.9c0.2-1,0.5-2,1.1-2.8c0-0.1,0.1-0.1,0.1-0.2c0.9-1.3,2.1-2.5,3.8-3.4c0.6-0.3,1.1-0.3,1.7,0 c1.7,0.9,3,2,3.8,3.4c0,0.1,0.1,0.1,0.1,0.2c0.5,0.9,0.9,1.9,1.1,3c0,0.1,0,0.1,0,0.2c0,0.1,0,0.2,0,0.3c0,0.2,0,3.3,0,3.4 c0,0.3,0,0.6-0.1,0.9c0,0.1,0,5.2,0,5.3h-2c0.1-0.4,0.1-5.8,0-6.2c0-0.4-0.1-3.7-0.2-4c0-0.1-0.1-0.2-0.1-0.4v0 c-0.5-1.7-1.6-3.1-3.3-4.1c-0.2-0.1-0.4-0.1-0.6,0c-1.6,1-2.7,2.4-3.2,4c0,0.1-0.1,0.2-0.1,0.4c-0.1,0.4-0.2,3.7-0.2,4.1 c0,0.4,0,5.8,0,6.2h-2c0,0,0,0,0-0.1c0-0.3-0.1-5.5-0.1-5.8c0-0.1,0-0.2,0-0.3v0c0-0.3,0-3.5,0.1-3.7C38.4,24.2,38.4,24.1,38.4,23.9  M38.1,28.5c0,0.3,0,5.6,0.1,5.8c0,0,0,0.1,0,0.1l0,0.1h2.3l0-0.1c0,0,0-0.1,0-0.1c-0.1-0.4-0.1-5.8,0-6.2c0-0.2,0-3.4,0.1-3.6 c0-0.2,0.1-0.3,0.1-0.5c0.4-1.7,1.6-3.3,3.2-4.3c0.2-0.1,0.3-0.1,0.5,0c1.6,1,2.7,2.4,3.2,4c0,0.1,0.1,0.2,0.1,0.3 c0,0.2,0.1,0.3,0.1,0.5v0c0,0.2,0.1,3.3,0.1,3.5c0,0.3,0,0.7,0,1c0,0.1,0,5.2,0,5.3l0,0.1h2.3l0-0.1c0.1-0.5,0.1-5.9,0.1-6.3 c0-0.3,0-3.5-0.1-3.8c0-0.1,0-0.1,0-0.2c0-0.1,0-0.3-0.1-0.4c-0.2-1-0.6-1.9-1.1-2.8c0-0.1-0.1-0.1-0.1-0.2 c-0.9-1.4-2.1-2.5-3.8-3.4c-0.7-0.3-1.2-0.3-1.9,0c-1.7,0.9-2.9,2-3.8,3.3c0,0.1-0.1,0.1-0.1,0.2c-0.5,0.8-0.9,1.7-1.1,2.7 c0,0.1,0,0.2-0.1,0.3c-0.1,0.4-0.1,3.7-0.1,4.2v0C38.1,28.3,38.1,28.4,38.1,28.5"></path><path class="st1" d="M0.5,24c0.2-1,0.5-2,1.1-2.8c0-0.1,0.1-0.1,0.1-0.2c0.9-1.3,2.1-2.5,3.8-3.4c0.6-0.3,1.1-0.3,1.7,0 c1.7,0.9,3,2,3.8,3.4c0,0.1,0.1,0.1,0.1,0.2c0.5,0.9,0.9,1.9,1.1,3c0,0.1,0,0.1,0,0.2c0,0.1,0,0.2,0,0.4c0,0.2,0,3.3,0,3.4 c0,0.3,0,0.6-0.1,0.9c0,0.1,0,5.2,0,5.3h-2c0.1-0.4,0.1-5.8,0-6.2c0-0.4-0.1-3.7-0.2-4.1c0-0.1-0.1-0.2-0.1-0.4v0 c-0.5-1.7-1.6-3.1-3.3-4.1c-0.2-0.1-0.4-0.1-0.6,0c-1.6,1-2.7,2.4-3.2,4c0,0.1-0.1,0.2-0.1,0.4c-0.1,0.4-0.2,3.7-0.2,4.1 c0,0.4,0,5.8,0,6.2h-2c0,0,0,0,0-0.1c0-0.3-0.1-5.5-0.1-5.8c0-0.1,0-0.2,0-0.3v0c0-0.3,0-3.5,0.1-3.7C0.4,24.2,0.5,24.1,0.5,24  M0.2,28.5c0,0.3,0,5.6,0.1,5.8c0,0,0,0.1,0,0.1l0,0.1h2.3l0-0.1c0,0,0-0.1,0-0.1c-0.1-0.4-0.1-5.8,0-6.2c0-0.2,0-3.4,0.1-3.6 c0-0.2,0.1-0.3,0.1-0.5c0.4-1.7,1.6-3.2,3.2-4.3c0.2-0.1,0.3-0.1,0.5,0c1.6,1,2.7,2.4,3.2,4c0,0.1,0.1,0.2,0.1,0.3 c0,0.2,0.1,0.3,0.1,0.5c0,0.2,0.1,3.3,0.1,3.6c0,0.3,0,0.6,0,1c0,0.1,0,5.2,0,5.3l0,0.1h2.3l0-0.1c0.1-0.5,0.1-5.9,0.1-6.3 c0-0.3,0-3.5-0.1-3.8c0-0.1,0-0.1,0-0.2c0-0.1,0-0.3-0.1-0.4v0c-0.2-1-0.6-1.9-1.1-2.8c0-0.1-0.1-0.1-0.1-0.2 c-0.9-1.4-2.1-2.5-3.8-3.4c-0.7-0.3-1.2-0.3-1.9,0c-1.7,0.9-2.9,2-3.8,3.3c0,0.1-0.1,0.1-0.1,0.2c-0.5,0.8-0.9,1.7-1.1,2.7 c0,0.1-0.1,0.2-0.1,0.4c-0.1,0.4-0.1,3.7-0.1,4.2v0C0.2,28.3,0.2,28.4,0.2,28.5"></path><path class="st1" d="M57.4,23.9c0.2-1,0.5-2,1.1-2.8c0-0.1,0.1-0.1,0.1-0.2c0.9-1.3,2.1-2.5,3.8-3.4c0.6-0.3,1.1-0.3,1.7,0 c1.7,0.9,3.1,2.1,3.9,3.5c0,0,0.1,0.1,0.1,0.1c0.5,0.9,0.9,1.9,1,3c0,0.1,0,0.3,0,0.4c0,0.2,0,3.2,0,3.4c0,0.3,0,0.6-0.1,0.9v0 c0,0.1,0,5.2,0,5.3h-2c0-0.1,0-5.2,0-5.2c0-0.3,0-0.7,0-1c0-0.2,0-3.3-0.1-3.5v0c0-0.2-0.1-0.3-0.1-0.5c0-0.1-0.1-0.3-0.1-0.4 c-0.5-1.7-1.6-3.1-3.3-4.1c-0.2-0.1-0.4-0.1-0.6,0c-1.6,1-2.7,2.4-3.2,4c0,0.1-0.1,0.2-0.1,0.3c-0.1,0.4-0.2,3.7-0.2,4.1 c0,0.4,0,5.8,0,6.2h-2c0,0,0,0,0-0.1c0-0.3-0.1-5.5-0.1-5.8c0-0.1,0-0.2,0-0.3v0c0-0.3,0-3.5,0.1-3.7C57.4,24.2,57.4,24.1,57.4,23.9  M57.1,28.5c0,0.3,0,5.6,0.1,5.8c0,0,0,0.1,0,0.1l0,0.1h2.3l0-0.1c0,0,0-0.1,0-0.1c-0.1-0.4-0.1-5.8,0-6.2c0-0.2,0-3.4,0.1-3.6 c0-0.2,0.1-0.3,0.1-0.5c0.4-1.7,1.6-3.3,3.2-4.3c0.2-0.1,0.3-0.1,0.5,0c1.6,1,2.7,2.4,3.2,4c0.1,0.3,0.2,0.6,0.2,0.9 c0,0.2,0.1,3.3,0.1,3.5c0,0.3,0,0.6,0,1c0,0.1,0,5.2,0,5.3l0,0.1h2.3l0-0.1c0-0.1,0-5.3,0.1-5.4c0-0.3,0.1-0.6,0.1-0.9 c0-0.2,0-3.2,0-3.4v0c0-0.1,0-0.3,0-0.4c0-0.1,0-0.1,0-0.1c-0.2-1.1-0.5-2.1-1.1-3c0-0.1-0.1-0.1-0.1-0.1c-0.9-1.4-2.2-2.6-3.9-3.5 c-0.7-0.3-1.2-0.3-1.9,0c-1.7,0.9-2.9,2-3.8,3.3c0,0.1-0.1,0.1-0.1,0.2c-0.5,0.8-0.9,1.7-1.1,2.7c0,0.1,0,0.2-0.1,0.3 c-0.1,0.4-0.1,3.7-0.1,4.2v0C57.1,28.3,57.1,28.4,57.1,28.5"></path><path class="st1" d="M19.5,24c0.2-1,0.5-2,1.1-2.8c0-0.1,0.1-0.1,0.1-0.2c0.9-1.3,2.1-2.5,3.8-3.4c0.6-0.3,1.1-0.3,1.7,0 c1.7,0.9,2.9,2,3.8,3.3c0,0.1,0.1,0.1,0.1,0.2c0.5,0.9,0.9,1.8,1.1,2.9c0,0.1,0,0.2,0.1,0.3c0,0,0,0.1,0,0.1c0,0.2,0,3.4,0,3.7 c0,0.4,0,5.8-0.1,6.2c0,0,0,0,0,0h-2c0.1-0.4,0.1-5.8,0-6.2c0-0.4-0.1-3.8-0.2-4.2c0-0.1,0-0.1-0.1-0.2c0,0,0-0.1,0-0.1 c-0.5-1.6-1.6-3-3.3-4c-0.2-0.1-0.4-0.1-0.6,0c-1.6,1-2.7,2.4-3.2,4c0,0.1-0.1,0.2-0.1,0.4c-0.1,0.4-0.2,3.7-0.2,4.1 c0,0.4,0,5.8,0,6.2h-2c0,0,0,0,0-0.1c0-0.3-0.1-5.5-0.1-5.8c0-0.1,0-0.2,0-0.3v0c0-0.3,0-3.5,0.1-3.7C19.4,24.2,19.4,24.1,19.5,24  M19.2,28.5c0,0.3,0,5.6,0.1,5.8c0,0,0,0.1,0,0.1l0,0.1h2.3l0-0.1c0,0,0-0.1,0-0.1c-0.1-0.4-0.1-5.8,0-6.2c0-0.2,0-3.4,0.1-3.6 c0-0.2,0.1-0.3,0.1-0.5c0.4-1.7,1.6-3.3,3.2-4.3c0.2-0.1,0.3-0.1,0.5,0c1.6,1,2.7,2.4,3.2,4c0,0.1,0,0.1,0.1,0.2 c0,0.1,0.1,0.3,0.1,0.4c0.1,0.3,0.1,3.5,0.1,3.7c0,0.4,0,5.8,0,6.2c0,0,0,0,0,0.1l0,0.1h2.3l0-0.1c0.1-0.5,0.1-5.9,0.1-6.3 c0-0.3,0-3.5-0.1-3.8c0-0.1,0-0.2,0-0.3c0-0.1,0-0.2-0.1-0.4c-0.2-1-0.6-1.9-1.1-2.7c0-0.1-0.1-0.1-0.1-0.2 c-0.9-1.3-2.1-2.4-3.8-3.3c-0.7-0.3-1.2-0.3-1.9,0c-1.7,0.9-2.9,2-3.8,3.3c0,0.1-0.1,0.1-0.1,0.2c-0.5,0.8-0.9,1.7-1.1,2.7 c0,0.1-0.1,0.2-0.1,0.4c-0.1,0.4-0.1,3.7-0.1,4.2v0C19.2,28.3,19.2,28.4,19.2,28.5"></path><path class="st1" d="M133.6,23.9c0.2-1,0.5-2,1.1-2.8c0-0.1,0.1-0.1,0.1-0.2c0.9-1.3,2.1-2.5,3.8-3.4c0.6-0.3,1.1-0.3,1.7,0 c1.7,0.9,2.9,2,3.8,3.4c0,0,0.1,0.1,0.1,0.1c0.5,0.9,0.9,1.8,1.1,2.9c0,0.1,0,0.2,0.1,0.3c0,0.1,0,0.1,0,0.2c0,0.2,0,3.4,0,3.6 c0,0.4,0,5.8-0.1,6.2c0,0,0,0,0,0h-2c0.1-0.4,0.1-5.8,0-6.2c0-0.4-0.1-3.8-0.2-4.2c0-0.1,0-0.2-0.1-0.2c0,0,0-0.1,0-0.1 c-0.5-1.7-1.6-3-3.3-4c-0.2-0.1-0.4-0.1-0.6,0c-1.6,1-2.7,2.4-3.2,4c0,0.1-0.1,0.2-0.1,0.4c-0.1,0.4-0.2,3.7-0.2,4.1 c0,0.4,0,5.8,0,6.2h-2c0,0,0,0,0-0.1c0-0.3-0.1-5.5-0.1-5.8c0-0.1,0-0.2,0-0.3v0c0-0.3,0-3.5,0.1-3.7 C133.6,24.2,133.6,24.1,133.6,23.9 M133.3,28.5c0,0.3,0,5.6,0.1,5.8c0,0,0,0.1,0,0.1l0,0.1h2.3l0-0.1c0,0,0,0,0-0.1 c0-0.4-0.1-5.8,0-6.2c0-0.2,0-3.4,0.1-3.6c0-0.2,0.1-0.3,0.1-0.5c0.4-1.7,1.6-3.3,3.2-4.3c0.2-0.1,0.3-0.1,0.5,0 c1.6,1,2.7,2.4,3.2,4c0,0.1,0,0.1,0.1,0.2v0c0,0.1,0.1,0.3,0.1,0.4c0.1,0.3,0.1,3.5,0.1,3.7c0,0.4,0,5.8,0,6.2c0,0,0,0,0,0.1l0,0.1 h2.3l0-0.1c0.1-0.5,0.1-5.9,0.1-6.3c0-0.3,0-3.5-0.1-3.8c0-0.1,0-0.2,0-0.3c0-0.1,0-0.2-0.1-0.4c-0.2-1-0.6-1.9-1.1-2.7 c0-0.1-0.1-0.1-0.1-0.2c-0.9-1.3-2.1-2.4-3.8-3.3c-0.7-0.3-1.2-0.3-1.9,0c-1.7,0.9-2.9,2-3.8,3.3c0,0.1-0.1,0.1-0.1,0.2 c-0.5,0.8-0.9,1.7-1.1,2.7c0,0.1,0,0.2-0.1,0.3c-0.1,0.4-0.1,3.7-0.1,4.2v0C133.3,28.3,133.3,28.4,133.3,28.5"></path><path class="st1" d="M95.6,24.2c0.2-1.1,0.5-2.1,1.1-3c0-0.1,0.1-0.1,0.1-0.2c0.8-1.4,2.1-2.5,3.9-3.5c0.6-0.3,1.1-0.3,1.7,0 c1.7,0.9,2.9,2,3.8,3.3c0,0.1,0.1,0.1,0.1,0.2c0.5,0.9,0.9,1.8,1.1,2.9c0,0.1,0,0.2,0.1,0.3c0,0,0,0.1,0,0.1c0,0.2,0,3.4,0,3.7 c0,0.4,0,5.8-0.1,6.2c0,0,0,0,0,0h-2c0.1-0.4,0.1-5.8,0-6.2c0-0.4-0.1-3.8-0.2-4.2c0-0.1,0-0.2-0.1-0.2c0,0,0-0.1,0-0.1 c-0.5-1.6-1.6-3-3.3-4c-0.2-0.1-0.4-0.1-0.6,0c-1.7,1-2.8,2.5-3.3,4.2c0,0.1-0.1,0.3-0.1,0.4v0c-0.1,0.3-0.1,3.5-0.1,3.8 c0,0.4,0,5.8,0,6.2h-2c0,0,0,0,0-0.1c0-0.2,0-5.3,0-5.5c0-0.1,0-0.2,0-0.3c0-0.1,0-0.2,0-0.3v0c0-0.1,0-3.2,0-3.3 C95.6,24.6,95.6,24.4,95.6,24.2 M95.4,28.5c0,0.3,0,5.6,0.1,5.8c0,0,0,0.1,0,0.1l0,0.1h2.3l0-0.1c0-0.2,0-5.5,0-5.7v0 c0-0.2,0-0.4,0-0.6c0-0.1,0-3,0-3.1c0-0.2,0.1-0.5,0.1-0.7c0.4-1.8,1.5-3.5,3.3-4.6c0.2-0.1,0.3-0.1,0.5,0c1.6,1,2.7,2.4,3.2,4 c0,0.1,0,0.1,0.1,0.2v0c0,0.1,0.1,0.3,0.1,0.4c0.1,0.3,0.1,3.5,0.1,3.7c0,0.4,0,5.8,0,6.2c0,0,0,0,0,0.1l0,0.1h2.3l0-0.1 c0.1-0.5,0.1-5.9,0.1-6.3c0-0.3,0-3.5-0.1-3.8c0-0.1,0-0.2-0.1-0.3c0-0.1,0-0.2-0.1-0.3c-0.2-1-0.6-1.9-1.1-2.7 c0-0.1-0.1-0.1-0.1-0.2c-0.9-1.3-2.1-2.4-3.8-3.3c-0.7-0.3-1.2-0.3-1.9,0c-1.7,0.9-3,2.1-3.9,3.4c0,0.1-0.1,0.1-0.1,0.2 c-0.5,0.9-0.9,1.8-1.1,2.8c0,0.1-0.1,0.3-0.1,0.4c0,0.3-0.1,3.5-0.1,3.9v0C95.4,28.3,95.4,28.4,95.4,28.5"></path><path class="st1" d="M76.6,24.1c0.2-1.1,0.5-2,1.1-2.9c0-0.1,0.1-0.1,0.1-0.2c0.9-1.4,2.1-2.5,3.8-3.4c0.6-0.3,1.1-0.3,1.7,0 c1.7,0.9,2.9,2,3.8,3.4c0,0,0.1,0.1,0.1,0.1c0.5,0.9,0.9,1.8,1.1,2.9c0,0.1,0,0.2,0.1,0.3c0,0.1,0,0.1,0,0.2c0,0.2,0,3.4,0,3.6 c0,0.4,0,5.8-0.1,6.2c0,0,0,0,0,0h-2c0.1-0.4,0.1-5.8,0-6.2c0-0.4-0.1-3.8-0.2-4.2c0-0.1,0-0.2-0.1-0.2c0,0,0-0.1,0-0.1 c-0.5-1.6-1.6-3-3.3-4c-0.2-0.1-0.4-0.1-0.6,0c-1.6,1-2.8,2.5-3.3,4.1c0,0.1-0.1,0.3-0.1,0.4c-0.1,0.3-0.1,3.6-0.2,4 c0,0.4,0,5.8,0,6.2h-2c0,0,0,0,0-0.1c0-0.1,0-5.1,0-5.2c0-0.2,0-0.4-0.1-0.6c0-0.1,0-0.2,0-0.3v0c0-0.2,0-3.3,0.1-3.6 C76.6,24.4,76.6,24.2,76.6,24.1 M76.3,28.5c0,0.3,0,5.6,0.1,5.8c0,0,0,0.1,0,0.1l0,0.1h2.3l0-0.1c0-0.1,0-5.2,0-5.3 c0-0.3,0-0.6,0-0.9c0-0.2,0-3.3,0.1-3.4c0-0.2,0.1-0.4,0.1-0.5c0.4-1.8,1.6-3.4,3.3-4.4c0.2-0.1,0.3-0.1,0.5,0c1.6,1,2.7,2.4,3.2,4 c0,0.1,0,0.1,0.1,0.2v0c0,0.1,0.1,0.3,0.1,0.4c0.1,0.3,0.1,3.5,0.1,3.7c0,0.4,0,5.8,0,6.2c0,0,0,0,0,0.1l0,0.1h2.3l0-0.1 c0.1-0.5,0.1-5.9,0.1-6.3c0-0.3,0-3.5-0.1-3.8c0-0.1,0-0.2,0-0.3c0-0.1,0-0.2-0.1-0.4c-0.2-1-0.6-1.9-1.1-2.7c0-0.1-0.1-0.1-0.1-0.2 c-0.9-1.3-2.1-2.4-3.8-3.3c-0.7-0.3-1.2-0.3-1.9,0c-1.7,0.9-3,2-3.8,3.4c0,0.1-0.1,0.1-0.1,0.2c-0.5,0.8-0.9,1.7-1.1,2.7v0 c0,0.1-0.1,0.2-0.1,0.4c-0.1,0.4-0.1,3.6-0.1,4v0C76.3,28.3,76.3,28.4,76.3,28.5"></path><path class="st1" d="M152.6,24.1c0.2-1.1,0.5-2,1.1-2.9c0-0.1,0.1-0.1,0.1-0.2c0.9-1.4,2.1-2.5,3.8-3.4c0.6-0.3,1.1-0.3,1.7,0 c1.7,0.9,2.9,2,3.8,3.3c0,0.1,0.1,0.1,0.1,0.2c0.5,0.9,0.9,1.8,1.1,2.9c0,0.1,0,0.2,0.1,0.3c0,0.1,0,0.1,0,0.2c0,0.2,0,3.4,0,3.6 c0,0.4,0,5.8-0.1,6.2c0,0,0,0,0,0h-2c0.1-0.4,0.1-5.8,0-6.2c0-0.4-0.1-3.8-0.2-4.2c0-0.1,0-0.2-0.1-0.2c0,0,0-0.1,0-0.1 c-0.5-1.7-1.6-3-3.3-4c-0.2-0.1-0.4-0.1-0.6,0c-1.6,1-2.8,2.5-3.3,4.1v0c0,0.1-0.1,0.2-0.1,0.4c-0.1,0.3-0.1,3.6-0.2,4 c0,0.4,0,5.8,0,6.2h-2c0,0,0,0,0-0.1c0-0.1,0-5.1,0-5.2c0-0.2,0-0.4-0.1-0.6c0-0.1,0-0.2,0-0.3v0c0-0.2,0-3.3,0.1-3.6 C152.5,24.4,152.5,24.2,152.6,24.1 M152.3,28.5c0,0.3,0,5.6,0.1,5.8c0,0,0,0.1,0,0.1l0,0.1h2.3l0-0.1c0-0.1,0-5.2,0-5.3 c0-0.3,0-0.6,0-0.9c0-0.2,0-3.3,0.1-3.4c0-0.2,0.1-0.4,0.1-0.5c0.4-1.8,1.6-3.4,3.3-4.4c0.2-0.1,0.3-0.1,0.5,0c1.6,1,2.7,2.4,3.2,4 c0,0.1,0,0.1,0.1,0.2v0c0,0.1,0.1,0.3,0.1,0.4c0.1,0.3,0.1,3.5,0.1,3.7c0,0.4,0,5.8,0,6.2c0,0,0,0,0,0.1l0,0.1h2.3l0-0.1 c0.1-0.5,0.1-5.9,0.1-6.3c0-0.3,0-3.5-0.1-3.8c0-0.1,0-0.2,0-0.3c0-0.1,0-0.2-0.1-0.4c-0.2-1-0.6-1.9-1.1-2.7c0-0.1-0.1-0.1-0.1-0.2 c-0.9-1.3-2.1-2.4-3.8-3.3c-0.7-0.3-1.2-0.3-1.9,0c-1.7,0.9-3,2-3.8,3.4c0,0.1-0.1,0.1-0.1,0.2c-0.5,0.8-0.9,1.7-1.1,2.7v0 c0,0.1-0.1,0.2-0.1,0.4c-0.1,0.4-0.1,3.6-0.1,4v0C152.3,28.3,152.3,28.4,152.3,28.5"></path><path class="st1" d="M114.6,24.1c0.2-1.1,0.5-2,1.1-2.9c0-0.1,0.1-0.1,0.1-0.2c0.8-1.4,2.1-2.5,3.8-3.4c0.6-0.3,1.1-0.3,1.7,0 c1.7,0.9,2.9,2,3.8,3.3c0,0.1,0.1,0.1,0.1,0.2c0.5,0.9,0.9,1.8,1.1,2.9c0,0.1,0,0.2,0.1,0.3c0,0,0,0.1,0,0.1c0,0.2,0,3.4,0,3.7 c0,0.4,0,5.8-0.1,6.2c0,0,0,0,0,0h-2c0.1-0.4,0.1-5.8,0-6.2c0-0.4-0.1-3.8-0.2-4.2c0-0.1,0-0.2-0.1-0.2c0,0,0-0.1,0-0.1 c-0.5-1.6-1.6-3-3.3-4c-0.2-0.1-0.4-0.1-0.6,0c-1.6,1-2.8,2.5-3.3,4.1v0c0,0.1-0.1,0.2-0.1,0.4c-0.1,0.3-0.1,3.6-0.2,4 c0,0.4,0,5.8,0,6.2h-2c0,0,0,0,0-0.1c0-0.1,0-5.1,0-5.2c0-0.2,0-0.4-0.1-0.7c0-0.1,0-0.2,0-0.3v0c0-0.2,0-3.3,0.1-3.6 C114.6,24.4,114.6,24.2,114.6,24.1 M114.4,28.5c0,0.3,0,5.6,0.1,5.8c0,0,0,0.1,0,0.1l0,0.1h2.3l0-0.1c0-0.1,0-5.2,0-5.3 c0-0.3,0-0.6,0-0.9c0-0.2,0-3.3,0.1-3.4c0-0.2,0.1-0.4,0.1-0.5c0.4-1.8,1.6-3.4,3.3-4.4c0.2-0.1,0.3-0.1,0.5,0c1.6,1,2.7,2.4,3.2,4 c0,0.1,0,0.1,0.1,0.2v0c0,0.1,0.1,0.3,0.1,0.4c0.1,0.3,0.1,3.5,0.1,3.7c0,0.4,0,5.8,0,6.2c0,0,0,0,0,0.1l0,0.1h2.3l0-0.1 c0.1-0.5,0.1-5.9,0.1-6.3c0-0.3,0-3.5-0.1-3.8c0-0.1,0-0.2,0-0.3c0-0.1,0-0.2-0.1-0.4c-0.2-1-0.6-1.9-1.1-2.7c0-0.1-0.1-0.1-0.1-0.2 c-0.9-1.3-2.1-2.4-3.8-3.3c-0.7-0.3-1.2-0.3-1.9,0c-1.7,0.9-3,2-3.8,3.4c0,0.1-0.1,0.1-0.1,0.2c-0.5,0.8-0.9,1.7-1.1,2.7v0 c0,0.1-0.1,0.2-0.1,0.4c-0.1,0.4-0.1,3.6-0.1,4v0C114.4,28.3,114.4,28.4,114.4,28.5"></path><path class="st0" d="M68.1,21.3c0-0.1,0.1-0.1,0.1-0.2c0.9-1.4,2.2-2.6,3.9-3.5c0.6-0.3,1.1-0.3,1.7,0c1.7,0.9,3,2,3.8,3.4 c0,0.1,0.1,0.1,0.1,0.2c0.5,0.9,0.9,1.9,1.1,3c0,0.1,0,0.1,0,0.2c0,0.1,0,0.2,0,0.4c0,0.2,0,3.3,0,3.4c0,0.3,0,0.6-0.1,0.9 c0,0.1,0,5.2,0,5.3h-2c0.1-0.4,0.1-5.8,0-6.2c0-0.4-0.1-3.7-0.2-4.1c0-0.1-0.1-0.2-0.1-0.4v0c-0.5-1.7-1.6-3.1-3.3-4.1 c-0.2-0.1-0.4-0.1-0.6,0c-1.8,1.1-3,2.7-3.4,4.5c0,0.2-0.1,0.4-0.1,0.5c0,0.2,0,3.2,0,3.4c0,0.3,0,0.6,0,0.9v0c0,0.1,0,5.2,0,5.3h-2 c0,0,0,0,0-0.1c0-0.1,0-5.1,0-5.2c0-0.2,0-0.4-0.1-0.6c0-0.1,0-0.2,0-0.3v0c0-0.2,0-3.3,0-3.5v0C67.1,23.4,67.5,22.3,68.1,21.3  M66.8,28.5c0,0.2,0,0.4,0.1,0.6c0,0.1,0,5.1,0,5.2c0,0,0,0.1,0,0.1l0,0.1h2.3l0-0.1c0-0.1,0-5.3,0-5.4c0-0.3,0-0.6,0-0.9 c0-0.2,0-3.2,0-3.4v0c0.3-2,1.5-3.8,3.4-5c0.2-0.1,0.3-0.1,0.5,0c1.6,1,2.7,2.4,3.2,4c0,0.1,0.1,0.2,0.1,0.3c0,0.2,0.1,0.3,0.1,0.5 c0,0.2,0.1,3.3,0.1,3.6c0,0.3,0,0.7,0,1c0,0.1,0,5.2,0,5.3l0,0.1h2.3l0-0.1C79,34,79,28.5,79,28.1c0-0.3,0-3.5-0.1-3.8 c0-0.1,0-0.1,0-0.2c0-0.1,0-0.3-0.1-0.4c-0.2-1-0.6-1.9-1.1-2.8c0-0.1-0.1-0.1-0.1-0.2c-0.9-1.4-2.1-2.5-3.8-3.4 c-0.7-0.3-1.2-0.3-1.9,0c-1.8,0.9-3.1,2.1-3.9,3.5c0,0.1-0.1,0.1-0.1,0.2c-0.5,0.9-0.9,1.9-1,3c0,0.2-0.1,0.3-0.1,0.5 c0,0.2,0,3.3,0,3.5v0C66.8,28.3,66.8,28.4,66.8,28.5"></path><path class="st0" d="M143.1,24c0.2-1,0.5-2,1.1-2.8c0-0.1,0.1-0.1,0.1-0.2c0.9-1.3,2.1-2.5,3.8-3.4c0.6-0.3,1.1-0.3,1.7,0 c1.7,0.9,3,2,3.8,3.4c0,0.1,0.1,0.1,0.1,0.2c0.5,0.9,0.9,1.9,1.1,3c0,0.1,0,0.1,0,0.2c0,0.1,0,0.2,0,0.4c0,0.2,0,3.3,0,3.4 c0,0.3,0,0.6-0.1,0.9c0,0.1,0,5.2,0,5.3h-2c0.1-0.4,0.1-5.8,0-6.2c0-0.4-0.1-3.7-0.2-4.1c0-0.1-0.1-0.2-0.1-0.4v0 c-0.5-1.7-1.6-3.1-3.3-4.1c-0.2-0.1-0.4-0.1-0.6,0c-1.6,1-2.7,2.4-3.2,4c0,0.1-0.1,0.2-0.1,0.4c-0.1,0.4-0.2,3.7-0.2,4.1 c0,0.4,0,5.8,0,6.2h-2c0,0,0,0,0-0.1c0-0.3-0.1-5.5-0.1-5.8c0-0.1,0-0.2,0-0.3v0c0-0.3,0-3.5,0.1-3.7C143,24.3,143,24.1,143.1,24  M142.8,28.5c0,0.3,0,5.6,0.1,5.8c0,0,0,0.1,0,0.1l0,0.1h2.3l0-0.1c0,0,0-0.1,0-0.1c-0.1-0.4-0.1-5.8,0-6.2c0-0.2,0-3.4,0.1-3.6 c0-0.2,0.1-0.3,0.1-0.5c0.4-1.7,1.6-3.3,3.2-4.3c0.2-0.1,0.3-0.1,0.5,0c1.6,1,2.7,2.4,3.2,4c0,0.1,0.1,0.2,0.1,0.3 c0,0.2,0.1,0.3,0.1,0.5c0,0.2,0.1,3.3,0.1,3.6c0,0.3,0,0.7,0,1c0,0.1,0,5.2,0,5.3l0,0.1h2.3l0-0.1c0.1-0.5,0.1-5.9,0.1-6.3 c0-0.3,0-3.5-0.1-3.8c0-0.1,0-0.1,0-0.2c0-0.1,0-0.3-0.1-0.4v0c-0.2-1-0.6-1.9-1.1-2.8c0-0.1-0.1-0.1-0.1-0.2 c-0.9-1.4-2.1-2.5-3.8-3.4c-0.7-0.3-1.2-0.3-1.9,0c-1.7,0.9-2.9,2-3.8,3.3c0,0.1-0.1,0.1-0.1,0.2c-0.5,0.8-0.9,1.7-1.1,2.7 c0,0.1-0.1,0.2-0.1,0.3v0c-0.1,0.4-0.1,3.7-0.1,4.1v0C142.8,28.3,142.8,28.4,142.8,28.5"></path><path class="st0" d="M105.1,24c0.2-1,0.5-2,1.1-2.8c0-0.1,0.1-0.1,0.1-0.2c0.8-1.3,2.1-2.5,3.8-3.4c0.6-0.3,1.1-0.3,1.7,0 c1.7,0.9,3,2,3.8,3.4c0,0.1,0.1,0.1,0.1,0.2c0.5,0.9,0.9,1.9,1.1,3c0,0.1,0,0.1,0,0.2c0,0.1,0,0.2,0,0.4c0,0.2,0,3.3,0,3.4 c0,0.3,0,0.6-0.1,0.9c0,0.1,0,5.2,0,5.3h-2c0.1-0.4,0.1-5.8,0-6.2c0-0.4-0.1-3.7-0.2-4.1c0-0.1-0.1-0.2-0.1-0.4v0 c-0.5-1.7-1.6-3.1-3.3-4.1c-0.2-0.1-0.4-0.1-0.6,0c-1.6,1-2.7,2.4-3.2,4c0,0.1-0.1,0.2-0.1,0.3c-0.1,0.4-0.2,3.7-0.2,4.1 c0,0.4,0,5.8,0,6.2h-2c0,0,0,0,0-0.1c0-0.3-0.1-5.5-0.1-5.8c0-0.1,0-0.2,0-0.3v0c0-0.3,0-3.5,0.1-3.7 C105.1,24.3,105.1,24.1,105.1,24 M104.9,28.5c0,0.3,0,5.6,0.1,5.8c0,0,0,0.1,0,0.1l0,0.1h2.3l0-0.1c0,0,0-0.1,0-0.1 c-0.1-0.4-0.1-5.8,0-6.2c0-0.3,0-3.4,0.1-3.7c0-0.2,0.1-0.3,0.1-0.5c0.4-1.7,1.6-3.3,3.3-4.3c0.2-0.1,0.3-0.1,0.5,0 c1.6,1,2.7,2.4,3.2,4c0,0.1,0.1,0.2,0.1,0.3c0,0.2,0.1,0.3,0.1,0.5c0,0.2,0.1,3.3,0.1,3.6c0,0.3,0,0.7,0,1c0,0.1,0,5.2,0,5.3l0,0.1 h2.3l0-0.1c0.1-0.5,0.1-5.9,0.1-6.3c0-0.3,0-3.5-0.1-3.8c0-0.1,0-0.1,0-0.2c0-0.1,0-0.3-0.1-0.4v0c-0.2-1-0.6-1.9-1.1-2.8 c0-0.1-0.1-0.1-0.1-0.2c-0.9-1.4-2.1-2.5-3.8-3.4c-0.7-0.3-1.2-0.3-1.9,0c-1.7,0.9-3,2-3.8,3.3c0,0.1-0.1,0.1-0.1,0.2 c-0.5,0.8-0.9,1.7-1.1,2.7c0,0.1-0.1,0.2-0.1,0.3v0c-0.1,0.4-0.1,3.7-0.1,4.1v0C104.8,28.3,104.9,28.4,104.9,28.5"></path><path class="st0" d="M86.1,24c0.2-1,0.5-2,1.1-2.8c0-0.1,0.1-0.1,0.1-0.2c0.8-1.3,2.1-2.5,3.8-3.4c0.6-0.3,1.1-0.3,1.7,0 c1.7,0.9,3,2,3.8,3.4c0,0.1,0.1,0.1,0.1,0.2c0.6,0.9,0.9,2,1.1,3.1v0c0,0,0,0,0,0c0,0.2,0.1,0.5,0.1,0.7c0,0.1,0,3,0,3.1 c0,0.2,0,0.4,0,0.6v0c0,0.2,0,5.4-0.1,5.6h-2c0.1-0.4,0.1-5.8,0-6.2c0-0.3-0.1-3.6-0.1-3.9c0-0.1-0.1-0.3-0.1-0.4c0,0,0-0.1,0-0.1 c-0.5-1.7-1.6-3.1-3.3-4.1c-0.2-0.1-0.4-0.1-0.6,0c-1.6,1-2.7,2.4-3.2,4c0,0.1-0.1,0.2-0.1,0.4c-0.1,0.4-0.2,3.7-0.2,4.1 c0,0.4,0,5.8,0,6.2h-2c0,0,0,0,0-0.1c0-0.3-0.1-5.5-0.1-5.8c0-0.1,0-0.2,0-0.3v0c0-0.3,0-3.5,0.1-3.7C86,24.3,86.1,24.1,86.1,24  M85.8,28.5c0,0.3,0,5.6,0.1,5.8c0,0,0,0.1,0,0.1l0,0.1h2.3l0-0.1c0,0,0-0.1,0-0.1c-0.1-0.4-0.1-5.8,0-6.2c0-0.2,0-3.4,0.1-3.6 c0-0.2,0.1-0.3,0.1-0.5c0.4-1.7,1.6-3.3,3.2-4.3c0.2-0.1,0.3-0.1,0.5,0c1.6,1,2.7,2.4,3.2,4c0,0.2,0.1,0.3,0.1,0.5 c0,0.2,0.1,0.4,0.1,0.6c0,0.1,0,3.2,0,3.3c0,0.2,0,0.4,0,0.7c0,0.2,0,5.4-0.1,5.6l0,0.1h2.3l0-0.1c0.1-0.5,0.1-5.9,0.1-6.3 c0-0.3,0-3.5-0.1-3.8c0-0.1,0-0.3-0.1-0.4c-0.2-1-0.5-2-1.1-2.8c0-0.1-0.1-0.1-0.1-0.2c-0.9-1.4-2.2-2.5-3.9-3.4 c-0.7-0.3-1.2-0.3-1.9,0c-1.7,0.9-3,2-3.8,3.3c0,0.1-0.1,0.1-0.1,0.2c-0.5,0.8-0.9,1.7-1.1,2.7c0,0.1-0.1,0.2-0.1,0.4v0 c-0.1,0.4-0.1,3.7-0.1,4.1v0C85.8,28.3,85.8,28.4,85.8,28.5"></path><path class="st0" d="M162.1,24c0.2-1,0.5-2,1.1-2.8c0-0.1,0.1-0.1,0.1-0.2c0.8-1.3,2.1-2.5,3.8-3.4c0.6-0.3,1.1-0.3,1.7,0 c1.5,0.8,2.7,1.8,3.6,3c0,0,0.1,0.1,0.1,0.1c0.5,0.8,0.9,1.6,1.1,2.5c0,0.1,0,0.2,0.1,0.3c0.1,0.3,0.1,0.5,0.2,0.8 c0,0.3,0.1,3.5,0.1,3.8c0,0.4,0,5.8-0.1,6.2h-2c0.1-0.4,0.1-5.8,0-6.2c0-0.5-0.1-3.9-0.3-4.4c0-0.2-0.1-0.3-0.2-0.5 c0-0.1-0.1-0.2-0.1-0.2c-0.6-1.4-1.6-2.5-3-3.4c-0.2-0.1-0.4-0.1-0.6,0c-1.6,1-2.7,2.4-3.2,4c0,0.1-0.1,0.2-0.1,0.4 c-0.1,0.4-0.2,3.7-0.2,4.1c0,0.4,0,5.8,0,6.2h-2c0,0,0,0,0-0.1c0-0.3-0.1-5.5-0.1-5.8c0-0.1,0-0.2,0-0.3v0c0-0.3,0-3.5,0.1-3.7 C162,24.3,162,24.1,162.1,24 M161.8,28.5c0,0.3,0,5.6,0.1,5.8c0,0,0,0.1,0,0.1l0,0.1h2.3l0-0.1c0,0,0-0.1,0-0.1 c-0.1-0.4-0.1-5.8,0-6.2c0-0.2,0-3.4,0.1-3.6c0-0.2,0.1-0.3,0.1-0.5c0.4-1.7,1.6-3.3,3.2-4.3c0.2-0.1,0.3-0.1,0.5,0 c1.5,0.9,2.5,2.1,3,3.5c0,0.1,0.1,0.2,0.1,0.3c0,0.1,0.1,0.2,0.1,0.3c0.1,0.5,0.2,3.9,0.3,4.4c0,0.4,0,5.8,0,6.2c0,0,0,0,0,0.1 l0,0.1h2.3l0-0.1c0.1-0.5,0.1-5.9,0.1-6.3c0-0.3,0-3.5-0.1-3.8c0-0.4-0.1-0.7-0.2-1.1c0-0.1,0-0.2-0.1-0.3c-0.2-0.9-0.6-1.6-1.1-2.4 c0,0-0.1-0.1-0.1-0.1c-0.9-1.2-2.1-2.2-3.6-3c-0.7-0.3-1.2-0.3-1.9,0c-1.7,0.9-2.9,2-3.8,3.3c0,0.1-0.1,0.1-0.1,0.2 c-0.5,0.8-0.9,1.7-1.1,2.7c0,0.1-0.1,0.2-0.1,0.3v0c-0.1,0.4-0.1,3.7-0.1,4.1v0C161.8,28.3,161.8,28.4,161.8,28.5"></path><path class="st0" d="M124.1,24c0.2-1,0.5-2,1.1-2.8c0-0.1,0.1-0.1,0.1-0.2c0.8-1.3,2.1-2.5,3.8-3.4c0.6-0.3,1.1-0.3,1.7,0 c1.7,0.9,2.9,2,3.8,3.3c0,0,0.1,0.1,0.1,0.1c0.5,0.9,0.9,1.8,1.1,2.9c0,0.1,0,0.2,0.1,0.3c0,0.1,0,0.1,0,0.1c0,0.2,0,3.4,0,3.6 c0,0.4,0,5.8-0.1,6.2h-2c0.1-0.4,0.1-5.8,0-6.2c0-0.4-0.1-3.8-0.2-4.2c0-0.1,0-0.1-0.1-0.2c0,0,0-0.1,0-0.1c-0.5-1.6-1.6-3-3.3-4 c-0.2-0.1-0.4-0.1-0.6,0c-1.6,1-2.7,2.4-3.2,4c0,0.1-0.1,0.2-0.1,0.4c-0.1,0.4-0.2,3.7-0.2,4.1c0,0.4,0,5.8,0,6.2h-2c0,0,0,0,0-0.1 c0-0.3-0.1-5.5-0.1-5.8c0-0.1,0-0.2,0-0.3v0c0-0.3,0-3.5,0.1-3.7C124.1,24.3,124.1,24.1,124.1,24 M123.9,28.5c0,0.3,0,5.6,0.1,5.8 c0,0,0,0.1,0,0.1l0,0.1h2.3l0-0.1c0,0,0-0.1,0-0.1c-0.1-0.4-0.1-5.8,0-6.2c0-0.3,0-3.4,0.1-3.7c0-0.2,0.1-0.3,0.1-0.5 c0.4-1.7,1.6-3.2,3.2-4.3c0.2-0.1,0.3-0.1,0.5,0c1.6,1,2.7,2.4,3.2,4c0,0.1,0,0.1,0.1,0.2c0,0.1,0.1,0.3,0.1,0.4 c0.1,0.3,0.1,3.5,0.1,3.7c0,0.4,0,5.8,0,6.2c0,0,0,0,0,0.1l0,0.1h2.3l0-0.1c0.1-0.5,0.1-5.9,0.1-6.3c0-0.3,0-3.5-0.1-3.8 c0-0.1,0-0.2,0-0.3c0-0.1,0-0.2-0.1-0.4c-0.2-1-0.6-1.9-1.1-2.7c0-0.1-0.1-0.1-0.1-0.2c-0.9-1.3-2.1-2.4-3.8-3.3 c-0.7-0.3-1.2-0.3-1.9,0c-1.7,0.9-3,2-3.8,3.3c0,0.1-0.1,0.1-0.1,0.2c-0.5,0.8-0.9,1.7-1.1,2.7c0,0.1-0.1,0.2-0.1,0.3v0 c-0.1,0.4-0.1,3.7-0.1,4.1v0C123.8,28.3,123.9,28.4,123.9,28.5"></path><path class="st0" d="M237.6,23.9c0.2-1,0.5-2,1.1-2.8c0-0.1,0.1-0.1,0.1-0.2c0.9-1.3,2.1-2.5,3.8-3.4c0.6-0.3,1.1-0.3,1.7,0 c1.7,0.9,2.9,2,3.8,3.4c0,0,0.1,0.1,0.1,0.1c0.5,0.9,0.9,1.8,1.1,2.9c0,0.1,0,0.2,0.1,0.3c0,0.1,0,0.1,0,0.2c0,0.2,0,3.4,0,3.6 c0,0.4,0,5.8-0.1,6.2c0,0,0,0,0,0h-2c0.1-0.4,0.1-5.8,0-6.2c0-0.4-0.1-3.8-0.2-4.2c0-0.1,0-0.2-0.1-0.2c0,0,0-0.1,0-0.1 c-0.5-1.6-1.6-3-3.3-4c-0.2-0.1-0.4-0.1-0.6,0c-1.6,1-2.7,2.4-3.2,4c0,0.1-0.1,0.2-0.1,0.4c-0.1,0.4-0.2,3.7-0.2,4.1 c0,0.4,0,5.8,0,6.2h-2c0,0,0,0,0-0.1c0-0.3-0.1-5.5-0.1-5.8c0-0.1,0-0.2,0-0.3v0c0-0.3,0-3.5,0.1-3.7 C237.6,24.2,237.6,24.1,237.6,23.9 M237.3,28.5c0,0.3,0,5.6,0.1,5.8c0,0,0,0.1,0,0.1l0,0.1h2.3l0-0.1c0,0,0,0,0-0.1 c0-0.4-0.1-5.8,0-6.2c0-0.3,0-3.4,0.1-3.7c0-0.2,0.1-0.3,0.1-0.5c0.4-1.7,1.6-3.3,3.2-4.3c0.2-0.1,0.3-0.1,0.5,0 c1.6,1,2.7,2.4,3.2,4c0,0.1,0,0.1,0.1,0.2c0,0.1,0.1,0.3,0.1,0.4c0.1,0.3,0.1,3.5,0.1,3.7c0,0.4,0,5.8,0,6.2c0,0,0,0,0,0.1l0,0.1 h2.3l0-0.1c0.1-0.5,0.1-5.9,0.1-6.3c0-0.3,0-3.5-0.1-3.8c0-0.1,0-0.2,0-0.3c0-0.1,0-0.2-0.1-0.4c-0.2-1-0.6-1.9-1.1-2.7 c0-0.1-0.1-0.1-0.1-0.2c-0.9-1.3-2.1-2.4-3.8-3.3c-0.7-0.3-1.2-0.4-1.9,0c-1.7,0.9-2.9,2-3.8,3.3c0,0.1-0.1,0.1-0.1,0.2 c-0.5,0.8-0.9,1.7-1.1,2.7c0,0.1,0,0.2-0.1,0.3c-0.1,0.4-0.1,3.7-0.1,4.2v0C237.3,28.3,237.3,28.4,237.3,28.5"></path><path class="st0" d="M199.7,24.2c0.2-1.1,0.5-2.1,1.1-3c0-0.1,0.1-0.1,0.1-0.2c0.8-1.4,2.1-2.5,3.9-3.5c0.6-0.3,1.1-0.3,1.7,0 c1.7,0.9,2.9,2,3.8,3.4c0,0,0.1,0.1,0.1,0.1c0.5,0.9,0.9,1.8,1.1,2.9c0,0.1,0,0.2,0.1,0.3c0,0.1,0,0.1,0,0.2c0,0.2,0,3.4,0,3.6 c0,0.4,0,5.8-0.1,6.2c0,0,0,0,0,0h-2c0.1-0.4,0.1-5.8,0-6.2c0-0.4-0.1-3.8-0.2-4.2c0-0.1,0-0.2-0.1-0.2c0,0,0-0.1,0-0.1 c-0.5-1.6-1.6-3-3.3-4c-0.2-0.1-0.4-0.1-0.6,0c-1.7,1-2.8,2.5-3.3,4.2c0,0.1-0.1,0.3-0.1,0.4v0c-0.1,0.3-0.1,3.5-0.1,3.8 c0,0.4,0,5.8,0,6.2h-2c0,0,0,0,0-0.1c0-0.1,0-5.3-0.1-5.4c0-0.1,0-0.2,0-0.4c0-0.1,0-0.2,0-0.3v0c0-0.1,0-3.1,0-3.3 C199.6,24.7,199.6,24.4,199.7,24.2 M199.4,28.5c0,0.3,0,5.6,0.1,5.8c0,0,0,0.1,0,0.1l0,0.1h2.3l0-0.1c0-0.2,0-5.5,0-5.7v0 c0-0.2,0-0.4,0-0.6c0-0.1,0-3,0-3.1c0-0.2,0.1-0.5,0.1-0.7c0.4-1.8,1.5-3.5,3.3-4.6c0.2-0.1,0.3-0.1,0.5,0c1.6,1,2.7,2.4,3.2,4 c0,0.1,0,0.1,0.1,0.2v0c0,0.1,0.1,0.3,0.1,0.4c0.1,0.3,0.1,3.5,0.1,3.7c0,0.4,0,5.8,0,6.2c0,0,0,0,0,0.1l0,0.1h2.3l0-0.1 c0.1-0.5,0.1-5.9,0.1-6.3c0-0.3,0-3.5-0.1-3.8c0-0.1,0-0.2,0-0.3c0-0.1,0-0.2-0.1-0.4c-0.2-1-0.6-1.9-1.1-2.7c0-0.1-0.1-0.1-0.1-0.2 c-0.9-1.3-2.1-2.4-3.8-3.3c-0.7-0.3-1.2-0.3-1.9,0c-1.7,0.9-3,2.1-3.9,3.4c0,0.1-0.1,0.1-0.1,0.2c-0.5,0.8-0.9,1.8-1.1,2.8 c0,0.1,0,0.3-0.1,0.4c0,0.3-0.1,3.5-0.1,3.9v0C199.4,28.3,199.4,28.4,199.4,28.5"></path><path class="st0" d="M180.6,24.1c0.2-1.1,0.5-2,1.1-2.9c0-0.1,0.1-0.1,0.1-0.2c0.8-1.4,2.1-2.5,3.8-3.4c0.6-0.3,1.1-0.3,1.7,0 c1.7,0.9,2.9,2,3.8,3.3c0,0,0.1,0.1,0.1,0.1c0.5,0.9,0.9,1.8,1.1,2.9c0,0.1,0,0.2,0.1,0.3c0,0.1,0,0.1,0,0.1c0,0.2,0,3.4,0,3.6 c0,0.4,0,5.8-0.1,6.2c0,0,0,0,0,0h-2c0-0.4,0.1-5.8,0-6.2c0-0.4-0.1-3.8-0.2-4.2c0-0.1,0-0.1-0.1-0.2c0,0,0-0.1,0-0.1 c-0.5-1.6-1.6-3-3.3-4c-0.2-0.1-0.4-0.1-0.6,0c-1.6,1-2.8,2.5-3.3,4.1v0c0,0.1-0.1,0.3-0.1,0.4c-0.1,0.4-0.1,3.6-0.2,4 c0,0.4,0,5.8,0,6.2h-2c0,0,0,0,0-0.1c0-0.1,0-5.1,0-5.2c0-0.2,0-0.4-0.1-0.6c0-0.1,0-0.2,0-0.3v0c0-0.2,0-3.3,0.1-3.6 C180.6,24.4,180.6,24.2,180.6,24.1 M180.4,28.5c0,0.3,0,5.6,0.1,5.8c0,0,0,0.1,0,0.1l0,0.1h2.3l0-0.1c0-0.1,0-5.2,0-5.3 c0-0.3,0-0.6,0-0.9c0-0.2,0-3.3,0.1-3.4c0-0.2,0.1-0.4,0.1-0.5c0.4-1.8,1.6-3.4,3.3-4.4c0.2-0.1,0.3-0.1,0.5,0c1.6,1,2.7,2.4,3.2,4 c0,0.1,0,0.1,0.1,0.2c0,0.1,0.1,0.3,0.1,0.4c0.1,0.3,0.1,3.5,0.1,3.7c0,0.4,0,5.8,0,6.2c0,0,0,0,0,0.1l0,0.1h2.3l0-0.1 c0.1-0.5,0.1-5.9,0.1-6.3c0-0.3,0-3.5-0.1-3.8c0-0.1,0-0.2-0.1-0.3c0-0.1,0-0.2-0.1-0.4c-0.2-1-0.6-1.9-1.1-2.7 c0-0.1-0.1-0.1-0.1-0.2c-0.9-1.3-2.1-2.4-3.8-3.3c-0.7-0.3-1.2-0.3-1.9,0c-1.7,0.9-3,2-3.8,3.4c0,0.1-0.1,0.1-0.1,0.2 c-0.5,0.8-0.9,1.7-1.1,2.7v0c0,0.1-0.1,0.2-0.1,0.4c-0.1,0.4-0.1,3.6-0.1,4v0C180.4,28.3,180.4,28.4,180.4,28.5"></path><path class="st0" d="M256.6,24.1c0.2-1.1,0.5-2,1.1-2.9c0-0.1,0.1-0.1,0.1-0.2c0.9-1.4,2.1-2.5,3.8-3.4c0.6-0.3,1.1-0.3,1.7,0 c1.7,0.9,2.9,2,3.8,3.4c0,0,0.1,0.1,0.1,0.1c0.5,0.9,0.9,1.8,1.1,2.9c0,0.1,0,0.2,0.1,0.3c0,0.1,0,0.1,0,0.2c0,0.2,0,3.4,0,3.6 c0,0.4,0,5.8-0.1,6.2c0,0,0,0,0,0h-2c0.1-0.4,0.1-5.8,0-6.2c0-0.4-0.1-3.8-0.2-4.2c0-0.1,0-0.2-0.1-0.2c0,0,0-0.1,0-0.1 c-0.5-1.6-1.6-3-3.3-4c-0.2-0.1-0.4-0.1-0.6,0c-1.6,1-2.8,2.5-3.3,4.1v0c0,0.1-0.1,0.3-0.1,0.4c-0.1,0.4-0.1,3.6-0.2,4 c0,0.4,0,5.8,0,6.2h-2c0,0,0,0,0-0.1c0-0.1,0-5.1,0-5.2c0-0.2,0-0.4-0.1-0.6c0-0.1,0-0.2,0-0.3v0c0-0.2,0-3.3,0.1-3.6 C256.5,24.4,256.6,24.2,256.6,24.1 M256.3,28.5c0,0.3,0,5.6,0.1,5.8c0,0,0,0.1,0,0.1l0,0.1h2.3l0-0.1c0-0.1,0-5.2,0-5.3 c0-0.3,0-0.6,0-0.9c0-0.2,0-3.3,0.1-3.4c0-0.2,0.1-0.4,0.1-0.5c0.4-1.8,1.6-3.4,3.3-4.4c0.2-0.1,0.3-0.1,0.5,0c1.6,1,2.7,2.4,3.2,4 c0,0.1,0,0.1,0.1,0.2c0,0.1,0.1,0.3,0.1,0.4c0.1,0.3,0.1,3.5,0.1,3.7c0,0.4,0,5.8,0,6.2c0,0,0,0,0,0.1l0,0.1h2.3l0-0.1 c0.1-0.5,0.1-5.9,0.1-6.3c0-0.3,0-3.5-0.1-3.8c0-0.1,0-0.2-0.1-0.3c0-0.1,0-0.2-0.1-0.4c-0.2-1-0.6-1.9-1.1-2.7 c0-0.1-0.1-0.1-0.1-0.2c-0.9-1.3-2.1-2.4-3.8-3.3c-0.7-0.3-1.2-0.4-1.9,0c-1.7,0.9-3,2-3.8,3.4c0,0.1-0.1,0.1-0.1,0.2 c-0.5,0.8-0.9,1.7-1.1,2.7v0c0,0.1-0.1,0.2-0.1,0.4c-0.1,0.4-0.1,3.6-0.1,4v0C256.3,28.3,256.3,28.4,256.3,28.5"></path><path class="st0" d="M218.7,24.1c0.2-1.1,0.5-2,1.1-2.9c0-0.1,0.1-0.1,0.1-0.2c0.9-1.4,2.1-2.5,3.8-3.4c0.6-0.3,1.1-0.3,1.7,0 c1.7,0.9,2.9,2,3.8,3.4c0,0,0.1,0.1,0.1,0.1c0.5,0.9,0.9,1.8,1.1,2.9c0,0.1,0,0.2,0.1,0.3c0,0.1,0,0.1,0,0.2c0,0.2,0,3.4,0,3.6 c0,0.4,0,5.8-0.1,6.2c0,0,0,0,0,0h-2c0.1-0.4,0.1-5.8,0-6.2c0-0.4-0.1-3.8-0.2-4.2c0-0.1,0-0.2-0.1-0.2c0,0,0-0.1,0-0.1 c-0.5-1.6-1.6-3-3.3-4c-0.2-0.1-0.4-0.1-0.6,0c-1.6,1-2.8,2.5-3.3,4.1c0,0.1-0.1,0.3-0.1,0.4c-0.1,0.3-0.1,3.6-0.2,4 c0,0.4,0,5.8,0,6.2h-2c0,0,0,0,0-0.1c0-0.1,0-5.1,0-5.2c0-0.2,0-0.4-0.1-0.6c0-0.1,0-0.2,0-0.3v0c0-0.2,0-3.3,0.1-3.6 C218.6,24.4,218.6,24.2,218.7,24.1 M218.4,28.5c0,0.3,0,5.6,0.1,5.8c0,0,0,0.1,0,0.1l0,0.1h2.3l0-0.1c0-0.1,0-5.2,0-5.3 c0-0.3,0-0.6,0-0.9c0-0.2,0-3.3,0.1-3.4c0-0.2,0.1-0.4,0.1-0.5c0.4-1.8,1.6-3.4,3.3-4.4c0.2-0.1,0.3-0.1,0.5,0c1.6,1,2.7,2.4,3.2,4 c0,0.1,0,0.1,0.1,0.2v0c0,0.1,0.1,0.3,0.1,0.4c0.1,0.3,0.1,3.5,0.1,3.7c0,0.4,0,5.8,0,6.2c0,0,0,0,0,0.1l0,0.1h2.3l0-0.1 c0.1-0.5,0.1-5.9,0.1-6.3c0-0.3,0-3.5-0.1-3.8c0-0.1,0-0.2,0-0.3c0-0.1,0-0.2-0.1-0.4c-0.2-1-0.6-1.9-1.1-2.7c0-0.1-0.1-0.1-0.1-0.2 c-0.9-1.3-2.1-2.4-3.8-3.3c-0.7-0.3-1.2-0.3-1.9,0c-1.7,0.9-3,2-3.8,3.4c0,0.1-0.1,0.1-0.1,0.2c-0.5,0.8-0.9,1.7-1.1,2.7v0 c0,0.1-0.1,0.2-0.1,0.4c-0.1,0.4-0.1,3.6-0.1,4v0C218.4,28.3,218.4,28.4,218.4,28.5"></path><path class="st1" d="M171,28.1c0-0.6,0.1-4.1,0.2-4.6c0-0.1,0-0.2,0.1-0.3c0.2-0.9,0.6-1.7,1.1-2.4c0,0,0.1-0.1,0.1-0.1 c0.8-1.2,2.1-2.2,3.6-3c0.6-0.3,1.1-0.3,1.7,0c1.7,0.9,3,2,3.8,3.4c0,0.1,0.1,0.1,0.1,0.2c0.5,0.9,0.9,1.9,1.1,3c0,0.1,0,0.1,0,0.2 c0,0.1,0,0.2,0,0.4c0,0.2,0,3.3,0,3.4c0,0.3,0,0.6-0.1,0.9c0,0.1,0,5.2,0,5.3h-2c0.1-0.4,0.1-5.8,0-6.2c0-0.4-0.1-3.7-0.2-4.1 c0-0.1-0.1-0.2-0.1-0.4v0c-0.5-1.7-1.6-3.1-3.3-4.1c-0.2-0.1-0.4-0.1-0.6,0c-1.4,0.8-2.4,2-3,3.4c0,0.1-0.1,0.2-0.1,0.2 c-0.2,0.6-0.4,4.2-0.4,4.9c0,0.4,0,5.8,0,6.2h-2c0,0,0,0,0-0.1c0-0.3-0.1-5.5-0.1-5.8C171,28.4,171,28.3,171,28.1L171,28.1z  M170.8,28.5c0,0.3,0,5.6,0.1,5.8c0,0,0,0.1,0,0.1l0,0.1h2.3l0-0.1c0,0,0,0,0-0.1c0-0.4-0.1-5.8,0-6.2c0-0.6,0.1-4.1,0.3-4.6 c0-0.1,0.1-0.2,0.1-0.3c0.5-1.4,1.6-2.7,3-3.5c0.2-0.1,0.3-0.1,0.5,0c1.6,1,2.7,2.4,3.2,4c0,0.1,0.1,0.2,0.1,0.3 c0,0.2,0.1,0.3,0.1,0.5c0,0.2,0.1,3.3,0.1,3.6c0,0.3,0,0.6,0,1c0,0.1,0,5.2,0,5.3l0,0.1h2.3l0-0.1c0.1-0.5,0.1-5.9,0.1-6.3 c0-0.3,0-3.5-0.1-3.8c0-0.1,0-0.1,0-0.2c0-0.1,0-0.3-0.1-0.4v0c-0.2-1-0.6-1.9-1.1-2.8c0-0.1-0.1-0.1-0.1-0.2 c-0.9-1.4-2.1-2.5-3.8-3.4c-0.7-0.3-1.2-0.3-1.9,0c-1.5,0.8-2.8,1.8-3.6,3c0,0-0.1,0.1-0.1,0.1c-0.5,0.7-0.9,1.5-1.1,2.3 c0,0.1-0.1,0.2-0.1,0.2c-0.2,0.6-0.3,4.2-0.3,4.9v0C170.8,28.3,170.8,28.4,170.8,28.5"></path><path class="st1" d="M247.1,24c0.2-1,0.5-2,1.1-2.8c0-0.1,0.1-0.1,0.1-0.2c0.9-1.3,2.1-2.5,3.8-3.4c0.6-0.3,1.1-0.3,1.7,0 c1.7,0.9,3,2,3.8,3.4c0,0.1,0.1,0.1,0.1,0.2c0.5,0.9,0.9,1.9,1.1,3c0,0.1,0,0.1,0,0.2c0,0.1,0,0.2,0,0.4c0,0.2,0,3.3,0,3.4 c0,0.3,0,0.6-0.1,0.9c0,0.1,0,5.2,0,5.3h-2c0.1-0.4,0.1-5.8,0-6.2c0-0.4-0.1-3.7-0.2-4.1c0-0.1-0.1-0.2-0.1-0.4v0 c-0.5-1.7-1.6-3.1-3.3-4.1c-0.2-0.1-0.4-0.1-0.6,0c-1.6,1-2.7,2.4-3.2,4c0,0.1-0.1,0.2-0.1,0.4c-0.1,0.4-0.2,3.7-0.2,4.1 c0,0.4,0,5.8,0,6.2h-2c0,0,0,0,0-0.1c0-0.3-0.1-5.5-0.1-5.8c0-0.1,0-0.2,0-0.3v0c0-0.3,0-3.5,0.1-3.7C247,24.2,247.1,24.1,247.1,24  M246.8,28.5c0,0.3,0,5.6,0.1,5.8c0,0,0,0.1,0,0.1l0,0.1h2.3l0-0.1c0,0,0-0.1,0-0.1c-0.1-0.4-0.1-5.8,0-6.2c0-0.2,0-3.4,0.1-3.6 c0-0.2,0.1-0.3,0.1-0.5c0.4-1.7,1.6-3.3,3.2-4.3c0.2-0.1,0.3-0.1,0.5,0c1.6,1,2.7,2.4,3.2,4c0,0.1,0.1,0.2,0.1,0.3 c0,0.2,0.1,0.3,0.1,0.5c0,0.2,0.1,3.3,0.1,3.6c0,0.3,0,0.7,0,1c0,0.1,0,5.2,0,5.3l0,0.1h2.3l0-0.1c0.1-0.5,0.1-5.9,0.1-6.3 c0-0.3,0-3.5-0.1-3.8c0-0.1,0-0.1,0-0.2c0-0.1,0-0.3-0.1-0.4v0c-0.2-1-0.6-1.9-1.1-2.8c0-0.1-0.1-0.1-0.1-0.2 c-0.9-1.4-2.1-2.5-3.8-3.4c-0.7-0.3-1.2-0.3-1.9,0c-1.7,0.9-2.9,2-3.8,3.3c0,0.1-0.1,0.1-0.1,0.2c-0.5,0.8-0.9,1.7-1.1,2.7 c0,0.1-0.1,0.2-0.1,0.4c-0.1,0.4-0.1,3.7-0.1,4.2v0C246.8,28.3,246.8,28.4,246.8,28.5"></path><path class="st1" d="M209.2,24c0.2-1,0.5-2,1.1-2.8c0-0.1,0.1-0.1,0.1-0.2c0.9-1.3,2.1-2.5,3.8-3.4c0.6-0.3,1.1-0.3,1.7,0 c1.7,0.9,3,2,3.8,3.4c0,0.1,0.1,0.1,0.1,0.2c0.5,0.9,0.9,1.9,1.1,3c0,0.1,0,0.1,0,0.2c0,0.1,0,0.2,0,0.4c0,0.2,0,3.3,0,3.4 c0,0.3,0,0.6-0.1,0.9c0,0.1,0,5.2,0,5.3h-2c0.1-0.4,0.1-5.8,0-6.2c0-0.4-0.1-3.7-0.2-4.1c0-0.1-0.1-0.2-0.1-0.4v0 c-0.5-1.7-1.6-3.1-3.3-4.1c-0.2-0.1-0.4-0.1-0.6,0c-1.6,1-2.7,2.4-3.2,4c0,0.1-0.1,0.2-0.1,0.4c-0.1,0.4-0.2,3.7-0.2,4.1 c0,0.4,0,5.8,0,6.2h-2c0,0,0,0,0-0.1c0-0.3-0.1-5.5-0.1-5.8c0-0.1,0-0.2,0-0.3v0c0-0.3,0-3.5,0.1-3.7 C209.1,24.3,209.1,24.1,209.2,24 M208.9,28.5c0,0.3,0,5.6,0.1,5.8c0,0,0,0.1,0,0.1l0,0.1h2.3l0-0.1c0,0,0-0.1,0-0.1 c-0.1-0.4-0.1-5.8,0-6.2c0-0.2,0-3.4,0.1-3.6c0-0.2,0.1-0.3,0.1-0.5c0.4-1.7,1.6-3.3,3.2-4.3c0.2-0.1,0.3-0.1,0.5,0 c1.6,1,2.7,2.4,3.2,4c0,0.1,0.1,0.2,0.1,0.3c0,0.2,0.1,0.3,0.1,0.5c0,0.2,0.1,3.3,0.1,3.6c0,0.3,0,0.7,0,1c0,0.1,0,5.2,0,5.3l0,0.1 h2.3l0-0.1c0.1-0.5,0.1-5.9,0.1-6.3c0-0.3,0-3.5-0.1-3.8c0-0.1,0-0.1,0-0.2c0-0.1,0-0.3-0.1-0.4c-0.2-1-0.6-1.9-1.1-2.8 c0-0.1-0.1-0.1-0.1-0.2c-0.9-1.4-2.1-2.5-3.8-3.4c-0.7-0.3-1.2-0.3-1.9,0c-1.7,0.9-2.9,2-3.8,3.3c0,0.1-0.1,0.1-0.1,0.2 c-0.5,0.8-0.9,1.7-1.1,2.7c0,0.1-0.1,0.2-0.1,0.3v0c-0.1,0.4-0.1,3.7-0.1,4.1v0C208.9,28.3,208.9,28.4,208.9,28.5"></path><path class="st1" d="M190.1,23.9c0.2-1,0.5-2,1.1-2.8c0-0.1,0.1-0.1,0.1-0.2c0.9-1.3,2.1-2.5,3.8-3.4c0.6-0.3,1.1-0.3,1.7,0 c1.7,0.9,3,2,3.8,3.4c0,0.1,0.1,0.1,0.1,0.2c0.6,0.9,0.9,2,1.1,3.1v0c0,0,0,0,0,0c0,0.2,0.1,0.5,0.1,0.7c0,0.1,0,3,0,3.1 c0,0.2,0,0.4,0,0.6v0c0,0.2,0,5.4-0.1,5.6h-2c0.1-0.4,0.1-5.8,0-6.2c0-0.3-0.1-3.6-0.1-3.9c0-0.1-0.1-0.3-0.1-0.4c0,0,0-0.1,0-0.1 c-0.5-1.7-1.6-3.1-3.3-4.1c-0.2-0.1-0.4-0.1-0.6,0c-1.6,1-2.7,2.4-3.2,4c0,0.1-0.1,0.2-0.1,0.3c-0.1,0.4-0.2,3.7-0.2,4.1 c0,0.4,0,5.8,0,6.2h-2c0,0,0,0,0-0.1c0-0.3-0.1-5.5-0.1-5.8c0-0.1,0-0.2,0-0.3v0c0-0.3,0-3.5,0.1-3.7 C190.1,24.2,190.1,24.1,190.1,23.9 M189.8,28.5c0,0.3,0,5.6,0.1,5.8c0,0,0,0.1,0,0.1l0,0.1h2.3l0-0.1c0,0,0-0.1,0-0.1 c-0.1-0.4-0.1-5.8,0-6.2c0-0.2,0-3.4,0.1-3.6c0-0.2,0.1-0.3,0.1-0.5c0.4-1.7,1.6-3.3,3.2-4.3c0.2-0.1,0.3-0.1,0.5,0 c1.6,1,2.7,2.4,3.2,4c0,0.2,0.1,0.3,0.1,0.5c0,0.2,0.1,0.4,0.1,0.6c0,0.1,0,3.2,0,3.3c0,0.2,0,0.5,0,0.7c0,0.2,0,5.4,0,5.6l0,0.1 h2.3l0-0.1c0.1-0.5,0.1-5.9,0.1-6.3c0-0.3,0-3.5-0.1-3.8c0-0.1,0-0.3-0.1-0.4c-0.2-1-0.5-2-1.1-2.8c0-0.1-0.1-0.1-0.1-0.2 c-0.9-1.4-2.1-2.5-3.9-3.4c-0.7-0.3-1.2-0.3-1.9,0c-1.7,0.9-2.9,2-3.8,3.3c0,0.1-0.1,0.1-0.1,0.2c-0.5,0.8-0.9,1.7-1.1,2.7 c0,0.1-0.1,0.2-0.1,0.3c-0.1,0.4-0.1,3.7-0.1,4.2v0C189.8,28.3,189.8,28.4,189.8,28.5"></path><path class="st1" d="M266.1,24c0.2-1,0.5-2,1.1-2.8c0-0.1,0.1-0.1,0.1-0.2c0.9-1.3,2.1-2.5,3.8-3.4c0.6-0.3,1.1-0.3,1.7,0 c1.2,0.7,2.3,1.5,3.1,2.4c0,0,0.1,0.1,0.1,0.1c0.4,0.5,0.8,1.1,1.1,1.7c0,0.1,0,0.1,0.1,0.2c0.3,0.7,0.6,1.5,0.7,2.3 c0,0.3,0.1,3.5,0.1,3.8c0,0.4,0,5.8-0.1,6.2h-2c0.1-0.4,0.1-5.8,0-6.2c0-0.5-0.1-3.9-0.3-4.4c-0.5-1.7-1.6-3.1-3.3-4.1 c-0.2-0.1-0.4-0.1-0.6,0c-1.6,1-2.7,2.4-3.2,4c0,0.1-0.1,0.2-0.1,0.4c-0.1,0.4-0.2,3.7-0.2,4.1c0,0.4,0,5.8,0,6.2h-2c0,0,0,0,0-0.1 c0-0.3-0.1-5.5-0.1-5.8c0-0.1,0-0.2,0-0.3v0c0-0.3,0-3.5,0.1-3.7C266,24.2,266.1,24.1,266.1,24 M265.8,28.5c0,0.3,0,5.6,0.1,5.8 c0,0,0,0.1,0,0.1l0,0.1h2.3l0-0.1c0,0,0-0.1,0-0.1c-0.1-0.4-0.1-5.8,0-6.2c0-0.2,0-3.4,0.1-3.6c0-0.2,0.1-0.3,0.1-0.5 c0.4-1.7,1.6-3.3,3.2-4.3c0.2-0.1,0.3-0.1,0.5,0c1.6,1,2.7,2.4,3.2,4c0.1,0.5,0.2,3.9,0.3,4.4c0,0.4,0,5.8-0.1,6.3l0,0.1h2.3l0-0.1 c0,0,0,0,0,0c0.1-0.4,0.1-5.9,0.1-6.3c0-0.3,0-3.5-0.1-3.8c-0.1-0.9-0.4-1.7-0.7-2.4c0-0.1,0-0.1-0.1-0.2c-0.3-0.6-0.7-1.2-1.1-1.7 c0,0-0.1-0.1-0.1-0.1c-0.8-0.9-1.8-1.7-3.1-2.4c-0.7-0.3-1.2-0.3-1.9,0c-1.7,0.9-2.9,2-3.8,3.3c0,0.1-0.1,0.1-0.1,0.2 c-0.5,0.8-0.9,1.7-1.1,2.7c0,0.1-0.1,0.2-0.1,0.4c-0.1,0.4-0.1,3.7-0.1,4.2v0C265.8,28.3,265.8,28.4,265.8,28.5"></path><path class="st1" d="M228.2,24c0.2-1,0.5-2,1.1-2.8c0-0.1,0.1-0.1,0.1-0.2c0.9-1.3,2.1-2.5,3.8-3.4c0.6-0.3,1.1-0.3,1.7,0 c1.7,0.9,2.9,2,3.8,3.3c0,0,0.1,0.1,0.1,0.1c0.5,0.9,0.9,1.8,1.1,2.9c0,0.1,0,0.2,0.1,0.3c0,0,0,0.1,0,0.1c0,0.2,0,3.4,0,3.7 c0,0.4,0,5.8-0.1,6.2h-2c0.1-0.4,0.1-5.8,0-6.2c0-0.4-0.1-3.8-0.2-4.2c0-0.1,0-0.1-0.1-0.2c0,0,0-0.1,0-0.1c-0.5-1.6-1.6-3-3.3-4 c-0.2-0.1-0.4-0.1-0.6,0c-1.6,1-2.7,2.4-3.2,4c0,0.1-0.1,0.2-0.1,0.4c-0.1,0.4-0.2,3.7-0.2,4.1c0,0.4,0,5.8,0,6.2h-2c0,0,0,0,0-0.1 c0-0.3-0.1-5.5-0.1-5.8c0-0.1,0-0.2,0-0.3v0c0-0.3,0-3.5,0.1-3.7C228.1,24.3,228.1,24.1,228.2,24 M227.9,28.5c0,0.3,0,5.6,0.1,5.8 c0,0,0,0.1,0,0.1l0,0.1h2.3l0-0.1c0,0,0-0.1,0-0.1c-0.1-0.4-0.1-5.8,0-6.2c0-0.2,0-3.4,0.1-3.6c0-0.2,0.1-0.3,0.1-0.5 c0.4-1.7,1.6-3.3,3.2-4.3c0.2-0.1,0.3-0.1,0.5,0c1.6,1,2.7,2.4,3.2,4c0,0.1,0,0.1,0.1,0.2c0,0.1,0.1,0.3,0.1,0.4 c0.1,0.3,0.1,3.5,0.1,3.7c0,0.4,0,5.8,0,6.2c0,0,0,0,0,0.1l0,0.1h2.3l0-0.1c0.1-0.5,0.1-5.9,0.1-6.3c0-0.3,0-3.5-0.1-3.8 c0-0.1,0-0.2,0-0.3c0-0.1,0-0.2-0.1-0.4c-0.2-1-0.6-1.9-1.1-2.7c0-0.1-0.1-0.1-0.1-0.2c-0.9-1.3-2.1-2.4-3.8-3.3 c-0.7-0.3-1.2-0.4-1.9,0c-1.7,0.9-2.9,2-3.8,3.3c0,0.1-0.1,0.1-0.1,0.2c-0.5,0.8-0.9,1.7-1.1,2.7c0,0.1-0.1,0.2-0.1,0.4v0 c-0.1,0.4-0.1,3.7-0.1,4.1v0C227.9,28.3,227.9,28.4,227.9,28.5"></path></svg>