<?xml version="1.0" encoding="utf-8"?>
<!-- Generator: Adobe Illustrator 24.2.3, SVG Export Plug-In . SVG Version: 6.00 Build 0)  -->
<svg version="1.1" id="Layer_1" xmlns="http://www.w3.org/2000/svg" xmlns:xlink="http://www.w3.org/1999/xlink" x="0px" y="0px"
	 viewBox="0 0 1888.2 832.5" style="enable-background:new 0 0 1888.2 832.5;" xml:space="preserve">
<style type="text/css">
	.st0{fill:#126E38;}
	.st1{fill:#E80F0F;}
	.st2{fill:#F7AA1E;}
	.st3{fill:#0087EB;}
	.st4{opacity:0.1;}
</style>
<g>
	<g>
		<g>
			<g>
				<path class="st0" d="M1239.5,574.3h-1.7l-0.2-1.7c-0.8-5.6-1.5-10.5-2.2-14.9c-3-19.9-4.2-28.1,1.9-37.7
					c6.3-9.8,14.9-16,23.3-22c8.9-6.3,18-12.9,24.3-23.8c6-10.5,5.7-22-0.8-30.2c-7.8-9.7-22.4-12.5-39-7.3
					c-9.9,3.1-16.4,6.4-21.1,8.8c-13.9,7.1-14.9,5.5-31.9-20.7c-1.8-2.7-3.7-5.7-5.8-9l-0.9-1.5l1.3-1.1
					c34.9-29.2,77.6-38.2,114.3-24.1c26.8,10.3,44.9,31.1,48.4,55.7c3.9,27.9-11.6,56.6-43.8,80.8c-20.9,15.8-20,26.5-19.4,33.6
					c0.3,3.5,0.6,6.8-1.8,9.4C1280.3,572.9,1269.4,574.3,1239.5,574.3z M1260.8,430.3c11,0,20.4,3.9,26.3,11.4
					c7.5,9.4,8,22.7,1.1,34.6c-6.7,11.7-16.2,18.4-25.4,25c-8.5,6-16.5,11.7-22.3,20.9c-5.3,8.3-4.2,15.6-1.3,35
					c0.6,3.9,1.2,8.3,1.9,13.2c26-0.1,37.3-1.3,40.2-4.5c1.2-1.3,1.1-3.1,0.8-6.4c-0.7-8-1.7-20,20.9-37c31-23.3,46-50.7,42.3-77.1
					c-3.2-23.1-20.4-42.8-45.9-52.5c-34.9-13.4-75.5-5-109,22.4c1.8,2.7,3.4,5.2,4.9,7.5c8.1,12.5,12.5,19.4,15.9,21.7
					c2.6,1.8,4.7,0.8,10.9-2.3c4.9-2.5,11.5-5.8,21.8-9C1249.8,431.2,1255.5,430.3,1260.8,430.3z"/>
			</g>
			<g>
				<path class="st0" d="M1258.1,655.3c-15.3,0-31.8-9.7-31.8-31c0-21.2,16.5-30.9,31.8-30.9c15.9,0,32,10.6,32,30.9
					c0,9.5-3.5,17.6-10.1,23.2C1274.3,652.5,1266.5,655.3,1258.1,655.3z M1258.1,597.3c-13.4,0-27.9,8.4-27.9,27
					c0,18.6,14.5,27.1,27.9,27.1c13.5,0,28.1-8.5,28.1-27.1C1286.2,605.7,1271.7,597.3,1258.1,597.3z"/>
			</g>
			<g>
				<g>
					<path class="st0" d="M1239.5,582.7h-9.1l-1.2-9c-0.7-5.4-1.4-10.1-2.1-14.2l-0.1-0.6c-3.1-20.8-4.7-31.2,3.1-43.5
						c0.6-0.9,1.2-1.8,1.8-2.7l3.2,2.3c-0.6,0.8-1.1,1.6-1.7,2.5c-7,11-5.5,20.9-2.5,40.8l0.1,0.6c0.6,4.2,1.3,8.9,2.1,14.3l0.8,5.6
						h5.7c32.2,0,43-1.6,48.2-7.2c2-2.2,3-4.7,3.2-8l3.9,0.2c-0.2,4.2-1.6,7.6-4.2,10.4C1284.3,581,1273.8,582.7,1239.5,582.7z"/>
				</g>
				<g>
					<path class="st0" d="M1284.5,461.4l-3.9-0.4c0.1-0.7,0.1-1.3,0.1-2c0-2.8-0.7-5.5-2-7.8c-3.4-5.9-11-9.1-20.4-8.4l-0.3-3.9
						c10.9-0.7,19.8,3.1,24,10.4c1.7,3,2.6,6.2,2.6,9.8C1284.7,459.8,1284.6,460.6,1284.5,461.4z"/>
				</g>
				<g>
					<path class="st0" d="M1213.8,457.7c-10.7,0-15.6-7.7-28.9-28.2l-0.1-0.2c-1.7-2.7-3.6-5.6-5.7-8.8l-5.1-7.8l7.1-5.9
						c16.9-14.1,35.2-23.8,54.5-28.8l1,3.8c-18.7,4.8-36.5,14.3-52.9,28l-4.4,3.7l3.2,4.8c2.1,3.2,4,6.2,5.7,8.8l-1.5,1.2l1.6-1.1
						c12.8,19.8,17.1,26.4,25.6,26.4c3,0,5.8-1,9-2.6l1.7,3.5C1220.8,456.5,1217.6,457.7,1213.8,457.7z"/>
				</g>
				<g>
					<path class="st0" d="M1336,508.5l-3-2.5c14-16.8,21.4-35,21.4-52.7c0-4.6-0.5-9.3-1.5-13.9l3.8-0.8c1.1,4.8,1.6,9.8,1.6,14.7
						C1358.4,472,1350.6,491.1,1336,508.5z"/>
				</g>
			</g>
			<g>
				<g>
					<path class="st0" d="M1258.3,663.7h-0.2c-20,0-40.3-13.6-40.3-39.5c0-4.8,0.7-9.3,2.1-13.5l3.7,1.2c-1.3,3.8-1.9,7.9-1.9,12.2
						c0,23.3,18.3,35.5,36.4,35.5L1258.3,663.7z M1294.5,642.8l-3.5-1.8c2.5-4.9,3.8-10.6,3.8-16.7c0-8.1-2.1-15.1-6.4-21l3.2-2.3
						c4.7,6.5,7.1,14.4,7.1,23.3C1298.7,631.1,1297.2,637.3,1294.5,642.8z"/>
				</g>
			</g>
		</g>
		<g>
			<g>
				<g>
					<path class="st1" d="M1405,438.5h-1.7l-0.2-1.7c-0.5-3.3-0.9-6.3-1.3-8.8c-1.8-12-2.6-17,1.2-22.9c3.8-6,9-9.7,14.1-13.3
						c5.4-3.9,10.6-7.5,14.2-13.9c3.4-5.9,3.3-12.5-0.4-17c-4.4-5.5-12.8-7-22.3-4.1c-5.8,1.8-9.7,3.7-12.4,5.2
						c-8.9,4.5-10,2.9-20-12.6c-1-1.6-2.2-3.4-3.5-5.3l-0.9-1.5l1.3-1.1c20.9-17.5,46.6-23,68.7-14.5c16.2,6.2,27.1,18.8,29.2,33.7
						c2.4,16.9-7,34.2-26.3,48.8c-12.1,9.1-11.6,15-11.2,19.2c0.2,2.1,0.4,4.4-1.3,6.2C1429.6,437.7,1423.2,438.5,1405,438.5z
						 M1417.6,351.4c6.8,0,12.6,2.4,16.3,7c4.7,5.9,5,14.1,0.7,21.4c-4.1,7.1-9.8,11.2-15.3,15.1c-5,3.5-9.7,6.9-13,12.2
						c-3,4.7-2.4,8.9-0.7,20.2c0.3,2.1,0.7,4.5,1.1,7.2c10.4,0,20.8-0.4,22.6-2.4c0.5-0.5,0.4-1.4,0.3-3.2
						c-0.4-4.6-1-12.3,12.7-22.7c18.1-13.7,27-29.7,24.8-45.1c-1.9-13.4-11.9-24.9-26.8-30.6c-20.2-7.8-43.8-3-63.4,12.7
						c0.9,1.4,1.7,2.7,2.5,3.9c4.7,7.3,7.4,11.4,9.2,12.7c1.1,0.8,1.9,0.5,5.7-1.4c2.9-1.5,6.9-3.5,13-5.4
						C1410.9,351.9,1414.4,351.4,1417.6,351.4z"/>
				</g>
			</g>
			<g>
				<g>
					<path class="st1" d="M1416,486.7c-9.8,0-19.7-6.6-19.7-19.2c0-12.6,9.9-19.2,19.7-19.2c9.9,0,19.8,6.6,19.8,19.2
						C1435.9,480.1,1425.9,486.7,1416,486.7z M1416,452.2c-7.6,0-15.8,4.8-15.8,15.2c0,10.5,8.2,15.3,15.8,15.3
						c7.7,0,15.9-4.8,15.9-15.3C1431.9,457,1423.7,452.2,1416,452.2z"/>
				</g>
			</g>
			<g>
				<g>
					<path class="st1" d="M1405,447h-9.1l-1.2-9c-0.4-3.2-0.9-6.1-1.2-8.6c-1.9-12.7-3-20.2,2.4-28.9c4.7-7.4,10.9-11.8,16.3-15.6
						l1.9-1.3l2.3,3.2l-1.9,1.4c-5.2,3.7-11,7.8-15.3,14.6c-4.7,7.4-3.8,13.6-1.9,26c0.4,2.7,0.8,5.5,1.3,8.8l0.8,5.6h5.7
						c18.2,0,26.5-0.7,30.6-5.1c3-3.3,2.7-7.1,2.5-9.6c-0.3-4.1,0.1-8,8.8-14.8l2.4,3.1c-7.8,6-7.5,8.7-7.3,11.3
						c0.2,2.8,0.7,8.1-3.5,12.6C1433.4,446,1425.3,447,1405,447z"/>
				</g>
				<g>
					<path class="st1" d="M1428.7,372.3l-3.8-1c0.2-0.7,0.3-1.3,0.3-1.9c0-0.9-0.2-1.8-0.6-2.5c-0.3-0.6-0.8-1.1-1.4-1.5l2.3-3.2
						c1,0.7,1.9,1.7,2.5,2.7c0.8,1.3,1.2,2.9,1.2,4.5C1429.2,370.2,1429,371.3,1428.7,372.3z"/>
				</g>
				<g>
					<path class="st1" d="M1389.7,372.7c-8.6,0-12.4-5.9-20.7-18.7l-8.5-13.1l7.1-5.9c17.3-14.5,37.5-21.6,57.8-20.2l-0.3,3.9
						c-19.2-1.4-38.4,5.4-55,19.3l-4.4,3.7l6.6,10.2c8,12.3,10.9,16.9,17.4,16.9c3,0,5.5-1.3,8.4-2.8c2.8-1.4,6.2-3.2,11.7-4.9
						c1.9-0.6,3.8-1,5.6-1.2l0.4,3.9c-1.5,0.2-3.1,0.5-4.8,1c-5.2,1.6-8.4,3.3-11.1,4.6C1396.8,371.1,1393.7,372.7,1389.7,372.7z"/>
				</g>
				<g>
					<path class="st1" d="M1473.1,390.6l-3.4-1.9c4.2-7.5,6.3-15.1,6.3-22.8c0-3.1-0.4-6.3-1.1-9.3l3.8-0.9
						c0.8,3.3,1.2,6.8,1.2,10.2C1479.8,374.3,1477.6,382.6,1473.1,390.6z"/>
				</g>
			</g>
			<g>
				<g>
					<path class="st1" d="M1416,495.1c-14,0-28.2-9.5-28.2-27.7c0-18.1,14.2-27.6,28.2-27.6c13.7,0,28.3,9.7,28.3,27.6
						c0,5.4-1.3,10.3-3.9,14.5l-3.4-2c2.2-3.6,3.3-7.8,3.3-12.5c0-15.4-12.6-23.7-24.4-23.7c-12.1,0-24.3,8.1-24.3,23.7
						c0,15.6,12.2,23.8,24.3,23.8V495.1z"/>
				</g>
			</g>
		</g>
		<g>
			<g>
				<path class="st2" d="M1297.3,335.2h-1.7l-0.2-1.7c-0.8-5.8-1.5-10.8-2.2-15.2c-3-20.3-4.3-28.7,1.9-38.4
					c6.4-10,15.2-16.3,23.8-22.5c9.1-6.5,18.4-13.1,24.8-24.3c6.2-10.7,5.8-22.5-0.8-30.9c-8-10-22.9-12.8-39.9-7.5
					c-10.2,3.2-16.8,6.5-21.6,9c-14.2,7.2-15.2,5.6-32.5-21.1c-1.8-2.8-3.8-5.8-5.9-9.2l-0.9-1.5l1.3-1.1
					c35.6-29.8,79.2-39,116.6-24.6c27.4,10.5,45.8,31.8,49.3,56.8c4,28.5-11.9,57.8-44.7,82.5c-21.3,16.1-20.4,27.1-19.8,34.3
					c0.3,3.5,0.6,6.9-1.8,9.5C1338.9,333.7,1327.8,335.2,1297.3,335.2z M1319.1,188.2c11.3,0,20.8,4,26.8,11.6
					c7.7,9.6,8.1,23.1,1.2,35.3c-6.8,11.9-16.6,18.8-26,25.5c-8.6,6.2-16.8,12-22.8,21.4c-5.4,8.5-4.3,15.9-1.3,35.7
					c0.6,4,1.3,8.5,2,13.6c26.6-0.1,38.1-1.4,41.1-4.6c1.2-1.3,1.1-3.1,0.8-6.5c-0.7-8.1-1.7-20.4,21.3-37.8
					c31.6-23.8,46.9-51.8,43.2-78.8c-3.3-23.6-20.8-43.7-46.9-53.7c-35.6-13.7-77.1-5.1-111.3,22.9c1.8,2.8,3.5,5.4,5,7.7
					c8.2,12.8,12.8,19.8,16.2,22.1c2.7,1.8,4.8,0.9,11.2-2.4c5-2.5,11.7-6,22.2-9.2C1307.9,189.2,1313.7,188.2,1319.1,188.2z"/>
			</g>
			<g>
				<path class="st2" d="M1316.4,417.9c-15.6,0-32.5-9.9-32.5-31.6c0-21.7,16.8-31.5,32.5-31.5c16.2,0,32.7,10.8,32.7,31.5
					C1349,407,1332.6,417.9,1316.4,417.9z M1316.4,358.7c-13.7,0-28.5,8.6-28.5,27.6c0,19,14.8,27.7,28.5,27.7
					c13.8,0,28.7-8.7,28.7-27.7C1345.1,367.3,1330.2,358.7,1316.4,358.7z"/>
			</g>
			<g>
				<g>
					<path class="st2" d="M1297.3,344.2h-9.6l-1.3-9.6c-0.8-5.7-1.5-10.7-2.2-15.1c-3.2-21.3-4.8-32,3.2-44.6
						c0.2-0.3,0.4-0.6,0.6-0.9l3.3,2.2l-0.6,0.9c-7.2,11.4-5.7,21.6-2.6,41.9c0.7,4.4,1.4,9.4,2.2,15.1l0.8,6.2h6.2
						c33,0,44.1-1.7,49.5-7.5c1.6-1.8,2.6-3.8,3.1-6.2l3.9,0.7c-0.6,3.2-1.9,5.8-4.1,8.2C1343.4,342.4,1332.1,344.2,1297.3,344.2z"
						/>
				</g>
				<g>
					<path class="st2" d="M1342.8,220.1l-3.9-0.5c0.1-0.7,0.1-1.4,0.1-2.1c0-2.8-0.7-5.5-2-7.8c-3.6-6.2-11.7-9.3-21.8-8.3l-0.4-3.9
						c11.7-1.2,21.2,2.7,25.6,10.2c1.7,2.9,2.6,6.2,2.6,9.8C1343,218.4,1342.9,219.3,1342.8,220.1z"/>
				</g>
				<g>
					<path class="st2" d="M1271.1,216.6c-11.1,0-16.2-7.9-29.8-29c-1.8-2.8-3.7-5.8-5.9-9.2l-5.3-8.2l7.5-6.3
						c16.7-14,34.8-23.7,53.8-28.9l1,3.8c-18.5,5.1-36.1,14.6-52.3,28.2l-4.8,4.1l3.4,5.3c2.2,3.4,4.2,6.4,5.9,9.2
						c13.1,20.4,17.6,27.2,26.5,27.2c2.2,0,4.5-0.5,7.2-1.7l1.5,3.6C1276.6,215.9,1273.9,216.6,1271.1,216.6z"/>
				</g>
				<g>
					<path class="st2" d="M1395.6,269l-3-2.5c14.8-17.4,22.5-36.3,22.5-54.7c0-4.8-0.5-9.6-1.6-14.3l3.8-0.8
						c1.1,5,1.7,10.1,1.7,15.2C1419.1,231.1,1411,250.9,1395.6,269z"/>
				</g>
			</g>
			<g>
				<g>
					<path class="st2" d="M1316.6,426.9h-0.2c-20.6,0-41.6-14-41.6-40.7c0-4.9,0.7-9.6,2.2-13.9l3.7,1.2c-1.3,3.9-2,8.1-2,12.6
						c0,24.1,18.9,36.8,37.6,36.8L1316.6,426.9z M1353.8,405.3l-3.5-1.8c2.6-5.1,3.9-10.9,3.9-17.3c0-8.3-2.2-15.6-6.6-21.7l3.2-2.3
						c4.9,6.7,7.3,14.8,7.3,24C1358.1,393.2,1356.7,399.7,1353.8,405.3z"/>
				</g>
			</g>
		</g>
		<g>
			<g>
				<path class="st3" d="M1196.2,310.3h-1.7l-0.2-1.7c-0.4-3.1-0.8-5.8-1.2-8.2c-1.6-10.8-2.4-15.8,1.2-21.3
					c3.5-5.6,8.4-9,13.1-12.3c5-3.6,9.8-6.9,13.1-12.8c3.1-5.4,3-11.4-0.4-15.6c-4-5.1-11.7-6.5-20.5-3.7c-5.4,1.7-8.9,3.5-11.5,4.8
					c-8.4,4.3-9.3,2.7-18.7-11.7c-1-1.5-2-3.1-3.2-4.9l-0.9-1.5l1.3-1.1c19.4-16.3,43.2-21.3,63.7-13.4
					c15.1,5.8,25.2,17.5,27.1,31.3c2.2,15.7-6.5,31.7-24.4,45.2c-11.1,8.4-10.6,13.7-10.3,17.7c0.2,2,0.3,4.1-1.2,5.8
					C1219.1,309.5,1213.2,310.3,1196.2,310.3z M1208,229.4c6.3,0,11.7,2.3,15.2,6.6c4.4,5.5,4.6,13.1,0.7,20
					c-3.8,6.6-9.1,10.4-14.2,14c-4.6,3.3-8.9,6.3-12,11.2c-2.7,4.3-2.1,8.2-0.6,18.6c0.3,1.9,0.6,4.1,1,6.5c9.5,0,19-0.4,20.7-2.2
					c0.4-0.4,0.3-1.3,0.2-2.8c-0.4-4.3-1-11.5,11.8-21.1c16.7-12.6,24.9-27.4,22.9-41.6c-1.7-12.4-11-22.9-24.7-28.2
					c-18.6-7.2-40.4-2.8-58.4,11.7c0.8,1.2,1.6,2.4,2.2,3.5c4.4,6.8,6.8,10.5,8.5,11.7c0.9,0.6,1.5,0.5,5.1-1.3
					c2.7-1.4,6.4-3.2,12.1-5C1201.7,229.9,1205,229.4,1208,229.4z"/>
			</g>
			<g>
				<g>
					<path class="st3" d="M1196.2,318.4h-8.8l-1.2-8.8c-0.4-3-0.8-5.6-1.2-8c-1.8-11.8-2.8-18.9,2.3-27c4.4-6.9,10.1-11,15.2-14.6
						c1.9-1.3,3.6-2.6,5.2-3.9l2.5,3c-1.7,1.4-3.5,2.7-5.5,4.1c-4.8,3.4-10.2,7.3-14.2,13.5c-4.4,6.9-3.5,12.7-1.8,24.2
						c0.4,2.4,0.8,5.1,1.2,8.1l0.7,5.4h5.4c16.9,0,24.6-0.7,28.4-4.8c2.8-3.1,2.5-6.8,2.3-9c-0.3-4,0.1-7.5,8.6-13.9
						c1.1-0.8,2.1-1.6,3.1-2.4l2.5,3c-1,0.8-2.1,1.7-3.2,2.5c-7.5,5.6-7.3,8-7.1,10.5c0.2,2.5,0.7,7.7-3.3,12
						C1222.8,317.5,1215.2,318.4,1196.2,318.4z"/>
				</g>
				<g>
					<path class="st3" d="M1218,249l-3.8-1.1c0.2-0.6,0.3-1.2,0.3-1.8c0-0.8-0.2-1.5-0.5-2.1l3.2-2.3c0.1,0.1,0.1,0.2,0.2,0.3
						c0.7,1.2,1,2.6,1,4.1C1218.5,247,1218.3,248,1218,249z"/>
				</g>
				<g>
					<path class="st3" d="M1182.1,249.7c-8.3,0-11.8-5.5-19.6-17.5l-0.2-0.3c-0.9-1.4-1.9-2.9-3-4.6l-4.9-7.5l6.9-5.8
						c14.8-12.4,31.7-18.9,49-18.9c3.2,0,6.4,0.2,9.5,0.7l-0.6,3.9c-2.9-0.4-5.9-0.6-8.9-0.6c-16.4,0-32.4,6.2-46.5,18l-4.2,3.5
						l3,4.6c1.1,1.7,2.1,3.2,3,4.6l0.2,0.3c7.9,12.2,10.4,15.7,16.3,15.7c2.8,0,5.2-1.2,7.9-2.6c2.6-1.3,5.8-2.9,10.8-4.5
						c3.8-1.2,7.4-1.5,10.2-0.9l-0.8,3.9c-2.2-0.4-5.1-0.2-8.3,0.8c-4.7,1.5-7.8,3-10.2,4.2C1188.9,248.2,1185.9,249.7,1182.1,249.7
						z"/>
				</g>
				<g>
					<path class="st3" d="M1260.8,263.9l-3.5-1.8c3.2-6.3,4.8-12.7,4.8-19.1c0-2.9-0.3-5.8-1-8.7l3.8-0.9c0.7,3.2,1.1,6.4,1.1,9.6
						C1266,250,1264.2,257,1260.8,263.9z"/>
				</g>
			</g>
			<g>
				<g>
					<path class="st3" d="M1206.5,375.6c-13.2,0-26.5-9-26.5-26.1c0-17.1,13.4-26,26.5-26c12.9,0,26.7,9.1,26.7,26
						c0,8.4-3.5,15.7-9.9,20.6l-2.4-3.1c3.8-2.9,8.4-8.2,8.4-17.4c0-14.4-11.7-22.1-22.7-22.1c-11.2,0-22.6,7.6-22.6,22.1
						c0,14.5,11.4,22.2,22.6,22.2V375.6z"/>
				</g>
			</g>
			<g>
				<path class="st3" d="M1206.5,367.5c-9.1,0-18.4-6.2-18.4-17.9c0-11.7,9.2-17.9,18.4-17.9c9.2,0,18.5,6.1,18.5,17.9
					C1225,361.3,1215.7,367.5,1206.5,367.5z M1206.5,335.6c-7,0-14.5,4.4-14.5,13.9c0,9.6,7.5,14,14.5,14c7,0,14.6-4.4,14.6-14
					c0-4.3-1.5-7.9-4.5-10.4C1213.9,336.9,1210.4,335.6,1206.5,335.6z"/>
			</g>
		</g>
	</g>
	<g class="st4">
		<g>
			<g>
				<path class="st0" d="M721,215.9h-0.8l-0.1-0.8c-0.4-2.7-0.7-5-1-7c-1.4-9.4-2-13.3,0.9-17.8c3-4.6,7-7.6,11-10.4
					c4.2-3,8.5-6.1,11.5-11.2c2.8-4.9,2.7-10.4-0.4-14.2c-3.7-4.6-10.6-5.9-18.4-3.5c-4.7,1.5-7.7,3-10,4.1c-6.6,3.3-7,2.6-15-9.8
					c-0.8-1.3-1.7-2.7-2.7-4.2l-0.4-0.7l0.6-0.5c16.5-13.8,36.6-18,53.9-11.4c12.7,4.9,21.2,14.7,22.8,26.3
					c1.8,13.2-5.5,26.7-20.7,38.1c-9.9,7.4-9.4,12.5-9.1,15.8c0.1,1.6,0.3,3.2-0.9,4.4C740.3,215.2,735.1,215.9,721,215.9z
					 M731.1,148c5.2,0,9.6,1.8,12.4,5.4c3.6,4.5,3.8,10.7,0.5,16.3c-3.2,5.5-7.7,8.7-12,11.8c-4,2.8-7.8,5.5-10.5,9.9
					c-2.5,3.9-2,7.3-0.6,16.5c0.3,1.8,0.6,3.9,0.9,6.2c12.3,0,17.6-0.6,19-2.1c0.5-0.6,0.5-1.4,0.4-3c-0.3-3.8-0.8-9.4,9.9-17.5
					c14.6-11,21.7-23.9,19.9-36.4c-1.5-10.9-9.6-20.2-21.6-24.8c-16.4-6.3-35.6-2.4-51.4,10.6c0.8,1.3,1.6,2.5,2.3,3.6
					c3.8,5.9,5.9,9.2,7.5,10.2c1.2,0.8,2.2,0.4,5.2-1.1c2.3-1.2,5.4-2.8,10.3-4.3C725.9,148.4,728.6,148,731.1,148z"/>
			</g>
			<g>
				<path class="st0" d="M729.8,254.1c-7.2,0-15-4.6-15-14.6c0-10,7.8-14.6,15-14.6c7.5,0,15.1,5,15.1,14.6c0,4.5-1.6,8.3-4.8,11
					C737.4,252.8,733.8,254.1,729.8,254.1z M729.8,226.8c-6.3,0-13.2,4-13.2,12.7c0,8.8,6.8,12.8,13.2,12.8c6.4,0,13.3-4,13.3-12.8
					C743.1,230.7,736.2,226.8,729.8,226.8z"/>
			</g>
			<g>
				<g>
					<path class="st0" d="M721,219.9h-4.3l-0.6-4.3c-0.3-2.5-0.7-4.7-1-6.7l0-0.3c-1.5-9.8-2.2-14.7,1.5-20.5
						c0.3-0.4,0.6-0.8,0.8-1.3l1.5,1.1c-0.3,0.4-0.5,0.8-0.8,1.2c-3.3,5.2-2.6,9.9-1.2,19.2l0,0.3c0.3,2,0.6,4.2,1,6.7l0.4,2.7h2.7
						c15.2,0,20.3-0.8,22.7-3.4c0.9-1,1.4-2.2,1.5-3.8l1.8,0.1c-0.1,2-0.8,3.6-2,4.9C742.2,219.1,737.2,219.9,721,219.9z"/>
				</g>
				<g>
					<path class="st0" d="M742.3,162.6l-1.8-0.2c0-0.3,0.1-0.6,0.1-0.9c0-1.3-0.3-2.6-1-3.7c-1.6-2.8-5.2-4.3-9.6-4l-0.1-1.8
						c5.1-0.4,9.3,1.5,11.3,4.9c0.8,1.4,1.2,2.9,1.2,4.6C742.3,161.9,742.3,162.3,742.3,162.6z"/>
				</g>
				<g>
					<path class="st0" d="M708.9,160.9c-5,0-7.4-3.6-13.6-13.3l-0.1-0.1c-0.8-1.3-1.7-2.6-2.7-4.2l-2.4-3.7l3.3-2.8
						c7.9-6.7,16.6-11.2,25.7-13.6l0.5,1.8c-8.8,2.3-17.2,6.7-25,13.2l-2.1,1.7l1.5,2.3c1,1.5,1.9,2.9,2.7,4.2l-0.7,0.6l0.8-0.5
						c6,9.3,8.1,12.5,12.1,12.5c1.4,0,2.7-0.5,4.2-1.2l0.8,1.7C712.2,160.3,710.7,160.9,708.9,160.9z"/>
				</g>
				<g>
					<path class="st0" d="M766.6,184.9l-1.4-1.2c6.6-7.9,10.1-16.5,10.1-24.9c0-2.2-0.2-4.4-0.7-6.5l1.8-0.4
						c0.5,2.3,0.8,4.6,0.8,6.9C777.1,167.6,773.5,176.6,766.6,184.9z"/>
				</g>
			</g>
			<g>
				<g>
					<path class="st0" d="M729.9,258.1L729.9,258.1c-9.5,0-19.1-6.4-19.1-18.6c0-2.2,0.3-4.4,1-6.3l1.8,0.6
						c-0.6,1.8-0.9,3.7-0.9,5.8c0,11,8.6,16.8,17.2,16.8L729.9,258.1z M747,248.2l-1.7-0.8c1.2-2.3,1.8-5,1.8-7.9c0-3.8-1-7.1-3-9.9
						l1.5-1.1c2.2,3.1,3.4,6.8,3.4,11C748.9,242.7,748.3,245.6,747,248.2z"/>
				</g>
			</g>
		</g>
		<g>
			<g>
				<g>
					<path class="st1" d="M799.1,151.9h-0.8l-0.1-0.8c-0.2-1.6-0.4-3-0.6-4.2c-0.9-5.7-1.2-8,0.6-10.8c1.8-2.8,4.3-4.6,6.6-6.3
						c2.6-1.8,5-3.6,6.7-6.5c1.6-2.8,1.5-5.9-0.2-8c-2.1-2.6-6-3.3-10.5-1.9c-2.8,0.9-4.6,1.8-5.9,2.4c-4.2,2.1-4.7,1.4-9.4-5.9
						c-0.5-0.8-1-1.6-1.6-2.5l-0.4-0.7l0.6-0.5c9.9-8.3,22-10.8,32.4-6.8c7.7,2.9,12.8,8.9,13.8,15.9c1.1,8-3.3,16.1-12.4,23
						c-5.7,4.3-5.5,7.1-5.3,9.1c0.1,1,0.2,2.1-0.6,2.9C810.7,151.5,807.7,151.9,799.1,151.9z M805.1,110.8c3.2,0,5.9,1.1,7.7,3.3
						c2.2,2.8,2.3,6.6,0.4,10.1c-1.9,3.3-4.6,5.3-7.2,7.1c-2.3,1.7-4.6,3.2-6.2,5.8c-1.4,2.2-1.1,4.2-0.3,9.5c0.2,1,0.3,2.1,0.5,3.4
						c4.9,0,9.8-0.2,10.7-1.1c0.2-0.2,0.2-0.7,0.1-1.5c-0.2-2.2-0.5-5.8,6-10.7c8.6-6.4,12.7-14,11.7-21.3
						c-0.9-6.3-5.6-11.7-12.6-14.4c-9.6-3.7-20.7-1.4-29.9,6c0.4,0.7,0.8,1.3,1.2,1.8c2.2,3.5,3.5,5.4,4.3,6
						c0.5,0.4,0.9,0.2,2.7-0.7c1.4-0.7,3.2-1.7,6.2-2.6C801.9,111,803.5,110.8,805.1,110.8z"/>
				</g>
			</g>
			<g>
				<g>
					<path class="st1" d="M804.3,174.6c-4.6,0-9.3-3.1-9.3-9.1c0-5.9,4.7-9,9.3-9c4.6,0,9.4,3.1,9.4,9
						C813.7,171.5,809,174.6,804.3,174.6z M804.3,158.3c-3.6,0-7.4,2.2-7.4,7.2c0,5,3.9,7.2,7.4,7.2c3.6,0,7.5-2.3,7.5-7.2
						C811.8,160.6,807.9,158.3,804.3,158.3z"/>
				</g>
			</g>
			<g>
				<g>
					<path class="st1" d="M799.1,155.9h-4.3l-0.6-4.3c-0.2-1.5-0.4-2.9-0.6-4.1c-0.9-6-1.4-9.6,1.1-13.6c2.2-3.5,5.1-5.6,7.7-7.4
						l0.9-0.6l1.1,1.5l-0.9,0.6c-2.4,1.7-5.2,3.7-7.2,6.9c-2.2,3.5-1.8,6.4-0.9,12.3c0.2,1.3,0.4,2.6,0.6,4.1l0.4,2.7h2.7
						c8.6,0,12.5-0.3,14.4-2.4c1.4-1.5,1.3-3.3,1.2-4.5c-0.2-1.9,0-3.8,4.2-7l1.1,1.5c-3.7,2.8-3.5,4.1-3.4,5.3
						c0.1,1.3,0.3,3.8-1.6,6C812.5,155.4,808.7,155.9,799.1,155.9z"/>
				</g>
				<g>
					<path class="st1" d="M810.3,120.6l-1.8-0.5c0.1-0.3,0.1-0.6,0.1-0.9c0-0.4-0.1-0.8-0.3-1.2c-0.2-0.3-0.4-0.5-0.6-0.7l1.1-1.5
						c0.5,0.3,0.9,0.8,1.2,1.3c0.4,0.6,0.6,1.3,0.6,2.1C810.5,119.7,810.4,120.1,810.3,120.6z"/>
				</g>
				<g>
					<path class="st1" d="M791.9,120.8c-4.1,0-5.9-2.8-9.8-8.8l-4-6.2l3.3-2.8c8.2-6.9,17.7-10.2,27.3-9.5l-0.1,1.8
						c-9.1-0.6-18.1,2.5-25.9,9.1l-2.1,1.7l3.1,4.8c3.8,5.8,5.2,8,8.2,8c1.4,0,2.6-0.6,4-1.3c1.3-0.7,2.9-1.5,5.5-2.3
						c0.9-0.3,1.8-0.5,2.6-0.6l0.2,1.8c-0.7,0.1-1.5,0.2-2.3,0.5c-2.4,0.8-4,1.5-5.2,2.2C795.2,120.1,793.8,120.8,791.9,120.8z"/>
				</g>
				<g>
					<path class="st1" d="M831.2,129.3l-1.6-0.9c2-3.5,3-7.1,3-10.7c0-1.5-0.2-3-0.5-4.4l1.8-0.4c0.4,1.6,0.6,3.2,0.6,4.8
						C834.4,121.6,833.3,125.5,831.2,129.3z"/>
				</g>
			</g>
			<g>
				<g>
					<path class="st1" d="M804.3,178.6c-6.6,0-13.3-4.5-13.3-13.1c0-8.6,6.7-13,13.3-13c6.5,0,13.4,4.6,13.4,13
						c0,2.5-0.6,4.8-1.8,6.9l-1.6-1c1-1.7,1.6-3.7,1.6-5.9c0-7.3-5.9-11.2-11.5-11.2c-5.7,0-11.4,3.8-11.4,11.2
						c0,7.4,5.8,11.2,11.4,11.2V178.6z"/>
				</g>
			</g>
		</g>
		<g>
			<g>
				<path class="st2" d="M748.3,103.1h-0.8l-0.1-0.8c-0.4-2.7-0.7-5.1-1-7.2c-1.4-9.6-2-13.5,0.9-18.1c3-4.7,7.2-7.7,11.2-10.6
					c4.3-3,8.7-6.2,11.7-11.4c2.9-5,2.8-10.6-0.4-14.6c-3.8-4.7-10.8-6-18.8-3.5c-4.8,1.5-7.9,3.1-10.2,4.2
					c-6.7,3.4-7.2,2.6-15.3-10c-0.8-1.3-1.8-2.7-2.8-4.3l-0.4-0.7l0.6-0.5c16.8-14.1,37.4-18.4,55-11.6c12.9,5,21.6,15,23.3,26.8
					c1.9,13.4-5.6,27.2-21.1,38.9c-10.1,7.6-9.6,12.8-9.3,16.2c0.1,1.7,0.3,3.2-0.9,4.5C767.9,102.4,762.7,103.1,748.3,103.1z
					 M758.6,33.8c5.3,0,9.8,1.9,12.7,5.5c3.6,4.5,3.8,10.9,0.5,16.6c-3.2,5.6-7.8,8.9-12.2,12c-4.1,2.9-7.9,5.7-10.7,10.1
					c-2.6,4-2,7.5-0.6,16.8c0.3,1.9,0.6,4,0.9,6.4c12.5,0,18-0.6,19.4-2.2c0.6-0.6,0.5-1.5,0.4-3.1c-0.3-3.8-0.8-9.6,10.1-17.8
					C793.9,67,801.1,53.8,799.3,41c-1.6-11.1-9.8-20.6-22.1-25.3c-16.8-6.5-36.4-2.4-52.5,10.8c0.9,1.3,1.6,2.5,2.4,3.6
					c3.9,6,6,9.3,7.6,10.4c1.3,0.9,2.3,0.4,5.3-1.1c2.3-1.2,5.5-2.8,10.5-4.3C753.3,34.2,756,33.8,758.6,33.8z"/>
			</g>
			<g>
				<path class="st2" d="M757.3,142.1c-7.4,0-15.3-4.7-15.3-14.9c0-10.2,7.9-14.9,15.3-14.9c7.7,0,15.4,5.1,15.4,14.9
					C772.7,137,764.9,142.1,757.3,142.1z M757.3,114.2c-6.5,0-13.5,4.1-13.5,13c0,9,7,13.1,13.5,13.1c6.5,0,13.6-4.1,13.6-13.1
					C770.8,118.3,763.8,114.2,757.3,114.2z"/>
			</g>
			<g>
				<g>
					<path class="st2" d="M748.3,107.4h-4.5l-0.6-4.5c-0.4-2.7-0.7-5-1-7.1c-1.5-10.1-2.3-15.1,1.5-21.1c0.1-0.1,0.2-0.3,0.3-0.4
						l1.5,1l-0.3,0.4c-3.4,5.4-2.7,10.2-1.2,19.8c0.3,2.1,0.7,4.4,1,7.1l0.4,2.9h2.9c15.6,0,20.8-0.8,23.4-3.5
						c0.8-0.8,1.2-1.8,1.5-2.9l1.8,0.3c-0.3,1.5-0.9,2.7-1.9,3.8C770,106.5,764.7,107.4,748.3,107.4z"/>
				</g>
				<g>
					<path class="st2" d="M769.8,48.8l-1.8-0.2c0-0.3,0.1-0.7,0.1-1c0-1.3-0.3-2.6-1-3.7c-1.7-2.9-5.5-4.4-10.3-3.9l-0.2-1.8
						c5.5-0.6,10,1.3,12.1,4.8c0.8,1.4,1.2,2.9,1.2,4.6C769.8,48,769.8,48.4,769.8,48.8z"/>
				</g>
				<g>
					<path class="st2" d="M735.9,47.2c-5.2,0-7.6-3.7-14.1-13.7c-0.8-1.3-1.8-2.7-2.8-4.3l-2.5-3.9l3.5-3
						c7.9-6.6,16.4-11.2,25.4-13.7l0.5,1.8c-8.7,2.4-17,6.9-24.7,13.3l-2.3,1.9l1.6,2.5c1,1.6,2,3,2.8,4.3
						c6.2,9.6,8.3,12.8,12.5,12.8c1.1,0,2.1-0.2,3.4-0.8l0.7,1.7C738.5,46.9,737.3,47.2,735.9,47.2z"/>
				</g>
				<g>
					<path class="st2" d="M794.7,71.9l-1.4-1.2c7-8.2,10.6-17.1,10.6-25.8c0-2.3-0.2-4.5-0.7-6.8l1.8-0.4c0.5,2.4,0.8,4.8,0.8,7.2
						C805.7,54,801.9,63.4,794.7,71.9z"/>
				</g>
			</g>
			<g>
				<g>
					<path class="st2" d="M757.4,146.4L757.4,146.4c-9.8,0-19.7-6.6-19.7-19.2c0-2.3,0.3-4.5,1-6.5l1.8,0.6c-0.6,1.8-0.9,3.8-0.9,6
						c0,11.4,8.9,17.3,17.7,17.3L757.4,146.4z M774.9,136.2l-1.7-0.8c1.2-2.4,1.8-5.2,1.8-8.2c0-3.9-1-7.4-3.1-10.2l1.5-1.1
						c2.3,3.2,3.5,7,3.5,11.3C777,130.5,776.3,133.5,774.9,136.2z"/>
				</g>
			</g>
		</g>
		<g>
			<g>
				<path class="st3" d="M700.6,91.4h-0.8l-0.1-0.8c-0.2-1.5-0.4-2.7-0.6-3.9c-0.8-5.1-1.1-7.4,0.5-10c1.7-2.6,4-4.2,6.2-5.8
					c2.4-1.7,4.6-3.3,6.2-6c1.5-2.6,1.4-5.4-0.2-7.4c-1.9-2.4-5.5-3-9.7-1.8c-2.5,0.8-4.2,1.6-5.4,2.2c-3.9,2-4.4,1.3-8.8-5.5
					c-0.5-0.7-1-1.5-1.5-2.3l-0.4-0.7l0.6-0.5c9.2-7.7,20.4-10,30-6.3c7.1,2.7,11.9,8.2,12.8,14.8c1,7.4-3.1,15-11.5,21.3
					c-5.2,3.9-5,6.5-4.9,8.3c0.1,1,0.2,1.9-0.6,2.7C711.4,91,708.6,91.4,700.6,91.4z M706.2,53.2c3,0,5.5,1.1,7.1,3.1
					c2.1,2.6,2.2,6.2,0.3,9.4c-1.8,3.1-4.3,4.9-6.7,6.6c-2.2,1.5-4.2,3-5.7,5.3c-1.3,2-1,3.9-0.3,8.8c0.1,0.9,0.3,1.9,0.5,3.1
					c4.5,0,9-0.2,9.8-1c0.2-0.2,0.2-0.6,0.1-1.3c-0.2-2-0.5-5.4,5.6-10c7.9-6,11.7-12.9,10.8-19.6c-0.8-5.8-5.2-10.8-11.6-13.3
					c-8.8-3.4-19-1.3-27.6,5.5c0.4,0.6,0.7,1.1,1.1,1.6c2.1,3.2,3.2,5,4,5.5c0.4,0.3,0.7,0.2,2.4-0.6c1.3-0.6,3-1.5,5.7-2.4
					C703.2,53.4,704.7,53.2,706.2,53.2z"/>
			</g>
			<g>
				<g>
					<path class="st3" d="M700.6,95.2h-4.2l-0.6-4.1c-0.2-1.4-0.4-2.7-0.5-3.8c-0.8-5.6-1.3-8.9,1.1-12.7c2.1-3.3,4.8-5.2,7.2-6.9
						c0.9-0.6,1.7-1.2,2.5-1.8l1.2,1.4c-0.8,0.7-1.7,1.3-2.6,1.9c-2.3,1.6-4.8,3.4-6.7,6.4c-2.1,3.2-1.7,6-0.8,11.4
						c0.2,1.1,0.4,2.4,0.6,3.8l0.3,2.5h2.6c8,0,11.6-0.3,13.4-2.3c1.3-1.5,1.2-3.2,1.1-4.3c-0.2-1.9,0-3.5,4.1-6.6
						c0.5-0.4,1-0.8,1.5-1.1l1.2,1.4c-0.5,0.4-1,0.8-1.5,1.2c-3.5,2.7-3.4,3.8-3.3,4.9c0.1,1.2,0.3,3.6-1.6,5.7
						C713.1,94.8,709.6,95.2,700.6,95.2z"/>
				</g>
				<g>
					<path class="st3" d="M710.9,62.5l-1.8-0.5c0.1-0.3,0.1-0.6,0.1-0.9c0-0.4-0.1-0.7-0.3-1l1.5-1.1c0,0.1,0.1,0.1,0.1,0.2
						c0.3,0.6,0.5,1.2,0.5,1.9C711.1,61.5,711,62,710.9,62.5z"/>
				</g>
				<g>
					<path class="st3" d="M694,62.8c-3.9,0-5.6-2.6-9.2-8.3l-0.1-0.2c-0.4-0.7-0.9-1.4-1.4-2.2l-2.3-3.5l3.2-2.7
						c7-5.8,15-8.9,23.1-8.9c1.5,0,3,0.1,4.5,0.3l-0.3,1.8c-1.4-0.2-2.8-0.3-4.2-0.3c-7.7,0-15.3,2.9-21.9,8.5l-2,1.7l1.4,2.2
						c0.5,0.8,1,1.5,1.4,2.2l0.1,0.2c3.7,5.8,4.9,7.4,7.7,7.4c1.3,0,2.4-0.6,3.7-1.2c1.2-0.6,2.7-1.4,5.1-2.1
						c1.8-0.6,3.5-0.7,4.8-0.4l-0.4,1.8c-1-0.2-2.4-0.1-3.9,0.4c-2.2,0.7-3.7,1.4-4.8,2C697.2,62.1,695.7,62.8,694,62.8z"/>
				</g>
				<g>
					<path class="st3" d="M731.1,69.5l-1.7-0.8c1.5-3,2.2-6,2.2-9c0-1.4-0.2-2.8-0.5-4.1l1.8-0.4c0.3,1.5,0.5,3,0.5,4.5
						C733.5,62.9,732.7,66.2,731.1,69.5z"/>
				</g>
			</g>
			<g>
				<g>
					<path class="st3" d="M705.5,122.2c-6.2,0-12.5-4.2-12.5-12.3c0-8.1,6.3-12.3,12.5-12.3c6.1,0,12.6,4.3,12.6,12.3
						c0,4-1.7,7.4-4.7,9.7l-1.1-1.5c1.8-1.4,4-3.9,4-8.2c0-6.8-5.5-10.4-10.7-10.4c-5.3,0-10.7,3.6-10.7,10.4
						c0,6.9,5.4,10.4,10.7,10.4V122.2z"/>
				</g>
			</g>
			<g>
				<path class="st3" d="M705.5,118.4c-4.3,0-8.7-2.9-8.7-8.5c0-5.5,4.4-8.4,8.7-8.4c4.3,0,8.7,2.9,8.7,8.4
					C714.2,115.4,709.8,118.4,705.5,118.4z M705.5,103.3c-3.3,0-6.8,2.1-6.8,6.6c0,4.5,3.5,6.6,6.8,6.6c3.3,0,6.9-2.1,6.9-6.6
					c0-2-0.7-3.7-2.1-4.9C709,103.9,707.3,103.3,705.5,103.3z"/>
			</g>
		</g>
	</g>
	<g class="st4">
		<g>
			<g>
				<path class="st0" d="M99.8,738.3h-1.7l-0.2-1.7c-0.8-5.6-1.5-10.5-2.2-14.9c-3-19.9-4.2-28.1,1.9-37.7c6.3-9.8,14.9-16,23.3-22
					c8.9-6.3,18-12.9,24.3-23.8c6-10.5,5.7-22-0.8-30.2c-7.8-9.7-22.4-12.5-39-7.3c-9.9,3.1-16.4,6.4-21.1,8.8
					c-13.9,7.1-14.9,5.5-31.9-20.7c-1.8-2.7-3.7-5.7-5.8-9l-0.9-1.5l1.3-1.1c34.9-29.2,77.6-38.2,114.3-24.1
					c26.8,10.3,44.9,31.1,48.4,55.7c3.9,27.9-11.6,56.6-43.8,80.8c-20.9,15.8-20,26.5-19.4,33.6c0.3,3.5,0.6,6.8-1.8,9.4
					C140.6,736.9,129.7,738.3,99.8,738.3z M121.2,594.3c11,0,20.4,3.9,26.3,11.4c7.5,9.4,8,22.7,1.1,34.6
					c-6.7,11.7-16.2,18.4-25.4,25c-8.5,6-16.5,11.7-22.3,20.9c-5.3,8.3-4.2,15.6-1.3,35c0.6,3.9,1.2,8.3,1.9,13.2
					c26-0.1,37.3-1.3,40.2-4.5c1.2-1.3,1.1-3.1,0.8-6.4c-0.7-8-1.7-20,20.9-37c31-23.3,46-50.7,42.3-77.1
					c-3.2-23.1-20.4-42.8-45.9-52.5c-34.9-13.4-75.5-5-109,22.4c1.8,2.7,3.4,5.2,4.9,7.5c8.1,12.5,12.5,19.4,15.9,21.7
					c2.6,1.8,4.7,0.8,10.9-2.3c4.9-2.5,11.5-5.8,21.8-9C110.2,595.2,115.9,594.3,121.2,594.3z"/>
			</g>
			<g>
				<path class="st0" d="M118.5,819.3c-15.3,0-31.8-9.7-31.8-31c0-21.2,16.5-30.9,31.8-30.9c15.9,0,32,10.6,32,30.9
					c0,9.5-3.5,17.6-10.1,23.2C134.6,816.6,126.8,819.3,118.5,819.3z M118.5,761.3c-13.4,0-27.9,8.4-27.9,27
					c0,18.6,14.5,27.1,27.9,27.1c13.5,0,28.1-8.5,28.1-27.1C146.6,769.8,132,761.3,118.5,761.3z"/>
			</g>
			<g>
				<g>
					<path class="st0" d="M99.8,746.8h-9.1l-1.2-9c-0.7-5.4-1.4-10.1-2.1-14.2l-0.1-0.6c-3.1-20.8-4.7-31.2,3.1-43.5
						c0.6-0.9,1.2-1.8,1.8-2.7l3.2,2.3c-0.6,0.8-1.1,1.6-1.7,2.5c-7,11-5.5,20.9-2.5,40.8l0.1,0.6c0.6,4.2,1.3,8.9,2.1,14.3l0.8,5.6
						h5.7c32.2,0,43-1.6,48.2-7.2c2-2.2,3-4.7,3.2-8l3.9,0.2c-0.2,4.2-1.6,7.6-4.2,10.4C144.7,745,134.2,746.8,99.8,746.8z"/>
				</g>
				<g>
					<path class="st0" d="M144.9,625.4L141,625c0.1-0.7,0.1-1.3,0.1-2c0-2.8-0.7-5.5-2-7.8c-3.4-5.9-11-9.1-20.4-8.4l-0.3-3.9
						c10.9-0.7,19.8,3.1,24,10.4c1.7,3,2.6,6.2,2.6,9.8C145,623.8,145,624.6,144.9,625.4z"/>
				</g>
				<g>
					<path class="st0" d="M74.2,621.7c-10.7,0-15.6-7.7-28.9-28.2l-0.1-0.2c-1.7-2.7-3.6-5.6-5.7-8.8l-5.1-7.8l7.1-5.9
						C58.4,556.7,76.7,547,96,542l1,3.8c-18.7,4.8-36.5,14.3-52.9,28l-4.4,3.7l3.2,4.8c2.1,3.2,4,6.2,5.7,8.8l-1.5,1.2l1.6-1.1
						c12.8,19.8,17.1,26.4,25.6,26.4c3,0,5.8-1,9-2.6l1.7,3.5C81.2,620.5,77.9,621.7,74.2,621.7z"/>
				</g>
				<g>
					<path class="st0" d="M196.4,672.6l-3-2.5c14-16.8,21.4-35,21.4-52.7c0-4.6-0.5-9.3-1.5-13.9l3.8-0.8c1.1,4.8,1.6,9.8,1.6,14.7
						C218.7,636,211,655.1,196.4,672.6z"/>
				</g>
			</g>
			<g>
				<g>
					<path class="st0" d="M118.7,827.8h-0.2c-20,0-40.3-13.6-40.3-39.5c0-4.8,0.7-9.3,2.1-13.5l3.7,1.2c-1.3,3.8-1.9,7.9-1.9,12.2
						c0,23.3,18.3,35.5,36.4,35.5L118.7,827.8z M154.8,806.8l-3.5-1.8c2.5-4.9,3.8-10.6,3.8-16.7c0-8.1-2.1-15.1-6.4-21l3.2-2.3
						c4.7,6.5,7.1,14.4,7.1,23.3C159,795.1,157.6,801.3,154.8,806.8z"/>
				</g>
			</g>
		</g>
		<g>
			<g>
				<g>
					<path class="st1" d="M265.3,602.6h-1.7l-0.2-1.7c-0.5-3.3-0.9-6.3-1.3-8.8c-1.8-12-2.6-17,1.2-22.9c3.8-6,9-9.7,14.1-13.3
						c5.4-3.9,10.6-7.5,14.2-13.9c3.4-5.9,3.3-12.5-0.4-17c-4.4-5.5-12.8-7-22.3-4.1c-5.8,1.8-9.7,3.7-12.4,5.2
						c-8.9,4.5-10,2.9-20-12.6c-1-1.6-2.2-3.4-3.5-5.3l-0.9-1.5l1.3-1.1c20.9-17.5,46.6-23,68.7-14.5c16.2,6.2,27.1,18.8,29.2,33.7
						c2.4,16.9-7,34.2-26.3,48.8c-12.1,9.1-11.6,15-11.2,19.2c0.2,2.1,0.4,4.4-1.3,6.2C289.9,601.7,283.6,602.6,265.3,602.6z
						 M278,515.4c6.8,0,12.6,2.4,16.3,7c4.7,5.9,5,14.1,0.7,21.4c-4.1,7.1-9.8,11.2-15.3,15.1c-5,3.5-9.7,6.9-13,12.2
						c-3,4.7-2.4,8.9-0.7,20.2c0.3,2.1,0.7,4.5,1.1,7.2c10.4,0,20.8-0.4,22.6-2.4c0.5-0.5,0.4-1.4,0.3-3.2
						c-0.4-4.6-1-12.3,12.7-22.7c18.1-13.7,27-29.7,24.8-45.1c-1.9-13.4-11.9-24.9-26.7-30.6c-20.3-7.8-43.8-3-63.4,12.7
						c0.9,1.4,1.7,2.7,2.5,3.9c4.7,7.3,7.4,11.4,9.2,12.7c1.1,0.8,1.9,0.5,5.7-1.4c2.9-1.5,6.9-3.5,13-5.4
						C271.3,516,274.8,515.4,278,515.4z"/>
				</g>
			</g>
			<g>
				<g>
					<path class="st1" d="M276.4,650.7c-9.8,0-19.7-6.6-19.7-19.2c0-12.6,9.9-19.2,19.7-19.2c9.9,0,19.8,6.6,19.8,19.2
						C296.2,644.1,286.3,650.7,276.4,650.7z M276.4,616.3c-7.6,0-15.8,4.8-15.8,15.2c0,10.5,8.2,15.3,15.8,15.3
						c7.7,0,15.9-4.8,15.9-15.3C292.3,621,284.1,616.3,276.4,616.3z"/>
				</g>
			</g>
			<g>
				<g>
					<path class="st1" d="M265.3,611.1h-9.1l-1.2-9c-0.4-3.2-0.9-6.1-1.2-8.6c-1.9-12.7-3-20.2,2.4-28.9
						c4.7-7.4,10.9-11.8,16.3-15.6l1.9-1.3l2.3,3.2l-1.9,1.4c-5.2,3.7-11,7.8-15.3,14.6c-4.7,7.4-3.8,13.6-1.9,26
						c0.4,2.7,0.8,5.5,1.3,8.8l0.8,5.6h5.7c18.2,0,26.5-0.7,30.6-5.1c3-3.3,2.7-7.1,2.5-9.6c-0.3-4.1,0.1-8,8.8-14.8l2.4,3.1
						c-7.8,6-7.5,8.7-7.3,11.3c0.2,2.8,0.7,8.1-3.5,12.6C293.8,610.1,285.6,611.1,265.3,611.1z"/>
				</g>
				<g>
					<path class="st1" d="M289.1,536.3l-3.8-1c0.2-0.7,0.3-1.3,0.3-1.9c0-0.9-0.2-1.8-0.6-2.5c-0.3-0.6-0.8-1.1-1.4-1.5l2.3-3.2
						c1,0.7,1.9,1.7,2.5,2.7c0.8,1.3,1.2,2.9,1.2,4.5C289.5,534.3,289.4,535.3,289.1,536.3z"/>
				</g>
				<g>
					<path class="st1" d="M250.1,536.8c-8.6,0-12.4-5.9-20.7-18.7l-8.5-13.1l7.1-5.9c17.3-14.5,37.5-21.6,57.8-20.2l-0.3,3.9
						c-19.2-1.4-38.4,5.4-55,19.3l-4.4,3.7l6.6,10.2c8,12.3,10.9,16.9,17.4,16.9c3,0,5.5-1.3,8.4-2.8c2.8-1.4,6.2-3.2,11.7-4.9
						c1.9-0.6,3.8-1,5.6-1.2l0.4,3.9c-1.5,0.2-3.1,0.5-4.8,1c-5.2,1.6-8.4,3.3-11.1,4.6C257.2,535.1,254,536.8,250.1,536.8z"/>
				</g>
				<g>
					<path class="st1" d="M333.4,554.7l-3.4-1.9c4.2-7.5,6.3-15.1,6.3-22.8c0-3.1-0.4-6.3-1.1-9.3l3.8-0.9c0.8,3.3,1.2,6.8,1.2,10.2
						C340.2,538.3,337.9,546.6,333.4,554.7z"/>
				</g>
			</g>
			<g>
				<g>
					<path class="st1" d="M276.4,659.2c-14,0-28.2-9.5-28.2-27.7c0-18.1,14.2-27.6,28.2-27.6c13.7,0,28.3,9.7,28.3,27.6
						c0,5.4-1.3,10.3-3.9,14.5l-3.4-2c2.2-3.6,3.3-7.8,3.3-12.5c0-15.4-12.6-23.7-24.4-23.7c-12.1,0-24.3,8.1-24.3,23.7
						c0,15.6,12.2,23.8,24.3,23.8V659.2z"/>
				</g>
			</g>
		</g>
		<g>
			<g>
				<path class="st2" d="M157.7,499.2H156l-0.2-1.7c-0.8-5.8-1.5-10.8-2.2-15.2c-3-20.3-4.3-28.7,1.9-38.4
					c6.4-10,15.2-16.3,23.8-22.5c9.1-6.5,18.4-13.1,24.8-24.3c6.2-10.7,5.8-22.5-0.8-30.9c-8-10-22.9-12.8-39.9-7.5
					c-10.2,3.2-16.8,6.5-21.6,9c-14.2,7.2-15.2,5.6-32.5-21.1c-1.8-2.8-3.8-5.8-5.9-9.2l-0.9-1.5l1.3-1.1
					c35.6-29.8,79.2-39,116.6-24.6c27.4,10.5,45.8,31.8,49.3,56.8c4,28.5-11.9,57.8-44.7,82.5c-21.3,16.1-20.4,27.1-19.8,34.3
					c0.3,3.5,0.6,6.9-1.8,9.5C199.3,497.8,188.2,499.2,157.7,499.2z M179.5,352.3c11.3,0,20.8,4,26.8,11.6
					c7.7,9.6,8.1,23.1,1.2,35.3c-6.8,11.9-16.6,18.8-26,25.5c-8.6,6.2-16.8,12-22.8,21.4c-5.4,8.5-4.3,15.9-1.3,35.7
					c0.6,4,1.3,8.5,2,13.6c26.6-0.1,38.1-1.4,41.1-4.6c1.2-1.3,1.1-3.1,0.8-6.5c-0.7-8.1-1.7-20.4,21.3-37.8
					c31.6-23.8,46.9-51.8,43.2-78.8c-3.3-23.6-20.8-43.7-46.9-53.7c-35.6-13.7-77.1-5.1-111.3,22.9c1.8,2.8,3.5,5.4,5,7.7
					c8.2,12.8,12.8,19.8,16.2,22.1c2.7,1.8,4.8,0.9,11.2-2.4c5-2.5,11.7-6,22.2-9.2C168.2,353.2,174,352.3,179.5,352.3z"/>
			</g>
			<g>
				<path class="st2" d="M176.7,581.9c-15.6,0-32.5-9.9-32.5-31.6c0-21.7,16.8-31.5,32.5-31.5c16.2,0,32.7,10.8,32.7,31.5
					C209.4,571.1,193,581.9,176.7,581.9z M176.7,522.7c-13.7,0-28.5,8.6-28.5,27.6c0,19,14.8,27.7,28.5,27.7
					c13.8,0,28.7-8.7,28.7-27.7C205.5,531.4,190.6,522.7,176.7,522.7z"/>
			</g>
			<g>
				<g>
					<path class="st2" d="M157.7,508.3H148l-1.3-9.6c-0.8-5.7-1.5-10.7-2.2-15.1c-3.2-21.3-4.8-32,3.2-44.6c0.2-0.3,0.4-0.6,0.6-0.9
						l3.3,2.2l-0.6,0.9c-7.2,11.4-5.7,21.6-2.6,41.9c0.7,4.4,1.4,9.4,2.2,15.1l0.8,6.2h6.2c33,0,44.1-1.7,49.5-7.5
						c1.6-1.8,2.6-3.8,3.1-6.2l3.9,0.7c-0.6,3.2-1.9,5.8-4.1,8.2C203.7,506.4,192.5,508.3,157.7,508.3z"/>
				</g>
				<g>
					<path class="st2" d="M203.2,384.2l-3.9-0.5c0.1-0.7,0.1-1.4,0.1-2.1c0-2.8-0.7-5.5-2-7.8c-3.6-6.2-11.7-9.3-21.8-8.3l-0.4-3.9
						c11.7-1.2,21.2,2.7,25.6,10.2c1.7,2.9,2.6,6.2,2.6,9.8C203.3,382.4,203.3,383.3,203.2,384.2z"/>
				</g>
				<g>
					<path class="st2" d="M131.5,380.6c-11.1,0-16.2-7.9-29.8-29c-1.8-2.8-3.7-5.8-5.9-9.2l-5.3-8.2l7.5-6.3
						c16.7-14,34.8-23.7,53.8-28.9l1,3.8c-18.5,5.1-36.1,14.6-52.3,28.2l-4.8,4.1l3.4,5.3c2.2,3.4,4.2,6.4,5.9,9.2
						c13.1,20.4,17.6,27.2,26.5,27.2c2.2,0,4.5-0.5,7.2-1.7l1.5,3.6C137,380,134.3,380.6,131.5,380.6z"/>
				</g>
				<g>
					<path class="st2" d="M256,433.1l-3-2.5c14.8-17.4,22.5-36.3,22.5-54.7c0-4.8-0.5-9.6-1.6-14.3l3.8-0.8c1.1,5,1.7,10.1,1.7,15.2
						C279.4,395.2,271.3,415,256,433.1z"/>
				</g>
			</g>
			<g>
				<g>
					<path class="st2" d="M176.9,591h-0.2c-20.6,0-41.6-14-41.6-40.7c0-4.9,0.7-9.6,2.2-13.9l3.7,1.2c-1.3,3.9-2,8.1-2,12.6
						c0,24.1,18.9,36.8,37.6,36.8L176.9,591z M214.1,569.4l-3.5-1.8c2.6-5.1,3.9-10.9,3.9-17.3c0-8.3-2.2-15.6-6.6-21.7l3.2-2.3
						c4.9,6.7,7.3,14.8,7.3,24C218.5,557.3,217,563.7,214.1,569.4z"/>
				</g>
			</g>
		</g>
		<g>
			<g>
				<path class="st3" d="M56.6,474.3h-1.7l-0.2-1.7c-0.4-3.1-0.8-5.8-1.2-8.2c-1.6-10.8-2.4-15.8,1.2-21.3c3.5-5.6,8.4-9,13.1-12.3
					c5-3.6,9.8-6.9,13.1-12.8c3.1-5.4,3-11.4-0.4-15.6c-4-5.1-11.7-6.5-20.5-3.7c-5.4,1.7-8.9,3.5-11.5,4.8
					c-8.4,4.3-9.3,2.7-18.7-11.7c-1-1.5-2-3.1-3.2-4.9l-0.9-1.5l1.3-1.1C46.4,368,70.2,363,90.7,370.9c15.1,5.8,25.2,17.5,27.1,31.3
					c2.2,15.7-6.5,31.7-24.4,45.2c-11.1,8.4-10.6,13.7-10.3,17.7c0.2,2,0.3,4.1-1.2,5.8C79.4,473.5,73.5,474.3,56.6,474.3z
					 M68.3,393.4c6.3,0,11.7,2.3,15.2,6.6c4.4,5.5,4.6,13.1,0.7,20c-3.8,6.6-9.1,10.4-14.2,14c-4.6,3.3-8.9,6.3-12,11.2
					c-2.7,4.3-2.1,8.2-0.6,18.6c0.3,1.9,0.6,4.1,1,6.5c9.5,0,19-0.4,20.7-2.2c0.4-0.4,0.3-1.3,0.2-2.8c-0.4-4.3-1-11.5,11.8-21.1
					c16.7-12.6,24.9-27.4,22.9-41.6c-1.7-12.4-11-22.9-24.7-28.2c-18.6-7.2-40.4-2.8-58.4,11.7c0.8,1.2,1.6,2.4,2.2,3.5
					c4.4,6.8,6.8,10.5,8.5,11.7c0.9,0.6,1.5,0.5,5.1-1.3c2.7-1.4,6.4-3.2,12.1-5C62.1,393.9,65.3,393.4,68.3,393.4z"/>
			</g>
			<g>
				<g>
					<path class="st3" d="M56.6,482.5h-8.8l-1.2-8.8c-0.4-3-0.8-5.6-1.2-8c-1.8-11.8-2.8-18.9,2.3-27c4.4-6.9,10.1-11,15.2-14.6
						c1.9-1.3,3.6-2.6,5.2-3.9l2.5,3c-1.7,1.4-3.5,2.7-5.5,4.1c-4.8,3.4-10.2,7.3-14.2,13.5c-4.4,6.9-3.5,12.7-1.8,24.2
						c0.4,2.4,0.8,5.1,1.2,8.1l0.7,5.4h5.4c16.9,0,24.6-0.7,28.4-4.8c2.8-3.1,2.5-6.8,2.3-9c-0.3-4,0.1-7.5,8.6-13.9
						c1.1-0.8,2.1-1.6,3.1-2.4l2.5,3c-1,0.8-2.1,1.7-3.2,2.5c-7.5,5.6-7.3,8-7.1,10.5c0.2,2.5,0.7,7.7-3.3,12
						C83.1,481.6,75.6,482.5,56.6,482.5z"/>
				</g>
				<g>
					<path class="st3" d="M78.4,413l-3.8-1.1c0.2-0.6,0.3-1.2,0.3-1.8c0-0.8-0.2-1.5-0.5-2.1l3.2-2.3c0.1,0.1,0.1,0.2,0.2,0.3
						c0.7,1.2,1,2.6,1,4.1C78.8,411.1,78.7,412.1,78.4,413z"/>
				</g>
				<g>
					<path class="st3" d="M42.5,413.8c-8.3,0-11.8-5.5-19.6-17.5l-0.2-0.3c-0.9-1.4-1.9-2.9-3-4.6l-4.9-7.5l6.9-5.8
						c14.8-12.4,31.7-18.9,49-18.9c3.2,0,6.4,0.2,9.5,0.7l-0.6,3.9c-2.9-0.4-5.9-0.6-8.9-0.6c-16.4,0-32.4,6.2-46.5,18l-4.2,3.5
						l3,4.6c1.1,1.7,2.1,3.2,3,4.6l0.2,0.3c7.9,12.2,10.4,15.7,16.3,15.7c2.8,0,5.2-1.2,7.9-2.6c2.6-1.3,5.8-2.9,10.8-4.5
						c3.8-1.2,7.4-1.5,10.2-0.9l-0.8,3.9c-2.2-0.4-5.1-0.2-8.3,0.8c-4.7,1.5-7.8,3-10.2,4.2C49.2,412.2,46.3,413.8,42.5,413.8z"/>
				</g>
				<g>
					<path class="st3" d="M121.2,427.9l-3.5-1.8c3.2-6.3,4.8-12.7,4.8-19.1c0-2.9-0.3-5.8-1-8.7l3.8-0.9c0.7,3.2,1.1,6.4,1.1,9.6
						C126.3,414,124.6,421.1,121.2,427.9z"/>
				</g>
			</g>
			<g>
				<g>
					<path class="st3" d="M66.9,539.7c-13.2,0-26.5-9-26.5-26.1c0-17.1,13.4-26,26.5-26c12.9,0,26.7,9.1,26.7,26
						c0,8.4-3.5,15.7-9.9,20.6l-2.4-3.1c3.8-2.9,8.4-8.2,8.4-17.4c0-14.4-11.7-22.1-22.7-22.1c-11.2,0-22.6,7.6-22.6,22.1
						c0,14.5,11.4,22.2,22.6,22.2V539.7z"/>
				</g>
			</g>
			<g>
				<path class="st3" d="M66.9,531.5c-9.1,0-18.4-6.2-18.4-17.9c0-11.7,9.2-17.9,18.4-17.9c9.2,0,18.5,6.1,18.5,17.9
					C85.3,525.4,76,531.5,66.9,531.5z M66.9,499.7c-7,0-14.5,4.4-14.5,13.9c0,9.6,7.5,14,14.5,14c7,0,14.6-4.4,14.6-14
					c0-4.3-1.5-7.9-4.5-10.4C74.3,500.9,70.7,499.7,66.9,499.7z"/>
			</g>
		</g>
	</g>
	<g class="st4">
		<g>
			<g>
				<path class="st0" d="M1728.4,269.5h-1l-0.1-1c-0.5-3.4-0.9-6.4-1.3-9c-1.8-12-2.5-16.9,1.1-22.7c3.8-5.9,9-9.7,14.1-13.3
					c5.3-3.8,10.9-7.7,14.7-14.3c3.6-6.3,3.4-13.3-0.5-18.2c-4.7-5.9-13.5-7.5-23.5-4.4c-6,1.9-9.9,3.8-12.7,5.3
					c-8.4,4.3-9,3.3-19.2-12.5c-1.1-1.6-2.2-3.4-3.5-5.4l-0.6-0.9l0.8-0.7c21-17.6,46.8-23.1,68.9-14.6
					c16.2,6.2,27.1,18.8,29.2,33.6c2.4,16.8-7,34.1-26.4,48.7c-12.6,9.5-12,16-11.7,20.2c0.2,2.1,0.3,4.1-1.1,5.6
					C1753,268.7,1746.5,269.5,1728.4,269.5z M1741.3,182.7c6.7,0,12.3,2.3,15.9,6.8c4.6,5.7,4.8,13.7,0.7,20.9
					c-4,7-9.8,11.1-15.3,15.1c-5.1,3.6-9.9,7.1-13.4,12.6c-3.2,5-2.5,9.4-0.8,21.1c0.4,2.4,0.8,5,1.2,8c15.7,0,22.5-0.8,24.2-2.7
					c0.7-0.8,0.6-1.8,0.5-3.8c-0.4-4.8-1-12,12.6-22.3c18.7-14.1,27.7-30.6,25.5-46.5c-2-13.9-12.3-25.8-27.7-31.7
					c-21-8.1-45.5-3-65.7,13.5c1.1,1.6,2,3.2,2.9,4.5c4.9,7.5,7.5,11.7,9.6,13.1c1.6,1.1,2.8,0.5,6.6-1.4c2.9-1.5,6.9-3.5,13.1-5.4
					C1734.7,183.3,1738.1,182.7,1741.3,182.7z"/>
			</g>
			<g>
				<path class="st0" d="M1739.7,318.4c-9.2,0-19.2-5.8-19.2-18.7c0-12.8,9.9-18.6,19.2-18.6c9.6,0,19.3,6.4,19.3,18.6
					c0,5.8-2.1,10.6-6.1,14C1749.4,316.7,1744.7,318.4,1739.7,318.4z M1739.7,283.4c-8.1,0-16.8,5.1-16.8,16.3
					c0,11.2,8.7,16.3,16.8,16.3c8.2,0,16.9-5.1,16.9-16.3C1756.6,288.5,1747.9,283.4,1739.7,283.4z"/>
			</g>
			<g>
				<g>
					<path class="st0" d="M1728.4,274.6h-5.5l-0.7-5.4c-0.4-3.2-0.9-6.1-1.2-8.6l-0.1-0.3c-1.9-12.5-2.8-18.8,1.9-26.2
						c0.4-0.6,0.7-1.1,1.1-1.6l1.9,1.4c-0.3,0.5-0.7,1-1,1.5c-4.2,6.6-3.3,12.6-1.5,24.6l0.1,0.3c0.4,2.5,0.8,5.4,1.2,8.6l0.5,3.4
						h3.4c19.4,0,25.9-1,29-4.4c1.2-1.3,1.8-2.8,1.9-4.8l2.4,0.1c-0.1,2.5-1,4.6-2.5,6.3C1755.5,273.6,1749.1,274.6,1728.4,274.6z"
						/>
				</g>
				<g>
					<path class="st0" d="M1755.6,201.5l-2.4-0.3c0-0.4,0.1-0.8,0.1-1.2c0-1.7-0.4-3.3-1.2-4.7c-2.1-3.6-6.7-5.5-12.3-5.1l-0.2-2.4
						c6.6-0.5,11.9,1.9,14.5,6.3c1,1.8,1.6,3.8,1.6,5.9C1755.7,200.5,1755.7,201,1755.6,201.5z"/>
				</g>
				<g>
					<path class="st0" d="M1713,199.2c-6.4,0-9.4-4.6-17.4-17l-0.1-0.1c-1-1.6-2.2-3.4-3.4-5.3l-3-4.7l4.3-3.6
						c10.2-8.5,21.2-14.4,32.8-17.4l0.6,2.3c-11.3,2.9-22,8.6-31.9,16.9l-2.7,2.2l1.9,2.9c1.3,1.9,2.4,3.7,3.4,5.3l-0.9,0.7l1-0.6
						c7.7,11.9,10.3,15.9,15.4,15.9c1.8,0,3.5-0.6,5.4-1.5l1,2.1C1717.2,198.5,1715.2,199.2,1713,199.2z"/>
				</g>
				<g>
					<path class="st0" d="M1786.6,229.9l-1.8-1.5c8.5-10.1,12.9-21.1,12.9-31.8c0-2.8-0.3-5.6-0.9-8.4l2.3-0.5c0.6,2.9,1,5.9,1,8.9
						C1800.1,207.9,1795.4,219.4,1786.6,229.9z"/>
				</g>
			</g>
			<g>
				<g>
					<path class="st0" d="M1739.8,323.5h-0.1c-12.1,0-24.3-8.2-24.3-23.8c0-2.9,0.4-5.6,1.3-8.1l2.2,0.7c-0.8,2.3-1.1,4.7-1.1,7.4
						c0,14.1,11,21.4,21.9,21.4L1739.8,323.5z M1761.6,310.8l-2.1-1.1c1.5-3,2.3-6.4,2.3-10.1c0-4.9-1.3-9.1-3.8-12.6l1.9-1.4
						c2.9,3.9,4.3,8.7,4.3,14C1764.1,303.8,1763.3,307.5,1761.6,310.8z"/>
				</g>
			</g>
		</g>
		<g>
			<g>
				<g>
					<path class="st1" d="M1828.2,187.7h-1l-0.1-1c-0.3-2-0.5-3.8-0.8-5.3c-1.1-7.2-1.5-10.2,0.7-13.8c2.3-3.6,5.4-5.8,8.5-8
						c3.3-2.3,6.4-4.5,8.6-8.4c2.1-3.6,2-7.5-0.2-10.3c-2.7-3.3-7.7-4.2-13.5-2.5c-3.5,1.1-5.8,2.3-7.5,3.1c-5.4,2.7-6,1.8-12-7.6
						c-0.6-1-1.3-2-2.1-3.2l-0.6-0.9l0.8-0.7c12.6-10.6,28.1-13.8,41.4-8.7c9.8,3.8,16.4,11.4,17.6,20.3
						c1.4,10.2-4.2,20.6-15.9,29.4c-7.3,5.5-7,9-6.7,11.6c0.1,1.3,0.2,2.6-0.8,3.7C1843,187.2,1839.2,187.7,1828.2,187.7z
						 M1835.8,135.2c4.1,0,7.6,1.5,9.8,4.2c2.8,3.5,3,8.5,0.4,12.9c-2.5,4.3-5.9,6.7-9.2,9.1c-3,2.1-5.8,4.1-7.9,7.4
						c-1.8,2.8-1.4,5.4-0.4,12.2c0.2,1.3,0.4,2.7,0.6,4.3c6.3,0,12.5-0.2,13.6-1.4c0.3-0.3,0.2-0.9,0.2-1.9
						c-0.2-2.8-0.6-7.4,7.7-13.7c10.9-8.2,16.2-17.9,14.9-27.2c-1.1-8.1-7.2-15-16.1-18.4c-12.2-4.7-26.4-1.8-38.2,7.7
						c0.5,0.8,1,1.6,1.5,2.3c2.9,4.4,4.4,6.9,5.5,7.6c0.7,0.5,1.2,0.3,3.4-0.9c1.8-0.9,4.2-2.1,7.9-3.3
						C1831.8,135.5,1833.9,135.2,1835.8,135.2z"/>
				</g>
			</g>
			<g>
				<g>
					<path class="st1" d="M1834.9,216.7c-5.9,0-11.9-4-11.9-11.6c0-7.6,6-11.5,11.9-11.5c5.9,0,11.9,4,11.9,11.5
						C1846.8,212.8,1840.8,216.7,1834.9,216.7z M1834.9,196c-4.6,0-9.5,2.9-9.5,9.2c0,6.3,4.9,9.2,9.5,9.2c4.6,0,9.6-2.9,9.6-9.2
						C1844.5,198.8,1839.5,196,1834.9,196z"/>
				</g>
			</g>
			<g>
				<g>
					<path class="st1" d="M1828.2,192.8h-5.5l-0.7-5.4c-0.3-2-0.5-3.7-0.7-5.2c-1.1-7.6-1.8-12.2,1.5-17.4c2.8-4.4,6.5-7.1,9.8-9.4
						l1.1-0.8l1.4,1.9l-1.1,0.8c-3.1,2.2-6.6,4.7-9.2,8.8c-2.8,4.4-2.3,8.2-1.1,15.7c0.2,1.6,0.5,3.3,0.8,5.3l0.5,3.4h3.4
						c11,0,16-0.4,18.4-3.1c1.8-2,1.6-4.3,1.5-5.8c-0.2-2.5,0-4.8,5.3-8.9l1.4,1.9c-4.7,3.6-4.5,5.2-4.4,6.8
						c0.1,1.7,0.4,4.9-2.1,7.6C1845.3,192.2,1840.4,192.8,1828.2,192.8z"/>
				</g>
				<g>
					<path class="st1" d="M1842.5,147.8l-2.3-0.6c0.1-0.4,0.2-0.8,0.2-1.2c0-0.6-0.1-1.1-0.4-1.5c-0.2-0.3-0.5-0.7-0.8-0.9l1.4-1.9
						c0.6,0.4,1.1,1,1.5,1.6c0.5,0.8,0.7,1.7,0.7,2.7C1842.8,146.6,1842.7,147.2,1842.5,147.8z"/>
				</g>
				<g>
					<path class="st1" d="M1819,148c-5.2,0-7.5-3.5-12.5-11.3l-5.1-7.9l4.3-3.6c10.5-8.8,22.6-13,34.8-12.2l-0.2,2.4
						c-11.6-0.8-23.2,3.3-33.1,11.6l-2.7,2.2l4,6.1c4.8,7.4,6.6,10.2,10.5,10.2c1.8,0,3.3-0.8,5.1-1.7c1.7-0.9,3.8-1.9,7.1-2.9
						c1.2-0.4,2.3-0.6,3.4-0.7l0.2,2.4c-0.9,0.1-1.9,0.3-2.9,0.6c-3.1,1-5.1,2-6.7,2.8C1823.3,147.1,1821.4,148,1819,148z"/>
				</g>
				<g>
					<path class="st1" d="M1869.2,158.9l-2.1-1.2c2.5-4.5,3.8-9.1,3.8-13.7c0-1.9-0.2-3.8-0.6-5.6l2.3-0.5c0.5,2,0.7,4.1,0.7,6.1
						C1873.3,149,1872,154,1869.2,158.9z"/>
				</g>
			</g>
			<g>
				<g>
					<path class="st1" d="M1834.9,221.8c-8.4,0-17-5.7-17-16.7c0-10.9,8.6-16.7,17-16.7c8.3,0,17.1,5.8,17.1,16.7
						c0,3.2-0.8,6.2-2.4,8.8l-2-1.2c1.3-2.2,2-4.7,2-7.5c0-9.3-7.6-14.3-14.7-14.3c-7.3,0-14.6,4.9-14.6,14.3
						c0,9.4,7.4,14.3,14.6,14.3V221.8z"/>
				</g>
			</g>
		</g>
		<g>
			<g>
				<path class="st2" d="M1763.3,125.4h-1l-0.1-1c-0.5-3.5-0.9-6.5-1.3-9.2c-1.8-12.2-2.6-17.3,1.1-23.2c3.8-6,9.2-9.9,14.4-13.5
					c5.5-3.9,11.1-7.9,15-14.6c3.7-6.5,3.5-13.6-0.5-18.6c-4.8-6-13.8-7.7-24.1-4.5c-6.1,1.9-10.1,3.9-13,5.4
					c-8.5,4.3-9.2,3.4-19.6-12.7c-1.1-1.7-2.3-3.5-3.6-5.5L1730,27l0.8-0.7c21.5-18,47.7-23.5,70.3-14.9
					c16.5,6.3,27.6,19.1,29.7,34.2c2.4,17.2-7.2,34.8-26.9,49.7c-12.9,9.7-12.3,16.3-11.9,20.7c0.2,2.1,0.4,4.2-1.1,5.7
					C1788.4,124.5,1781.7,125.4,1763.3,125.4z M1776.4,36.8c6.8,0,12.5,2.4,16.2,7c4.6,5.8,4.9,13.9,0.7,21.3
					c-4.1,7.2-10,11.3-15.6,15.4c-5.2,3.7-10.1,7.2-13.7,12.9c-3.3,5.1-2.6,9.6-0.8,21.5c0.4,2.4,0.8,5.1,1.2,8.2
					c16,0,23-0.8,24.8-2.8c0.7-0.8,0.7-1.9,0.5-3.9c-0.4-4.9-1-12.3,12.9-22.8c19.1-14.4,28.3-31.2,26-47.5
					c-2-14.2-12.6-26.3-28.2-32.4c-21.5-8.3-46.5-3.1-67.1,13.8c1.1,1.7,2.1,3.2,3,4.7c5,7.7,7.7,11.9,9.8,13.4
					c1.6,1.1,2.9,0.5,6.7-1.4c3-1.5,7.1-3.6,13.4-5.6C1769.7,37.4,1773.2,36.8,1776.4,36.8z"/>
			</g>
			<g>
				<path class="st2" d="M1774.8,175.3c-9.4,0-19.6-6-19.6-19c0-13.1,10.1-19,19.6-19c9.8,0,19.7,6.5,19.7,19
					C1794.5,168.7,1784.6,175.3,1774.8,175.3z M1774.8,139.6c-8.3,0-17.2,5.2-17.2,16.6c0,11.5,8.9,16.7,17.2,16.7
					c8.3,0,17.3-5.2,17.3-16.7C1792.1,144.8,1783.1,139.6,1774.8,139.6z"/>
			</g>
			<g>
				<g>
					<path class="st2" d="M1763.3,130.9h-5.8l-0.8-5.8c-0.5-3.4-0.9-6.4-1.3-9.1c-1.9-12.9-2.9-19.3,1.9-26.9
						c0.1-0.2,0.2-0.4,0.4-0.5l2,1.3l-0.3,0.5c-4.4,6.9-3.4,13-1.6,25.3c0.4,2.7,0.9,5.7,1.3,9.1l0.5,3.7h3.7
						c19.9,0,26.6-1,29.8-4.5c1-1.1,1.6-2.3,1.9-3.8l2.3,0.4c-0.4,1.9-1.2,3.5-2.5,4.9C1791.1,129.7,1784.3,130.9,1763.3,130.9z"/>
				</g>
				<g>
					<path class="st2" d="M1790.7,56.1l-2.4-0.3c0.1-0.4,0.1-0.9,0.1-1.3c0-1.7-0.4-3.3-1.2-4.7c-2.2-3.7-7.1-5.6-13.1-5l-0.2-2.4
						c7-0.7,12.8,1.6,15.4,6.2c1,1.8,1.5,3.8,1.5,5.9C1790.8,55,1790.8,55.6,1790.7,56.1z"/>
				</g>
				<g>
					<path class="st2" d="M1747.5,53.9c-6.7,0-9.8-4.8-18-17.5c-1.1-1.7-2.3-3.5-3.6-5.5l-3.2-4.9l4.5-3.8c10-8.4,21-14.3,32.4-17.5
						l0.6,2.3c-11.1,3.1-21.8,8.8-31.5,17l-2.9,2.4l2.1,3.2c1.3,2,2.5,3.9,3.6,5.5c7.9,12.3,10.6,16.4,16,16.4c1.4,0,2.7-0.3,4.4-1
						l0.9,2.2C1750.8,53.5,1749.2,53.9,1747.5,53.9z"/>
				</g>
				<g>
					<path class="st2" d="M1822.6,85.5l-1.8-1.5c8.9-10.5,13.6-21.9,13.6-33c0-2.9-0.3-5.8-0.9-8.6l2.3-0.5c0.7,3,1,6.1,1,9.1
						C1836.7,62.7,1831.8,74.6,1822.6,85.5z"/>
				</g>
			</g>
			<g>
				<g>
					<path class="st2" d="M1774.9,180.7h-0.1c-12.4,0-25-8.4-25-24.5c0-3,0.4-5.8,1.3-8.4l2.2,0.7c-0.8,2.3-1.2,4.9-1.2,7.6
						c0,14.5,11.4,22.2,22.7,22.2L1774.9,180.7z M1797.3,167.7l-2.1-1.1c1.6-3.1,2.4-6.6,2.4-10.4c0-5-1.3-9.4-4-13.1l1.9-1.4
						c2.9,4.1,4.4,8.9,4.4,14.5C1800,160.4,1799.1,164.3,1797.3,167.7z"/>
				</g>
			</g>
		</g>
		<g>
			<g>
				<path class="st3" d="M1702.4,110.4h-1l-0.1-1c-0.3-1.9-0.5-3.5-0.7-4.9c-1-6.5-1.4-9.5,0.7-12.8c2.1-3.3,5-5.4,7.9-7.4
					c3-2.2,5.9-4.2,7.9-7.7c1.9-3.3,1.8-6.9-0.2-9.4c-2.4-3-7.1-3.9-12.4-2.2c-3.2,1-5.4,2.1-6.9,2.9c-5,2.6-5.6,1.7-11.2-7.1
					c-0.6-0.9-1.2-1.9-1.9-3l-0.6-0.9l0.8-0.7c11.7-9.8,26.1-12.8,38.4-8.1c9.1,3.5,15.2,10.5,16.4,18.9c1.3,9.4-3.9,19.1-14.7,27.3
					c-6.7,5-6.4,8.3-6.2,10.7c0.1,1.2,0.2,2.5-0.7,3.5C1716.2,109.9,1712.6,110.4,1702.4,110.4z M1709.5,61.6c3.8,0,7.1,1.4,9.1,4
					c2.6,3.3,2.8,7.9,0.4,12.1c-2.3,4-5.5,6.2-8.6,8.4c-2.8,2-5.4,3.8-7.2,6.8c-1.6,2.6-1.3,4.9-0.4,11.2c0.2,1.2,0.4,2.5,0.6,3.9
					c5.7,0,11.5-0.2,12.5-1.3c0.2-0.3,0.2-0.8,0.1-1.7c-0.2-2.6-0.6-6.9,7.1-12.7c10.1-7.6,15-16.5,13.8-25.1
					c-1-7.5-6.6-13.8-14.9-17c-11.2-4.3-24.3-1.7-35.2,7c0.5,0.7,0.9,1.4,1.4,2.1c2.6,4.1,4.1,6.3,5.1,7c0.6,0.4,0.9,0.3,3.1-0.8
					c1.6-0.8,3.8-2,7.3-3C1705.7,61.9,1707.6,61.6,1709.5,61.6z"/>
			</g>
			<g>
				<g>
					<path class="st3" d="M1702.4,115.3h-5.3l-0.7-5.3c-0.2-1.8-0.5-3.4-0.7-4.8c-1.1-7.1-1.7-11.4,1.4-16.3
						c2.6-4.2,6.1-6.6,9.2-8.8c1.1-0.8,2.2-1.6,3.2-2.4l1.5,1.8c-1,0.9-2.1,1.6-3.3,2.5c-2.9,2.1-6.1,4.4-8.5,8.1
						c-2.6,4.1-2.1,7.6-1.1,14.6c0.2,1.5,0.5,3.1,0.7,4.9l0.4,3.2h3.3c10.2,0,14.8-0.4,17.1-2.9c1.7-1.9,1.5-4.1,1.4-5.4
						c-0.2-2.4,0.1-4.5,5.2-8.4c0.6-0.5,1.3-1,1.9-1.5l1.5,1.8c-0.6,0.5-1.3,1-1.9,1.5c-4.5,3.4-4.4,4.8-4.3,6.3
						c0.1,1.5,0.4,4.6-2,7.3C1718.4,114.8,1713.8,115.3,1702.4,115.3z"/>
				</g>
				<g>
					<path class="st3" d="M1715.5,73.5l-2.3-0.7c0.1-0.4,0.2-0.7,0.2-1.1c0-0.5-0.1-0.9-0.3-1.3l1.9-1.4c0,0.1,0.1,0.1,0.1,0.2
						c0.4,0.7,0.6,1.5,0.6,2.4C1715.8,72.3,1715.7,72.9,1715.5,73.5z"/>
				</g>
				<g>
					<path class="st3" d="M1693.9,73.9c-5,0-7.1-3.3-11.8-10.6l-0.1-0.2c-0.5-0.8-1.1-1.8-1.8-2.8l-3-4.5l4.1-3.5
						c8.9-7.5,19.1-11.4,29.6-11.4c1.9,0,3.8,0.1,5.7,0.4l-0.3,2.3c-1.8-0.3-3.6-0.4-5.4-0.4c-9.9,0-19.6,3.8-28,10.9l-2.5,2.1
						l1.8,2.8c0.7,1,1.2,1.9,1.8,2.8l0.1,0.2c4.8,7.4,6.3,9.5,9.8,9.5c1.7,0,3.1-0.7,4.7-1.5c1.5-0.8,3.5-1.8,6.5-2.7
						c2.3-0.7,4.4-0.9,6.2-0.5l-0.5,2.3c-1.3-0.3-3.1-0.1-5,0.5c-2.8,0.9-4.7,1.8-6.1,2.6C1698,73,1696.1,73.9,1693.9,73.9z"/>
				</g>
				<g>
					<path class="st3" d="M1741.3,82.4l-2.1-1.1c1.9-3.8,2.9-7.7,2.9-11.5c0-1.8-0.2-3.5-0.6-5.2l2.3-0.5c0.4,1.9,0.7,3.8,0.7,5.8
						C1744.4,74.1,1743.4,78.3,1741.3,82.4z"/>
				</g>
			</g>
			<g>
				<g>
					<path class="st3" d="M1708.6,149.8c-8,0-16-5.4-16-15.7c0-10.3,8.1-15.7,16-15.7c7.8,0,16.1,5.5,16.1,15.7
						c0,5.1-2.1,9.5-6,12.4l-1.4-1.9c2.3-1.7,5.1-5,5.1-10.5c0-8.7-7.1-13.3-13.7-13.3c-6.8,0-13.6,4.6-13.6,13.3
						c0,8.8,6.9,13.4,13.6,13.4V149.8z"/>
				</g>
			</g>
			<g>
				<path class="st3" d="M1708.6,144.9c-5.5,0-11.1-3.7-11.1-10.8c0-7.1,5.6-10.8,11.1-10.8c5.5,0,11.1,3.7,11.1,10.8
					C1719.7,141.2,1714.1,144.9,1708.6,144.9z M1708.6,125.7c-4.2,0-8.7,2.6-8.7,8.4c0,5.8,4.5,8.4,8.7,8.4c4.2,0,8.8-2.6,8.8-8.4
					c0-2.6-0.9-4.8-2.7-6.3C1713,126.4,1710.9,125.7,1708.6,125.7z"/>
			</g>
		</g>
	</g>
	<g class="st4">
		<g>
			<g>
				<path class="st0" d="M1546.8,719.4h-0.7l-0.1-0.7c-0.3-2.3-0.6-4.3-0.9-6.1c-1.2-8.2-1.7-11.6,0.8-15.5c2.6-4.1,6.2-6.6,9.6-9.1
					c3.7-2.6,7.4-5.3,10-9.8c2.5-4.3,2.4-9.1-0.3-12.4c-3.2-4-9.2-5.1-16.1-3c-4.1,1.3-6.8,2.6-8.7,3.6c-5.7,2.9-6.2,2.3-13.1-8.5
					c-0.7-1.1-1.5-2.3-2.4-3.7l-0.4-0.6l0.5-0.5c14.4-12,32-15.8,47.1-9.9c11.1,4.3,18.5,12.8,19.9,22.9c1.6,11.5-4.8,23.3-18,33.3
					c-8.6,6.5-8.2,10.9-8,13.8c0.1,1.4,0.2,2.8-0.7,3.9C1563.6,718.8,1559.1,719.4,1546.8,719.4z M1555.6,660
					c4.6,0,8.4,1.6,10.8,4.7c3.1,3.9,3.3,9.4,0.5,14.3c-2.8,4.8-6.7,7.6-10.5,10.3c-3.5,2.5-6.8,4.8-9.2,8.6
					c-2.2,3.4-1.7,6.4-0.5,14.4c0.2,1.6,0.5,3.4,0.8,5.5c10.7,0,15.4-0.5,16.6-1.8c0.5-0.5,0.4-1.3,0.3-2.6
					c-0.3-3.3-0.7-8.2,8.6-15.3c12.8-9.6,18.9-20.9,17.4-31.8c-1.3-9.5-8.4-17.6-18.9-21.7c-14.4-5.5-31.1-2.1-44.9,9.2
					c0.7,1.1,1.4,2.2,2,3.1c3.3,5.2,5.2,8,6.5,8.9c1.1,0.7,1.9,0.3,4.5-1c2-1,4.7-2.4,9-3.7C1551.1,660.4,1553.4,660,1555.6,660z"/>
			</g>
			<g>
				<path class="st0" d="M1554.5,752.8c-6.3,0-13.1-4-13.1-12.8c0-8.8,6.8-12.7,13.1-12.7c6.6,0,13.2,4.4,13.2,12.7
					c0,3.9-1.4,7.2-4.2,9.6C1561.2,751.6,1557.9,752.8,1554.5,752.8z M1554.5,728.9c-5.5,0-11.5,3.5-11.5,11.1
					c0,7.7,6,11.2,11.5,11.2c5.6,0,11.6-3.5,11.6-11.2C1566.1,732.4,1560.1,728.9,1554.5,728.9z"/>
			</g>
			<g>
				<g>
					<path class="st0" d="M1546.8,722.9h-3.8l-0.5-3.7c-0.3-2.2-0.6-4.1-0.8-5.9l0-0.2c-1.3-8.6-1.9-12.9,1.3-17.9
						c0.2-0.4,0.5-0.7,0.7-1.1l1.3,0.9c-0.2,0.3-0.5,0.7-0.7,1c-2.9,4.5-2.3,8.6-1,16.8l0,0.2c0.3,1.7,0.5,3.7,0.9,5.9l0.3,2.3h2.3
						c13.3,0,17.7-0.7,19.8-3c0.8-0.9,1.2-1.9,1.3-3.3l1.6,0.1c-0.1,1.7-0.7,3.1-1.7,4.3C1565.3,722.2,1561,722.9,1546.8,722.9z"/>
				</g>
				<g>
					<path class="st0" d="M1565.4,672.9l-1.6-0.2c0-0.3,0-0.5,0-0.8c0-1.2-0.3-2.3-0.8-3.2c-1.4-2.5-4.5-3.7-8.4-3.5l-0.1-1.6
						c4.5-0.3,8.2,1.3,9.9,4.3c0.7,1.2,1.1,2.6,1.1,4C1565.4,672.2,1565.4,672.5,1565.4,672.9z"/>
				</g>
				<g>
					<path class="st0" d="M1536.2,671.3c-4.4,0-6.4-3.2-11.9-11.6l0-0.1c-0.7-1.1-1.5-2.3-2.3-3.6l-2.1-3.2l2.9-2.5
						c6.9-5.8,14.5-9.8,22.4-11.9l0.4,1.6c-7.7,2-15.1,5.9-21.8,11.5l-1.8,1.5l1.3,2c0.9,1.3,1.6,2.5,2.4,3.6l-0.6,0.5l0.7-0.4
						c5.3,8.2,7,10.9,10.5,10.9c1.2,0,2.4-0.4,3.7-1.1l0.7,1.5C1539.1,670.8,1537.8,671.3,1536.2,671.3z"/>
				</g>
				<g>
					<path class="st0" d="M1586.6,692.3l-1.2-1c5.8-6.9,8.8-14.4,8.8-21.7c0-1.9-0.2-3.8-0.6-5.7l1.6-0.3c0.4,2,0.7,4,0.7,6.1
						C1595.8,677.2,1592.6,685.1,1586.6,692.3z"/>
				</g>
			</g>
			<g>
				<g>
					<path class="st0" d="M1554.6,756.3L1554.6,756.3c-8.3,0-16.7-5.6-16.7-16.3c0-2,0.3-3.8,0.9-5.5l1.5,0.5
						c-0.5,1.6-0.8,3.2-0.8,5c0,9.6,7.5,14.6,15,14.6L1554.6,756.3z M1569.5,747.6l-1.4-0.7c1-2,1.6-4.4,1.6-6.9
						c0-3.3-0.9-6.2-2.6-8.6l1.3-0.9c2,2.7,2.9,5.9,2.9,9.6C1571.2,742.8,1570.6,745.4,1569.5,747.6z"/>
				</g>
			</g>
		</g>
		<g>
			<g>
				<g>
					<path class="st1" d="M1615,663.5h-0.7l-0.1-0.7c-0.2-1.4-0.4-2.6-0.5-3.6c-0.7-4.9-1.1-7,0.5-9.4c1.6-2.5,3.7-4,5.8-5.5
						c2.2-1.6,4.4-3.1,5.9-5.7c1.4-2.4,1.3-5.1-0.2-7c-1.8-2.3-5.3-2.9-9.2-1.7c-2.4,0.7-4,1.5-5.1,2.1c-3.7,1.9-4.1,1.2-8.2-5.2
						c-0.4-0.7-0.9-1.4-1.4-2.2l-0.4-0.6l0.5-0.5c8.6-7.2,19.2-9.5,28.3-6c6.7,2.6,11.2,7.8,12,13.9c1,7-2.9,14.1-10.8,20.1
						c-5,3.7-4.8,6.2-4.6,7.9c0.1,0.9,0.2,1.8-0.5,2.5C1625.2,663.1,1622.5,663.5,1615,663.5z M1620.2,627.5c2.8,0,5.2,1,6.7,2.9
						c1.9,2.4,2.1,5.8,0.3,8.8c-1.7,2.9-4,4.6-6.3,6.2c-2,1.5-4,2.8-5.4,5c-1.2,1.9-1,3.7-0.3,8.3c0.1,0.9,0.3,1.9,0.4,3
						c4.3,0,8.6-0.2,9.3-1c0.2-0.2,0.2-0.6,0.1-1.3c-0.2-1.9-0.4-5.1,5.3-9.4c7.5-5.6,11.1-12.2,10.2-18.6
						c-0.8-5.5-4.9-10.2-11-12.6c-8.3-3.2-18.1-1.2-26.1,5.2c0.4,0.6,0.7,1.1,1,1.6c2,3,3,4.7,3.8,5.2c0.5,0.3,0.8,0.2,2.3-0.6
						c1.2-0.6,2.8-1.4,5.4-2.2C1617.5,627.8,1618.9,627.5,1620.2,627.5z"/>
				</g>
			</g>
			<g>
				<g>
					<path class="st1" d="M1619.6,683.3c-4,0-8.1-2.7-8.1-7.9c0-5.2,4.1-7.9,8.1-7.9c4.1,0,8.2,2.7,8.2,7.9
						C1627.7,680.6,1623.6,683.3,1619.6,683.3z M1619.6,669.1c-3.1,0-6.5,2-6.5,6.3c0,4.3,3.4,6.3,6.5,6.3c3.2,0,6.6-2,6.6-6.3
						C1626.1,671.1,1622.7,669.1,1619.6,669.1z"/>
				</g>
			</g>
			<g>
				<g>
					<path class="st1" d="M1615,667h-3.8l-0.5-3.7c-0.2-1.3-0.4-2.5-0.5-3.5c-0.8-5.2-1.3-8.3,1-11.9c1.9-3,4.5-4.8,6.7-6.4l0.8-0.6
						l0.9,1.3l-0.8,0.6c-2.1,1.5-4.5,3.2-6.3,6c-1.9,3-1.5,5.6-0.8,10.7c0.2,1.1,0.3,2.3,0.5,3.6l0.3,2.3h2.3
						c7.5,0,10.9-0.3,12.6-2.1c1.2-1.3,1.1-2.9,1-4c-0.1-1.7,0-3.3,3.6-6.1l1,1.3c-3.2,2.5-3.1,3.6-3,4.7c0.1,1.2,0.3,3.3-1.4,5.2
						C1626.7,666.6,1623.4,667,1615,667z"/>
				</g>
				<g>
					<path class="st1" d="M1624.8,636.1l-1.6-0.4c0.1-0.3,0.1-0.5,0.1-0.8c0-0.4-0.1-0.7-0.3-1c-0.1-0.2-0.3-0.4-0.6-0.6l0.9-1.3
						c0.4,0.3,0.8,0.7,1,1.1c0.3,0.6,0.5,1.2,0.5,1.9C1625,635.3,1624.9,635.7,1624.8,636.1z"/>
				</g>
				<g>
					<path class="st1" d="M1608.7,636.3c-3.6,0-5.1-2.4-8.5-7.7l-3.5-5.4l2.9-2.5c7.1-6,15.5-8.9,23.8-8.3l-0.1,1.6
						c-7.9-0.6-15.8,2.2-22.7,7.9l-1.8,1.5l2.7,4.2c3.3,5.1,4.5,7,7.2,7c1.2,0,2.3-0.5,3.5-1.1c1.1-0.6,2.6-1.3,4.8-2
						c0.8-0.2,1.6-0.4,2.3-0.5l0.2,1.6c-0.6,0.1-1.3,0.2-2,0.4c-2.1,0.7-3.5,1.3-4.6,1.9C1611.7,635.7,1610.4,636.3,1608.7,636.3z"
						/>
				</g>
				<g>
					<path class="st1" d="M1643.1,643.7l-1.4-0.8c1.7-3.1,2.6-6.2,2.6-9.4c0-1.3-0.1-2.6-0.4-3.8l1.6-0.4c0.3,1.4,0.5,2.8,0.5,4.2
						C1645.9,637,1644.9,640.4,1643.1,643.7z"/>
				</g>
			</g>
			<g>
				<g>
					<path class="st1" d="M1619.6,686.8c-5.8,0-11.6-3.9-11.6-11.4c0-7.5,5.8-11.4,11.6-11.4c5.7,0,11.7,4,11.7,11.4
						c0,2.2-0.5,4.2-1.6,6l-1.4-0.8c0.9-1.5,1.4-3.2,1.4-5.1c0-6.3-5.2-9.8-10-9.8c-5,0-10,3.4-10,9.8c0,6.4,5,9.8,10,9.8V686.8z"/>
				</g>
			</g>
		</g>
		<g>
			<g>
				<path class="st2" d="M1570.6,620.9h-0.7l-0.1-0.7c-0.3-2.4-0.6-4.4-0.9-6.3c-1.3-8.4-1.8-11.8,0.8-15.8c2.6-4.1,6.3-6.7,9.8-9.3
					c3.7-2.7,7.6-5.4,10.2-10c2.5-4.4,2.4-9.3-0.3-12.7c-3.3-4.1-9.4-5.3-16.4-3.1c-4.2,1.3-6.9,2.7-8.9,3.7
					c-5.8,3-6.3,2.3-13.4-8.7c-0.7-1.1-1.5-2.4-2.4-3.8l-0.4-0.6l0.5-0.5c14.7-12.3,32.6-16.1,48.1-10.2
					c11.3,4.3,18.9,13.1,20.3,23.4c1.6,11.7-4.9,23.8-18.4,34c-8.8,6.6-8.4,11.1-8.2,14.1c0.1,1.5,0.2,2.8-0.8,3.9
					C1587.8,620.3,1583.2,620.9,1570.6,620.9z M1579.6,560.3c4.6,0,8.6,1.6,11.1,4.8c3.2,4,3.4,9.5,0.5,14.5
					c-2.8,4.9-6.8,7.8-10.7,10.5c-3.6,2.5-6.9,4.9-9.4,8.8c-2.2,3.5-1.8,6.6-0.5,14.7c0.2,1.6,0.5,3.5,0.8,5.6
					c10.9,0,15.7-0.6,16.9-1.9c0.5-0.5,0.5-1.3,0.3-2.7c-0.3-3.3-0.7-8.4,8.8-15.6c13-9.8,19.3-21.3,17.8-32.5
					c-1.4-9.7-8.6-18-19.3-22.1c-14.7-5.6-31.8-2.1-45.9,9.4c0.7,1.1,1.4,2.2,2.1,3.2c3.4,5.3,5.3,8.2,6.7,9.1c1.1,0.7,2,0.4,4.6-1
					c2-1,4.8-2.5,9.1-3.8C1575,560.7,1577.4,560.3,1579.6,560.3z"/>
			</g>
			<g>
				<path class="st2" d="M1578.5,654.9c-6.4,0-13.4-4.1-13.4-13c0-8.9,6.9-13,13.4-13c6.7,0,13.5,4.5,13.5,13
					C1592,650.5,1585.2,654.9,1578.5,654.9z M1578.5,630.5c-5.7,0-11.8,3.6-11.8,11.4c0,7.8,6.1,11.4,11.8,11.4
					c5.7,0,11.8-3.6,11.8-11.4C1590.3,634.1,1584.2,630.5,1578.5,630.5z"/>
			</g>
			<g>
				<g>
					<path class="st2" d="M1570.6,624.6h-4l-0.5-3.9c-0.3-2.4-0.6-4.4-0.9-6.2c-1.3-8.8-2-13.2,1.3-18.4c0.1-0.1,0.2-0.3,0.2-0.4
						l1.4,0.9l-0.2,0.4c-3,4.7-2.4,8.9-1.1,17.3c0.3,1.8,0.6,3.9,0.9,6.2l0.3,2.5h2.6c13.6,0,18.2-0.7,20.4-3.1
						c0.7-0.7,1.1-1.6,1.3-2.6l1.6,0.3c-0.2,1.3-0.8,2.4-1.7,3.4C1589.6,623.8,1585,624.6,1570.6,624.6z"/>
				</g>
				<g>
					<path class="st2" d="M1589.4,573.5l-1.6-0.2c0-0.3,0.1-0.6,0.1-0.9c0-1.2-0.3-2.3-0.8-3.2c-1.5-2.6-4.8-3.8-9-3.4l-0.2-1.6
						c4.8-0.5,8.7,1.1,10.5,4.2c0.7,1.2,1.1,2.6,1.1,4C1589.5,572.7,1589.4,573.1,1589.4,573.5z"/>
				</g>
				<g>
					<path class="st2" d="M1559.9,572c-4.6,0-6.7-3.3-12.3-12c-0.7-1.1-1.5-2.4-2.4-3.8l-2.2-3.4l3.1-2.6
						c6.9-5.8,14.3-9.8,22.2-11.9l0.4,1.6c-7.6,2.1-14.9,6-21.6,11.6l-2,1.7l1.4,2.2c0.9,1.4,1.7,2.6,2.4,3.8
						c5.4,8.4,7.2,11.2,10.9,11.2c0.9,0,1.8-0.2,3-0.7l0.6,1.5C1562.1,571.7,1561,572,1559.9,572z"/>
				</g>
				<g>
					<path class="st2" d="M1611.2,593.6l-1.2-1c6.1-7.2,9.3-15,9.3-22.6c0-2-0.2-4-0.6-5.9l1.6-0.3c0.5,2.1,0.7,4.2,0.7,6.3
						C1620.8,578,1617.5,586.2,1611.2,593.6z"/>
				</g>
			</g>
			<g>
				<g>
					<path class="st2" d="M1578.6,658.7L1578.6,658.7c-8.6,0-17.2-5.8-17.2-16.8c0-2,0.3-3.9,0.9-5.7l1.5,0.5
						c-0.5,1.6-0.8,3.3-0.8,5.2c0,9.9,7.8,15.1,15.5,15.1L1578.6,658.7z M1593.9,649.8l-1.4-0.7c1.1-2.1,1.6-4.5,1.6-7.1
						c0-3.4-0.9-6.4-2.7-8.9l1.3-0.9c2,2.8,3,6.1,3,9.9C1595.7,644.8,1595.1,647.4,1593.9,649.8z"/>
				</g>
			</g>
		</g>
		<g>
			<g>
				<path class="st3" d="M1529,610.6h-0.7l-0.1-0.7c-0.2-1.3-0.3-2.4-0.5-3.4c-0.7-4.5-1-6.5,0.5-8.8c1.5-2.3,3.5-3.7,5.4-5.1
					c2.1-1.5,4-2.9,5.4-5.3c1.3-2.2,1.2-4.7-0.2-6.4c-1.7-2.1-4.8-2.7-8.4-1.5c-2.2,0.7-3.7,1.4-4.7,2c-3.4,1.8-3.8,1.1-7.7-4.8
					c-0.4-0.6-0.8-1.3-1.3-2l-0.4-0.6l0.5-0.5c8-6.7,17.8-8.8,26.2-5.5c6.2,2.4,10.4,7.2,11.2,12.9c0.9,6.5-2.7,13.1-10.1,18.6
					c-4.6,3.4-4.4,5.7-4.2,7.3c0.1,0.8,0.1,1.7-0.5,2.4C1538.4,610.3,1536,610.6,1529,610.6z M1533.8,577.3c2.6,0,4.8,0.9,6.2,2.7
					c1.8,2.3,1.9,5.4,0.3,8.2c-1.6,2.7-3.7,4.3-5.9,5.8c-1.9,1.3-3.7,2.6-5,4.6c-1.1,1.8-0.9,3.4-0.2,7.7c0.1,0.8,0.3,1.7,0.4,2.7
					c3.9,0,7.8-0.1,8.5-0.9c0.2-0.2,0.1-0.5,0.1-1.2c-0.2-1.8-0.4-4.7,4.9-8.7c6.9-5.2,10.2-11.3,9.4-17.1
					c-0.7-5.1-4.5-9.4-10.2-11.6c-7.7-3-16.6-1.2-24.1,4.8c0.3,0.5,0.6,1,0.9,1.4c1.8,2.8,2.8,4.3,3.5,4.8c0.4,0.3,0.6,0.2,2.1-0.6
					c1.1-0.6,2.6-1.3,5-2.1C1531.3,577.5,1532.6,577.3,1533.8,577.3z"/>
			</g>
			<g>
				<g>
					<path class="st3" d="M1529,614h-3.6l-0.5-3.6c-0.2-1.2-0.3-2.3-0.5-3.3c-0.7-4.9-1.2-7.8,1-11.1c1.8-2.8,4.2-4.5,6.3-6
						c0.8-0.5,1.5-1.1,2.2-1.6l1,1.2c-0.7,0.6-1.5,1.1-2.2,1.7c-2,1.4-4.2,3-5.8,5.6c-1.8,2.8-1.4,5.2-0.7,10c0.2,1,0.3,2.1,0.5,3.3
						l0.3,2.2h2.2c7,0,10.1-0.3,11.7-2c1.2-1.3,1-2.8,1-3.7c-0.1-1.6,0-3.1,3.6-5.7c0.4-0.3,0.9-0.7,1.3-1l1,1.3
						c-0.4,0.4-0.9,0.7-1.3,1c-3.1,2.3-3,3.3-2.9,4.3c0.1,1,0.3,3.2-1.4,5C1539.9,613.6,1536.8,614,1529,614z"/>
				</g>
				<g>
					<path class="st3" d="M1538,585.4l-1.6-0.5c0.1-0.3,0.1-0.5,0.1-0.7c0-0.3-0.1-0.6-0.2-0.9l1.3-0.9c0,0,0.1,0.1,0.1,0.1
						c0.3,0.5,0.4,1.1,0.4,1.7C1538.2,584.5,1538.1,584.9,1538,585.4z"/>
				</g>
				<g>
					<path class="st3" d="M1523.2,585.6c-3.4,0-4.9-2.3-8.1-7.2l-0.1-0.1c-0.4-0.6-0.8-1.2-1.2-1.9l-2-3.1l2.8-2.4
						c6.1-5.1,13.1-7.8,20.2-7.8c1.3,0,2.6,0.1,3.9,0.3l-0.2,1.6c-1.2-0.2-2.4-0.3-3.7-0.3c-6.7,0-13.4,2.6-19.2,7.4l-1.7,1.5
						l1.2,1.9c0.4,0.7,0.9,1.3,1.2,1.9l0.1,0.1c3.2,5,4.3,6.5,6.7,6.5c1.2,0,2.1-0.5,3.2-1.1c1.1-0.5,2.4-1.2,4.5-1.9
						c1.6-0.5,3-0.6,4.2-0.4l-0.3,1.6c-0.9-0.2-2.1-0.1-3.4,0.3c-1.9,0.6-3.2,1.2-4.2,1.7C1526,585,1524.7,585.6,1523.2,585.6z"/>
				</g>
				<g>
					<path class="st3" d="M1555.6,591.5l-1.4-0.7c1.3-2.6,2-5.2,2-7.9c0-1.2-0.1-2.4-0.4-3.6l1.6-0.4c0.3,1.3,0.5,2.6,0.5,3.9
						C1557.7,585.8,1557,588.7,1555.6,591.5z"/>
				</g>
			</g>
			<g>
				<g>
					<path class="st3" d="M1533.2,637.5c-5.4,0-10.9-3.7-10.9-10.7c0-7,5.5-10.7,10.9-10.7c5.3,0,11,3.8,11,10.7
						c0,3.5-1.5,6.5-4.1,8.5l-1-1.3c1.6-1.2,3.5-3.4,3.5-7.2c0-5.9-4.8-9.1-9.4-9.1c-4.6,0-9.3,3.1-9.3,9.1c0,6,4.7,9.1,9.3,9.1
						V637.5z"/>
				</g>
			</g>
			<g>
				<path class="st3" d="M1533.2,634.2c-3.8,0-7.6-2.5-7.6-7.4c0-4.8,3.8-7.4,7.6-7.4c3.8,0,7.6,2.5,7.6,7.4
					C1540.8,631.6,1537,634.2,1533.2,634.2z M1533.2,621.1c-2.9,0-6,1.8-6,5.7c0,4,3.1,5.8,6,5.8c2.9,0,6-1.8,6-5.8
					c0-1.8-0.6-3.3-1.8-4.3C1536.3,621.6,1534.8,621.1,1533.2,621.1z"/>
			</g>
		</g>
	</g>
	<g class="st4">
		<g>
			<g>
				<path class="st0" d="M1010.7,445.3h-0.7l-0.1-0.7c-0.3-2.3-0.6-4.3-0.9-6.1c-1.2-8.2-1.7-11.6,0.8-15.5c2.6-4.1,6.2-6.6,9.6-9.1
					c3.7-2.6,7.4-5.3,10-9.8c2.5-4.3,2.4-9.1-0.3-12.4c-3.2-4-9.2-5.1-16.1-3c-4.1,1.3-6.8,2.6-8.7,3.6c-5.7,2.9-6.2,2.3-13.1-8.5
					c-0.7-1.1-1.5-2.3-2.4-3.7l-0.4-0.6l0.5-0.5c14.4-12,32-15.8,47.1-9.9c11.1,4.3,18.5,12.8,19.9,22.9c1.6,11.5-4.8,23.3-18,33.3
					c-8.6,6.5-8.2,10.9-8,13.8c0.1,1.4,0.2,2.8-0.7,3.9C1027.6,444.7,1023.1,445.3,1010.7,445.3z M1019.5,385.9
					c4.6,0,8.4,1.6,10.8,4.7c3.1,3.9,3.3,9.4,0.5,14.3c-2.8,4.8-6.7,7.6-10.5,10.3c-3.5,2.5-6.8,4.8-9.2,8.6
					c-2.2,3.4-1.7,6.4-0.5,14.4c0.2,1.6,0.5,3.4,0.8,5.5c10.7,0,15.4-0.5,16.6-1.8c0.5-0.5,0.4-1.3,0.3-2.6
					c-0.3-3.3-0.7-8.2,8.6-15.3c12.8-9.6,18.9-20.9,17.4-31.8c-1.3-9.5-8.4-17.6-18.9-21.7c-14.4-5.5-31.1-2.1-44.9,9.2
					c0.7,1.1,1.4,2.2,2,3.1c3.3,5.2,5.2,8,6.5,8.9c1.1,0.7,1.9,0.3,4.5-1c2-1,4.7-2.4,9-3.7C1015,386.3,1017.3,385.9,1019.5,385.9z"
					/>
			</g>
			<g>
				<path class="st0" d="M1018.4,478.6c-6.3,0-13.1-4-13.1-12.8c0-8.8,6.8-12.7,13.1-12.7c6.6,0,13.2,4.4,13.2,12.7
					c0,3.9-1.4,7.2-4.2,9.6C1025.1,477.5,1021.9,478.6,1018.4,478.6z M1018.4,454.8c-5.5,0-11.5,3.5-11.5,11.1
					c0,7.7,6,11.2,11.5,11.2c5.6,0,11.6-3.5,11.6-11.2C1030,458.2,1024,454.8,1018.4,454.8z"/>
			</g>
			<g>
				<g>
					<path class="st0" d="M1010.7,448.8h-3.8l-0.5-3.7c-0.3-2.2-0.6-4.1-0.8-5.9l0-0.2c-1.3-8.6-1.9-12.9,1.3-17.9
						c0.2-0.4,0.5-0.7,0.7-1.1l1.3,0.9c-0.2,0.3-0.5,0.7-0.7,1c-2.9,4.5-2.3,8.6-1,16.8l0,0.2c0.3,1.7,0.5,3.7,0.9,5.9l0.3,2.3h2.3
						c13.3,0,17.7-0.7,19.8-3c0.8-0.9,1.2-1.9,1.3-3.3l1.6,0.1c-0.1,1.7-0.7,3.1-1.7,4.3C1029.2,448,1024.9,448.8,1010.7,448.8z"/>
				</g>
				<g>
					<path class="st0" d="M1029.3,398.8l-1.6-0.2c0-0.3,0-0.5,0-0.8c0-1.2-0.3-2.3-0.8-3.2c-1.4-2.5-4.5-3.7-8.4-3.5l-0.1-1.6
						c4.5-0.3,8.2,1.3,9.9,4.3c0.7,1.2,1.1,2.6,1.1,4C1029.4,398.1,1029.3,398.4,1029.3,398.8z"/>
				</g>
				<g>
					<path class="st0" d="M1000.2,397.2c-4.4,0-6.4-3.2-11.9-11.6l0-0.1c-0.7-1.1-1.5-2.3-2.3-3.6l-2.1-3.2l2.9-2.5
						c6.9-5.8,14.5-9.8,22.4-11.9l0.4,1.6c-7.7,2-15.1,5.9-21.8,11.5l-1.8,1.5l1.3,2c0.9,1.3,1.6,2.5,2.4,3.6l-0.6,0.5l0.7-0.4
						c5.3,8.2,7,10.9,10.5,10.9c1.2,0,2.4-0.4,3.7-1.1l0.7,1.5C1003.1,396.7,1001.7,397.2,1000.2,397.2z"/>
				</g>
				<g>
					<path class="st0" d="M1050.5,418.2l-1.2-1c5.8-6.9,8.8-14.4,8.8-21.7c0-1.9-0.2-3.8-0.6-5.7l1.6-0.3c0.4,2,0.7,4,0.7,6.1
						C1059.7,403.1,1056.5,411,1050.5,418.2z"/>
				</g>
			</g>
			<g>
				<g>
					<path class="st0" d="M1018.5,482.1L1018.5,482.1c-8.3,0-16.7-5.6-16.7-16.3c0-2,0.3-3.8,0.9-5.5l1.5,0.5
						c-0.5,1.6-0.8,3.2-0.8,5c0,9.6,7.5,14.6,15,14.6L1018.5,482.1z M1033.4,473.5l-1.4-0.7c1-2,1.6-4.4,1.6-6.9
						c0-3.3-0.9-6.2-2.6-8.6l1.3-0.9c2,2.7,2.9,5.9,2.9,9.6C1035.1,468.7,1034.5,471.2,1033.4,473.5z"/>
				</g>
			</g>
		</g>
		<g>
			<g>
				<g>
					<path class="st1" d="M1078.9,389.3h-0.7l-0.1-0.7c-0.2-1.4-0.4-2.6-0.5-3.6c-0.7-4.9-1.1-7,0.5-9.4c1.6-2.5,3.7-4,5.8-5.5
						c2.2-1.6,4.4-3.1,5.9-5.7c1.4-2.4,1.3-5.1-0.2-7c-1.8-2.3-5.3-2.9-9.2-1.7c-2.4,0.7-4,1.5-5.1,2.1c-3.7,1.9-4.1,1.2-8.2-5.2
						c-0.4-0.7-0.9-1.4-1.4-2.2l-0.4-0.6l0.5-0.5c8.6-7.2,19.2-9.5,28.3-6c6.7,2.6,11.2,7.8,12,13.9c1,7-2.9,14.1-10.8,20.1
						c-5,3.7-4.8,6.2-4.6,7.9c0.1,0.9,0.2,1.8-0.5,2.5C1089.1,389,1086.5,389.3,1078.9,389.3z M1084.2,353.4c2.8,0,5.2,1,6.7,2.9
						c1.9,2.4,2.1,5.8,0.3,8.8c-1.7,2.9-4,4.6-6.3,6.2c-2,1.5-4,2.8-5.4,5c-1.2,1.9-1,3.7-0.3,8.3c0.1,0.9,0.3,1.9,0.4,3
						c4.3,0,8.6-0.2,9.3-1c0.2-0.2,0.2-0.6,0.1-1.3c-0.2-1.9-0.4-5.1,5.3-9.4c7.5-5.6,11.1-12.2,10.2-18.6
						c-0.8-5.5-4.9-10.2-11-12.6c-8.3-3.2-18.1-1.2-26.1,5.2c0.4,0.6,0.7,1.1,1,1.6c2,3,3,4.7,3.8,5.2c0.5,0.3,0.8,0.2,2.3-0.6
						c1.2-0.6,2.8-1.4,5.4-2.2C1081.4,353.7,1082.8,353.4,1084.2,353.4z"/>
				</g>
			</g>
			<g>
				<g>
					<path class="st1" d="M1083.5,409.2c-4,0-8.1-2.7-8.1-7.9c0-5.2,4.1-7.9,8.1-7.9c4.1,0,8.2,2.7,8.2,7.9
						C1091.7,406.5,1087.6,409.2,1083.5,409.2z M1083.5,395c-3.1,0-6.5,2-6.5,6.3c0,4.3,3.4,6.3,6.5,6.3c3.2,0,6.6-2,6.6-6.3
						C1090.1,396.9,1086.7,395,1083.5,395z"/>
				</g>
			</g>
			<g>
				<g>
					<path class="st1" d="M1078.9,392.8h-3.8l-0.5-3.7c-0.2-1.3-0.4-2.5-0.5-3.5c-0.8-5.2-1.3-8.3,1-11.9c1.9-3,4.5-4.8,6.7-6.4
						l0.8-0.6l0.9,1.3l-0.8,0.6c-2.1,1.5-4.5,3.2-6.3,6c-1.9,3-1.5,5.6-0.8,10.7c0.2,1.1,0.3,2.3,0.5,3.6l0.3,2.3h2.3
						c7.5,0,10.9-0.3,12.6-2.1c1.2-1.3,1.1-2.9,1-4c-0.1-1.7,0-3.3,3.6-6.1l1,1.3c-3.2,2.5-3.1,3.6-3,4.7c0.1,1.2,0.3,3.3-1.4,5.2
						C1090.7,392.4,1087.3,392.8,1078.9,392.8z"/>
				</g>
				<g>
					<path class="st1" d="M1088.7,362l-1.6-0.4c0.1-0.3,0.1-0.5,0.1-0.8c0-0.4-0.1-0.7-0.3-1c-0.1-0.2-0.3-0.4-0.6-0.6l0.9-1.3
						c0.4,0.3,0.8,0.7,1,1.1c0.3,0.6,0.5,1.2,0.5,1.9C1088.9,361.2,1088.8,361.6,1088.7,362z"/>
				</g>
				<g>
					<path class="st1" d="M1072.7,362.2c-3.6,0-5.1-2.4-8.5-7.7l-3.5-5.4l2.9-2.5c7.1-6,15.5-8.9,23.8-8.3l-0.1,1.6
						c-7.9-0.6-15.8,2.2-22.7,7.9l-1.8,1.5l2.7,4.2c3.3,5.1,4.5,7,7.2,7c1.2,0,2.3-0.5,3.5-1.1c1.1-0.6,2.6-1.3,4.8-2
						c0.8-0.2,1.6-0.4,2.3-0.5l0.2,1.6c-0.6,0.1-1.3,0.2-2,0.4c-2.1,0.7-3.5,1.3-4.6,1.9C1075.6,361.6,1074.3,362.2,1072.7,362.2z"
						/>
				</g>
				<g>
					<path class="st1" d="M1107,369.6l-1.4-0.8c1.7-3.1,2.6-6.2,2.6-9.4c0-1.3-0.1-2.6-0.4-3.8l1.6-0.4c0.3,1.4,0.5,2.8,0.5,4.2
						C1109.8,362.9,1108.8,366.3,1107,369.6z"/>
				</g>
			</g>
			<g>
				<g>
					<path class="st1" d="M1083.5,412.7c-5.8,0-11.6-3.9-11.6-11.4c0-7.5,5.8-11.4,11.6-11.4c5.7,0,11.7,4,11.7,11.4
						c0,2.2-0.5,4.2-1.6,6l-1.4-0.8c0.9-1.5,1.4-3.2,1.4-5.1c0-6.3-5.2-9.8-10-9.8c-5,0-10,3.4-10,9.8c0,6.4,5,9.8,10,9.8V412.7z"/>
				</g>
			</g>
		</g>
		<g>
			<g>
				<path class="st2" d="M1034.6,346.7h-0.7l-0.1-0.7c-0.3-2.4-0.6-4.4-0.9-6.3c-1.3-8.4-1.8-11.8,0.8-15.8c2.6-4.1,6.3-6.7,9.8-9.3
					c3.7-2.7,7.6-5.4,10.2-10c2.5-4.4,2.4-9.3-0.3-12.7c-3.3-4.1-9.4-5.3-16.4-3.1c-4.2,1.3-6.9,2.7-8.9,3.7
					c-5.8,3-6.3,2.3-13.4-8.7c-0.7-1.1-1.5-2.4-2.4-3.8l-0.4-0.6l0.5-0.5c14.7-12.3,32.6-16.1,48.1-10.2
					c11.3,4.3,18.9,13.1,20.3,23.4c1.6,11.7-4.9,23.8-18.4,34c-8.8,6.6-8.4,11.1-8.2,14.1c0.1,1.5,0.2,2.8-0.8,3.9
					C1051.7,346.2,1047.2,346.7,1034.6,346.7z M1043.6,286.2c4.6,0,8.6,1.6,11.1,4.8c3.2,4,3.4,9.5,0.5,14.5
					c-2.8,4.9-6.8,7.8-10.7,10.5c-3.6,2.5-6.9,4.9-9.4,8.8c-2.2,3.5-1.8,6.6-0.5,14.7c0.2,1.6,0.5,3.5,0.8,5.6
					c10.9,0,15.7-0.6,16.9-1.9c0.5-0.5,0.5-1.3,0.3-2.7c-0.3-3.3-0.7-8.4,8.8-15.6c13-9.8,19.3-21.3,17.8-32.5
					c-1.4-9.7-8.6-18-19.3-22.1c-14.7-5.6-31.8-2.1-45.9,9.4c0.7,1.1,1.4,2.2,2.1,3.2c3.4,5.3,5.3,8.2,6.7,9.1c1.1,0.7,2,0.4,4.6-1
					c2-1,4.8-2.5,9.1-3.8C1038.9,286.6,1041.3,286.2,1043.6,286.2z"/>
			</g>
			<g>
				<path class="st2" d="M1042.4,380.8c-6.4,0-13.4-4.1-13.4-13c0-8.9,6.9-13,13.4-13c6.7,0,13.5,4.5,13.5,13
					C1055.9,376.4,1049.1,380.8,1042.4,380.8z M1042.4,356.4c-5.7,0-11.8,3.6-11.8,11.4c0,7.8,6.1,11.4,11.8,11.4
					c5.7,0,11.8-3.6,11.8-11.4C1054.3,360,1048.1,356.4,1042.4,356.4z"/>
			</g>
			<g>
				<g>
					<path class="st2" d="M1034.6,350.5h-4l-0.5-3.9c-0.3-2.4-0.6-4.4-0.9-6.2c-1.3-8.8-2-13.2,1.3-18.4c0.1-0.1,0.2-0.3,0.2-0.4
						l1.4,0.9l-0.2,0.4c-3,4.7-2.4,8.9-1.1,17.3c0.3,1.8,0.6,3.9,0.9,6.2l0.3,2.5h2.6c13.6,0,18.2-0.7,20.4-3.1
						c0.7-0.7,1.1-1.6,1.3-2.6l1.6,0.3c-0.2,1.3-0.8,2.4-1.7,3.4C1053.6,349.7,1048.9,350.5,1034.6,350.5z"/>
				</g>
				<g>
					<path class="st2" d="M1053.3,299.4l-1.6-0.2c0-0.3,0.1-0.6,0.1-0.9c0-1.2-0.3-2.3-0.8-3.2c-1.5-2.6-4.8-3.8-9-3.4l-0.2-1.6
						c4.8-0.5,8.7,1.1,10.5,4.2c0.7,1.2,1.1,2.6,1.1,4C1053.4,298.6,1053.4,299,1053.3,299.4z"/>
				</g>
				<g>
					<path class="st2" d="M1023.8,297.9c-4.6,0-6.7-3.3-12.3-12c-0.7-1.1-1.5-2.4-2.4-3.8l-2.2-3.4l3.1-2.6
						c6.9-5.8,14.3-9.8,22.2-11.9l0.4,1.6c-7.6,2.1-14.9,6-21.6,11.6l-2,1.7l1.4,2.2c0.9,1.4,1.7,2.6,2.4,3.8
						c5.4,8.4,7.2,11.2,10.9,11.2c0.9,0,1.8-0.2,3-0.7l0.6,1.5C1026,297.6,1024.9,297.9,1023.8,297.9z"/>
				</g>
				<g>
					<path class="st2" d="M1075.1,319.5l-1.2-1c6.1-7.2,9.3-15,9.3-22.6c0-2-0.2-4-0.6-5.9l1.6-0.3c0.5,2.1,0.7,4.2,0.7,6.3
						C1084.8,303.9,1081.4,312,1075.1,319.5z"/>
				</g>
			</g>
			<g>
				<g>
					<path class="st2" d="M1042.5,384.6L1042.5,384.6c-8.6,0-17.2-5.8-17.2-16.8c0-2,0.3-3.9,0.9-5.7l1.5,0.5
						c-0.5,1.6-0.8,3.3-0.8,5.2c0,9.9,7.8,15.1,15.5,15.1L1042.5,384.6z M1057.8,375.7l-1.4-0.7c1.1-2.1,1.6-4.5,1.6-7.1
						c0-3.4-0.9-6.4-2.7-8.9l1.3-0.9c2,2.8,3,6.1,3,9.9C1059.6,370.7,1059,373.3,1057.8,375.7z"/>
				</g>
			</g>
		</g>
		<g>
			<g>
				<path class="st3" d="M992.9,336.5h-0.7l-0.1-0.7c-0.2-1.3-0.3-2.4-0.5-3.4c-0.7-4.5-1-6.5,0.5-8.8c1.5-2.3,3.5-3.7,5.4-5.1
					c2.1-1.5,4-2.9,5.4-5.3c1.3-2.2,1.2-4.7-0.2-6.4c-1.7-2.1-4.8-2.7-8.4-1.5c-2.2,0.7-3.7,1.4-4.7,2c-3.4,1.8-3.8,1.1-7.7-4.8
					c-0.4-0.6-0.8-1.3-1.3-2l-0.4-0.6l0.5-0.5c8-6.7,17.8-8.8,26.2-5.5c6.2,2.4,10.4,7.2,11.2,12.9c0.9,6.5-2.7,13.1-10.1,18.6
					c-4.6,3.4-4.4,5.7-4.2,7.3c0.1,0.8,0.1,1.7-0.5,2.4C1002.3,336.2,999.9,336.5,992.9,336.5z M997.8,303.2c2.6,0,4.8,0.9,6.2,2.7
					c1.8,2.3,1.9,5.4,0.3,8.2c-1.6,2.7-3.7,4.3-5.9,5.8c-1.9,1.3-3.7,2.6-5,4.6c-1.1,1.8-0.9,3.4-0.2,7.7c0.1,0.8,0.3,1.7,0.4,2.7
					c3.9,0,7.8-0.1,8.5-0.9c0.2-0.2,0.1-0.5,0.1-1.2c-0.2-1.8-0.4-4.7,4.9-8.7c6.9-5.2,10.2-11.3,9.4-17.1
					c-0.7-5.1-4.5-9.4-10.2-11.6c-7.7-3-16.6-1.2-24.1,4.8c0.3,0.5,0.6,1,0.9,1.4c1.8,2.8,2.8,4.3,3.5,4.8c0.4,0.3,0.6,0.2,2.1-0.6
					c1.1-0.6,2.6-1.3,5-2.1C995.2,303.4,996.5,303.2,997.8,303.2z"/>
			</g>
			<g>
				<g>
					<path class="st3" d="M992.9,339.9h-3.6l-0.5-3.6c-0.2-1.2-0.3-2.3-0.5-3.3c-0.7-4.9-1.2-7.8,1-11.1c1.8-2.8,4.2-4.5,6.3-6
						c0.8-0.5,1.5-1.1,2.2-1.6l1,1.2c-0.7,0.6-1.5,1.1-2.2,1.7c-2,1.4-4.2,3-5.8,5.6c-1.8,2.8-1.4,5.2-0.7,10c0.2,1,0.3,2.1,0.5,3.3
						l0.3,2.2h2.2c7,0,10.1-0.3,11.7-2c1.2-1.3,1-2.8,1-3.7c-0.1-1.6,0-3.1,3.6-5.7c0.4-0.3,0.9-0.7,1.3-1l1,1.3
						c-0.4,0.4-0.9,0.7-1.3,1c-3.1,2.3-3,3.3-2.9,4.3c0.1,1,0.3,3.2-1.4,5C1003.9,339.5,1000.7,339.9,992.9,339.9z"/>
				</g>
				<g>
					<path class="st3" d="M1001.9,311.2l-1.6-0.5c0.1-0.3,0.1-0.5,0.1-0.7c0-0.3-0.1-0.6-0.2-0.9l1.3-0.9c0,0,0.1,0.1,0.1,0.1
						c0.3,0.5,0.4,1.1,0.4,1.7C1002.1,310.4,1002,310.8,1001.9,311.2z"/>
				</g>
				<g>
					<path class="st3" d="M987.1,311.5c-3.4,0-4.9-2.3-8.1-7.2l-0.1-0.1c-0.4-0.6-0.8-1.2-1.2-1.9l-2-3.1l2.8-2.4
						c6.1-5.1,13.1-7.8,20.2-7.8c1.3,0,2.6,0.1,3.9,0.3l-0.2,1.6c-1.2-0.2-2.4-0.3-3.7-0.3c-6.7,0-13.4,2.6-19.2,7.4l-1.7,1.5
						l1.2,1.9c0.4,0.7,0.9,1.3,1.2,1.9l0.1,0.1c3.2,5,4.3,6.5,6.7,6.5c1.2,0,2.1-0.5,3.2-1.1c1.1-0.5,2.4-1.2,4.5-1.9
						c1.6-0.5,3-0.6,4.2-0.4l-0.3,1.6c-0.9-0.2-2.1-0.1-3.4,0.3c-1.9,0.6-3.2,1.2-4.2,1.7C989.9,310.9,988.7,311.5,987.1,311.5z"/>
				</g>
				<g>
					<path class="st3" d="M1019.5,317.4l-1.4-0.7c1.3-2.6,2-5.2,2-7.9c0-1.2-0.1-2.4-0.4-3.6l1.6-0.4c0.3,1.3,0.5,2.6,0.5,3.9
						C1021.7,311.7,1020.9,314.5,1019.5,317.4z"/>
				</g>
			</g>
			<g>
				<g>
					<path class="st3" d="M997.2,363.4c-5.4,0-10.9-3.7-10.9-10.7c0-7,5.5-10.7,10.9-10.7c5.3,0,11,3.8,11,10.7
						c0,3.5-1.5,6.5-4.1,8.5l-1-1.3c1.6-1.2,3.5-3.4,3.5-7.2c0-5.9-4.8-9.1-9.4-9.1c-4.6,0-9.3,3.1-9.3,9.1c0,6,4.7,9.1,9.3,9.1
						V363.4z"/>
				</g>
			</g>
			<g>
				<path class="st3" d="M997.2,360.1c-3.8,0-7.6-2.5-7.6-7.4c0-4.8,3.8-7.4,7.6-7.4c3.8,0,7.6,2.5,7.6,7.4
					C1004.8,357.5,1000.9,360.1,997.2,360.1z M997.2,346.9c-2.9,0-6,1.8-6,5.7c0,4,3.1,5.8,6,5.8c2.9,0,6-1.8,6-5.8
					c0-1.8-0.6-3.3-1.8-4.3C1000.2,347.5,998.7,346.9,997.2,346.9z"/>
			</g>
		</g>
	</g>
	<g class="st4">
		<g>
			<g>
				<path class="st0" d="M822.2,756.2h-0.9l-0.1-0.9c-0.4-2.8-0.8-5.3-1.1-7.5c-1.5-10-2.1-14.1,0.9-18.9c3.1-4.9,7.5-8,11.7-11
					c4.4-3.2,9-6.4,12.2-11.9c3-5.3,2.9-11.1-0.4-15.1c-3.9-4.9-11.2-6.3-19.6-3.7c-5,1.5-8.2,3.2-10.6,4.4c-7,3.5-7.5,2.8-16-10.4
					c-0.9-1.4-1.8-2.9-2.9-4.5L795,676l0.7-0.6c17.5-14.7,38.9-19.2,57.3-12.1c13.5,5.2,22.5,15.6,24.3,27.9c2,14-5.8,28.4-22,40.5
					c-10.5,7.9-10,13.3-9.7,16.8c0.1,1.7,0.3,3.4-0.9,4.7C842.6,755.5,837.2,756.2,822.2,756.2z M832.9,684c5.5,0,10.2,2,13.2,5.7
					c3.8,4.7,4,11.4,0.6,17.4c-3.4,5.8-8.1,9.2-12.8,12.5c-4.2,3-8.3,5.9-11.2,10.5c-2.7,4.2-2.1,7.8-0.6,17.5c0.3,2,0.6,4.2,1,6.6
					c13,0,18.7-0.7,20.2-2.2c0.6-0.6,0.5-1.5,0.4-3.2c-0.3-4-0.9-10,10.5-18.6c15.5-11.7,23.1-25.4,21.2-38.7
					c-1.6-11.6-10.2-21.4-23-26.4c-17.5-6.7-37.9-2.5-54.7,11.2c0.9,1.4,1.7,2.6,2.4,3.8c4,6.3,6.3,9.7,8,10.9
					c1.3,0.9,2.3,0.4,5.5-1.2c2.4-1.2,5.8-2.9,10.9-4.5C827.3,684.4,830.2,684,832.9,684z"/>
			</g>
			<g>
				<path class="st0" d="M831.5,796.8c-7.7,0-16-4.9-16-15.5c0-10.7,8.3-15.5,16-15.5c8,0,16.1,5.3,16.1,15.5
					c0,4.8-1.7,8.8-5.1,11.7C839.6,795.4,835.7,796.8,831.5,796.8z M831.5,767.7c-6.7,0-14,4.2-14,13.5c0,9.3,7.3,13.6,14,13.6
					c6.8,0,14.1-4.2,14.1-13.6C845.6,772,838.3,767.7,831.5,767.7z"/>
			</g>
			<g>
				<g>
					<path class="st0" d="M822.2,760.5h-4.6l-0.6-4.5c-0.4-2.7-0.7-5-1-7.1l0-0.3c-1.6-10.4-2.4-15.7,1.6-21.8
						c0.3-0.5,0.6-0.9,0.9-1.3l1.6,1.1c-0.3,0.4-0.6,0.8-0.8,1.2c-3.5,5.5-2.8,10.5-1.3,20.4l0,0.3c0.3,2.1,0.7,4.5,1,7.2l0.4,2.8
						h2.9c16.2,0,21.6-0.8,24.2-3.6c1-1.1,1.5-2.3,1.6-4l2,0.1c-0.1,2.1-0.8,3.8-2.1,5.2C844.7,759.6,839.4,760.5,822.2,760.5z"/>
				</g>
				<g>
					<path class="st0" d="M844.8,699.6l-2-0.2c0-0.3,0.1-0.7,0.1-1c0-1.4-0.3-2.7-1-3.9c-1.7-3-5.5-4.6-10.2-4.2l-0.1-2
						c5.5-0.4,9.9,1.6,12.1,5.2c0.9,1.5,1.3,3.1,1.3,4.9C844.8,698.8,844.8,699.2,844.8,699.6z"/>
				</g>
				<g>
					<path class="st0" d="M809.3,697.7c-5.3,0-7.8-3.9-14.5-14.2l-0.1-0.1c-0.9-1.3-1.8-2.8-2.9-4.4l-2.5-3.9l3.6-3
						c8.5-7.1,17.6-11.9,27.3-14.4l0.5,1.9c-9.4,2.4-18.3,7.2-26.5,14l-2.2,1.9l1.6,2.4c1.1,1.6,2,3.1,2.9,4.4l-0.8,0.6l0.8-0.5
						c6.4,9.9,8.6,13.3,12.8,13.3c1.5,0,2.9-0.5,4.5-1.3l0.9,1.8C812.8,697.1,811.2,697.7,809.3,697.7z"/>
				</g>
				<g>
					<path class="st0" d="M870.6,723.2l-1.5-1.3c7-8.4,10.8-17.5,10.8-26.4c0-2.3-0.3-4.7-0.8-7l1.9-0.4c0.5,2.4,0.8,4.9,0.8,7.4
						C881.8,704.9,877.9,714.5,870.6,723.2z"/>
				</g>
			</g>
			<g>
				<g>
					<path class="st0" d="M831.6,801.1L831.6,801.1c-10.1,0-20.3-6.8-20.3-19.8c0-2.4,0.4-4.7,1-6.7l1.9,0.6
						c-0.6,1.9-0.9,3.9-0.9,6.1c0,11.7,9.2,17.8,18.3,17.8L831.6,801.1z M849.7,790.6l-1.8-0.9c1.3-2.5,1.9-5.3,1.9-8.4
						c0-4-1.1-7.6-3.2-10.5l1.6-1.2c2.4,3.3,3.6,7.2,3.6,11.7C851.8,784.7,851.1,787.8,849.7,790.6z"/>
				</g>
			</g>
		</g>
		<g>
			<g>
				<g>
					<path class="st1" d="M905.2,688.1h-0.9l-0.1-0.9c-0.2-1.7-0.4-3.1-0.6-4.4c-0.9-6-1.3-8.5,0.6-11.5c1.9-3,4.5-4.9,7.1-6.7
						c2.7-1.9,5.3-3.8,7.1-7c1.7-3,1.6-6.2-0.2-8.5c-2.2-2.8-6.4-3.5-11.2-2c-2.9,0.9-4.8,1.9-6.2,2.6c-4.5,2.3-5,1.5-10-6.3
						c-0.5-0.8-1.1-1.7-1.7-2.7l-0.5-0.7l0.7-0.6c10.5-8.8,23.4-11.5,34.4-7.3c8.1,3.1,13.6,9.4,14.7,16.9
						c1.2,8.5-3.5,17.1-13.2,24.5c-6,4.6-5.8,7.5-5.6,9.6c0.1,1.1,0.2,2.2-0.6,3.1C917.5,687.7,914.3,688.1,905.2,688.1z
						 M911.5,644.4c3.4,0,6.3,1.2,8.2,3.5c2.4,2.9,2.5,7.1,0.4,10.8c-2,3.5-4.9,5.6-7.7,7.6c-2.5,1.8-4.8,3.4-6.5,6.1
						c-1.5,2.4-1.2,4.5-0.3,10.1c0.2,1.1,0.3,2.3,0.5,3.6c5.2,0,10.4-0.2,11.3-1.2c0.2-0.3,0.2-0.7,0.1-1.6
						c-0.2-2.3-0.5-6.2,6.4-11.4c9.1-6.9,13.5-14.9,12.4-22.6c-0.9-6.7-6-12.5-13.4-15.3c-10.2-3.9-22-1.5-31.8,6.4
						c0.5,0.7,0.9,1.3,1.3,1.9c2.4,3.7,3.7,5.7,4.6,6.3c0.6,0.4,1,0.2,2.8-0.7c1.5-0.7,3.5-1.8,6.5-2.7
						C908.2,644.7,909.9,644.4,911.5,644.4z"/>
				</g>
			</g>
			<g>
				<g>
					<path class="st1" d="M910.7,712.3c-4.9,0-9.9-3.3-9.9-9.6c0-6.3,5-9.6,9.9-9.6c4.9,0,9.9,3.3,9.9,9.6
						C920.7,709,915.7,712.3,910.7,712.3z M910.7,695c-3.8,0-7.9,2.4-7.9,7.6c0,5.3,4.1,7.7,7.9,7.7c3.8,0,8-2.4,8-7.7
						C918.7,697.4,914.6,695,910.7,695z"/>
				</g>
			</g>
			<g>
				<g>
					<path class="st1" d="M905.2,692.4h-4.6l-0.6-4.5c-0.2-1.6-0.4-3.1-0.6-4.3c-1-6.4-1.5-10.2,1.2-14.5c2.4-3.7,5.4-5.9,8.2-7.8
						l0.9-0.7l1.2,1.6l-0.9,0.7c-2.6,1.8-5.5,3.9-7.7,7.3c-2.4,3.7-1.9,6.8-0.9,13.1c0.2,1.3,0.4,2.8,0.6,4.4l0.4,2.8h2.9
						c9.1,0,13.3-0.4,15.3-2.6c1.5-1.6,1.3-3.6,1.2-4.8c-0.2-2.1,0-4,4.4-7.4l1.2,1.6c-3.9,3-3.8,4.4-3.7,5.7
						c0.1,1.4,0.3,4.1-1.7,6.3C919.4,691.9,915.4,692.4,905.2,692.4z"/>
				</g>
				<g>
					<path class="st1" d="M917.1,654.9l-1.9-0.5c0.1-0.3,0.1-0.7,0.1-1c0-0.5-0.1-0.9-0.3-1.3c-0.2-0.3-0.4-0.5-0.7-0.7l1.1-1.6
						c0.5,0.4,0.9,0.8,1.2,1.4c0.4,0.7,0.6,1.4,0.6,2.3C917.3,653.9,917.2,654.4,917.1,654.9z"/>
				</g>
				<g>
					<path class="st1" d="M897.5,655.1c-4.3,0-6.2-2.9-10.4-9.4l-4.3-6.6l3.6-3c8.7-7.3,18.8-10.8,29-10.1l-0.1,2
						c-9.6-0.7-19.3,2.7-27.6,9.7l-2.2,1.9l3.3,5.1c4,6.2,5.5,8.5,8.7,8.5c1.5,0,2.8-0.6,4.2-1.4c1.4-0.7,3.1-1.6,5.9-2.4
						c1-0.3,1.9-0.5,2.8-0.6l0.2,2c-0.8,0.1-1.6,0.2-2.4,0.5c-2.6,0.8-4.2,1.6-5.6,2.3C901.1,654.3,899.5,655.1,897.5,655.1z"/>
				</g>
				<g>
					<path class="st1" d="M939.3,664.1l-1.7-1c2.1-3.7,3.2-7.6,3.2-11.4c0-1.6-0.2-3.1-0.5-4.7l1.9-0.4c0.4,1.7,0.6,3.4,0.6,5.1
						C942.7,655.9,941.6,660.1,939.3,664.1z"/>
				</g>
			</g>
			<g>
				<g>
					<path class="st1" d="M910.7,716.5c-7,0-14.1-4.8-14.1-13.9c0-9.1,7.1-13.9,14.1-13.9c6.9,0,14.2,4.9,14.2,13.9
						c0,2.7-0.7,5.2-2,7.3l-1.7-1c1.1-1.8,1.7-3.9,1.7-6.3c0-7.7-6.3-11.9-12.2-11.9c-6,0-12.2,4.1-12.2,11.9
						c0,7.8,6.1,11.9,12.2,11.9V716.5z"/>
				</g>
			</g>
		</g>
		<g>
			<g>
				<path class="st2" d="M851.2,636.3h-0.9l-0.1-0.9c-0.4-2.9-0.8-5.4-1.1-7.6c-1.5-10.2-2.2-14.4,1-19.3c3.2-5,7.6-8.2,11.9-11.3
					c4.5-3.2,9.2-6.6,12.5-12.2c3.1-5.4,2.9-11.3-0.4-15.5c-4-5-11.5-6.4-20-3.8c-5.1,1.6-8.4,3.3-10.8,4.5
					c-7.1,3.6-7.6,2.8-16.3-10.6c-0.9-1.4-1.9-2.9-3-4.6l-0.5-0.7l0.7-0.6c17.8-15,39.7-19.6,58.5-12.4c13.7,5.3,23,15.9,24.7,28.5
					c2,14.3-6,29-22.4,41.4c-10.7,8.1-10.2,13.6-9.9,17.2c0.2,1.8,0.3,3.5-0.9,4.8C872,635.6,866.5,636.3,851.2,636.3z M862.1,562.6
					c5.6,0,10.4,2,13.5,5.8c3.9,4.8,4.1,11.6,0.6,17.7c-3.4,6-8.3,9.4-13,12.8c-4.3,3.1-8.4,6-11.4,10.7c-2.7,4.3-2.2,8-0.7,17.9
					c0.3,2,0.6,4.3,1,6.8c13.3,0,19.1-0.7,20.6-2.3c0.6-0.7,0.6-1.6,0.4-3.3c-0.3-4.1-0.9-10.2,10.7-18.9
					c15.9-11.9,23.5-26,21.6-39.5c-1.7-11.8-10.4-21.9-23.5-26.9c-17.9-6.9-38.7-2.6-55.8,11.5c0.9,1.4,1.7,2.7,2.5,3.9
					c4.1,6.4,6.4,9.9,8.1,11.1c1.3,0.9,2.4,0.4,5.6-1.2c2.5-1.3,5.9-3,11.1-4.6C856.5,563.1,859.4,562.6,862.1,562.6z"/>
			</g>
			<g>
				<path class="st2" d="M860.7,677.8c-7.8,0-16.3-5-16.3-15.8c0-10.9,8.4-15.8,16.3-15.8c8.1,0,16.4,5.4,16.4,15.8
					C877.1,672.3,868.9,677.8,860.7,677.8z M860.7,648.1c-6.9,0-14.3,4.3-14.3,13.8c0,9.5,7.4,13.9,14.3,13.9
					c6.9,0,14.4-4.3,14.4-13.9C875.1,652.4,867.7,648.1,860.7,648.1z"/>
			</g>
			<g>
				<g>
					<path class="st2" d="M851.2,640.8h-4.8l-0.7-4.8c-0.4-2.9-0.8-5.4-1.1-7.6c-1.6-10.7-2.4-16.1,1.6-22.4
						c0.1-0.2,0.2-0.3,0.3-0.5l1.6,1.1l-0.3,0.4c-3.6,5.7-2.9,10.8-1.3,21c0.3,2.2,0.7,4.7,1.1,7.6l0.4,3.1h3.1
						c16.6,0,22.1-0.8,24.8-3.8c0.8-0.9,1.3-1.9,1.6-3.1l1.9,0.4c-0.3,1.6-1,2.9-2,4.1C874.3,639.9,868.6,640.8,851.2,640.8z"/>
				</g>
				<g>
					<path class="st2" d="M874,578.6l-2-0.2c0-0.4,0.1-0.7,0.1-1.1c0-1.4-0.3-2.7-1-3.9c-1.8-3.1-5.9-4.7-10.9-4.2l-0.2-2
						c5.8-0.6,10.6,1.3,12.8,5.1c0.9,1.5,1.3,3.1,1.3,4.9C874.1,577.7,874,578.2,874,578.6z"/>
				</g>
				<g>
					<path class="st2" d="M838,576.8c-5.6,0-8.1-4-15-14.6c-0.9-1.4-1.9-2.9-3-4.6l-2.7-4.1l3.8-3.2c8.4-7,17.4-11.9,27-14.5
						l0.5,1.9c-9.3,2.6-18.1,7.3-26.2,14.1l-2.4,2l1.7,2.7c1.1,1.7,2.1,3.2,3,4.6c6.6,10.2,8.8,13.7,13.3,13.7
						c1.1,0,2.2-0.3,3.6-0.9l0.8,1.8C840.8,576.5,839.4,576.8,838,576.8z"/>
				</g>
				<g>
					<path class="st2" d="M900.5,603.1l-1.5-1.3c7.4-8.7,11.3-18.2,11.3-27.4c0-2.4-0.3-4.8-0.8-7.2l1.9-0.4
						c0.6,2.5,0.8,5.1,0.8,7.6C912.2,584.1,908.2,594,900.5,603.1z"/>
				</g>
			</g>
			<g>
				<g>
					<path class="st2" d="M860.8,682.3L860.8,682.3c-10.5,0-20.9-7-20.9-20.4c0-2.5,0.4-4.8,1.1-7l1.9,0.6c-0.6,1.9-1,4.1-1,6.3
						c0,12.1,9.5,18.4,18.9,18.4L860.8,682.3z M879.5,671.5l-1.8-0.9c1.3-2.6,2-5.5,2-8.7c0-4.2-1.1-7.8-3.3-10.9l1.6-1.2
						c2.4,3.4,3.7,7.4,3.7,12C881.7,665.4,880.9,668.6,879.5,671.5z"/>
				</g>
			</g>
		</g>
		<g>
			<g>
				<path class="st3" d="M800.5,623.8h-0.9l-0.1-0.9c-0.2-1.6-0.4-2.9-0.6-4.1c-0.8-5.4-1.2-7.9,0.6-10.7c1.8-2.8,4.2-4.5,6.5-6.2
					c2.5-1.8,4.9-3.5,6.6-6.4c1.6-2.7,1.5-5.7-0.2-7.8c-2-2.5-5.9-3.2-10.3-1.9c-2.7,0.8-4.5,1.7-5.8,2.4c-4.2,2.1-4.7,1.4-9.4-5.9
					c-0.5-0.7-1-1.6-1.6-2.5l-0.5-0.7l0.7-0.6c9.7-8.2,21.7-10.7,31.9-6.7c7.5,2.9,12.6,8.8,13.6,15.7c1.1,7.9-3.2,15.9-12.2,22.7
					c-5.6,4.2-5.3,6.9-5.2,8.9c0.1,1,0.2,2.1-0.6,2.9C811.9,623.4,809,623.8,800.5,623.8z M806.4,583.2c3.2,0,5.9,1.1,7.6,3.3
					c2.2,2.7,2.3,6.6,0.4,10c-1.9,3.3-4.6,5.2-7.1,7c-2.3,1.6-4.5,3.2-6,5.6c-1.4,2.2-1.1,4.1-0.3,9.3c0.1,1,0.3,2.1,0.5,3.3
					c4.8,0,9.5-0.2,10.4-1.1c0.2-0.2,0.2-0.7,0.1-1.4c-0.2-2.2-0.5-5.8,5.9-10.6c8.4-6.3,12.5-13.7,11.5-20.8
					c-0.9-6.2-5.5-11.5-12.4-14.1c-9.4-3.6-20.2-1.4-29.3,5.8c0.4,0.6,0.8,1.2,1.1,1.7c2.2,3.4,3.4,5.3,4.2,5.8
					c0.5,0.3,0.8,0.2,2.6-0.7c1.4-0.7,3.2-1.6,6.1-2.5C803.2,583.5,804.9,583.2,806.4,583.2z"/>
			</g>
			<g>
				<g>
					<path class="st3" d="M800.5,627.9H796l-0.6-4.4c-0.2-1.5-0.4-2.8-0.6-4c-0.9-5.9-1.4-9.5,1.2-13.5c2.2-3.5,5.1-5.5,7.6-7.3
						c0.9-0.7,1.8-1.3,2.6-2l1.3,1.5c-0.9,0.7-1.8,1.4-2.7,2c-2.4,1.7-5.1,3.6-7.1,6.8c-2.2,3.4-1.8,6.3-0.9,12.1
						c0.2,1.2,0.4,2.5,0.6,4.1l0.4,2.7h2.7c8.5,0,12.3-0.3,14.2-2.4c1.4-1.5,1.3-3.4,1.2-4.5c-0.2-2,0-3.8,4.3-7
						c0.5-0.4,1-0.8,1.6-1.2l1.2,1.5c-0.5,0.4-1.1,0.8-1.6,1.3c-3.8,2.8-3.7,4-3.5,5.2c0.1,1.2,0.3,3.8-1.7,6
						C813.8,627.4,810,627.9,800.5,627.9z"/>
				</g>
				<g>
					<path class="st3" d="M811.4,593.1l-1.9-0.6c0.1-0.3,0.1-0.6,0.1-0.9c0-0.4-0.1-0.8-0.3-1.1l1.6-1.1c0,0.1,0.1,0.1,0.1,0.2
						c0.3,0.6,0.5,1.3,0.5,2C811.6,592.1,811.5,592.6,811.4,593.1z"/>
				</g>
				<g>
					<path class="st3" d="M793.4,593.4c-4.1,0-5.9-2.8-9.8-8.8l-0.1-0.2c-0.4-0.7-0.9-1.5-1.5-2.3l-2.5-3.8l3.4-2.9
						c7.4-6.2,15.9-9.5,24.6-9.5c1.6,0,3.2,0.1,4.8,0.3l-0.3,1.9c-1.5-0.2-3-0.3-4.5-0.3c-8.2,0-16.3,3.1-23.3,9l-2.1,1.8l1.5,2.3
						c0.5,0.8,1,1.6,1.5,2.3l0.1,0.2c4,6.1,5.2,7.9,8.2,7.9c1.4,0,2.6-0.6,3.9-1.3c1.3-0.7,2.9-1.5,5.4-2.3c1.9-0.6,3.7-0.7,5.1-0.4
						l-0.4,1.9c-1.1-0.2-2.6-0.1-4.2,0.4c-2.4,0.7-3.9,1.5-5.1,2.1C796.8,592.7,795.3,593.4,793.4,593.4z"/>
				</g>
				<g>
					<path class="st3" d="M832.9,600.5l-1.8-0.9c1.6-3.2,2.4-6.4,2.4-9.6c0-1.5-0.2-2.9-0.5-4.4l1.9-0.4c0.4,1.6,0.6,3.2,0.6,4.8
						C835.5,593.6,834.6,597.1,832.9,600.5z"/>
				</g>
			</g>
			<g>
				<g>
					<path class="st3" d="M805.6,656.6c-6.6,0-13.3-4.5-13.3-13.1c0-8.6,6.7-13.1,13.3-13.1c6.5,0,13.4,4.6,13.4,13.1
						c0,4.2-1.8,7.9-5,10.3l-1.2-1.6c1.9-1.4,4.2-4.1,4.2-8.7c0-7.2-5.9-11.1-11.4-11.1c-5.6,0-11.3,3.8-11.3,11.1
						c0,7.3,5.7,11.1,11.3,11.1V656.6z"/>
				</g>
			</g>
			<g>
				<path class="st3" d="M805.6,652.5c-4.6,0-9.2-3.1-9.2-9c0-5.9,4.6-9,9.2-9c4.6,0,9.3,3.1,9.3,9
					C814.9,649.4,810.2,652.5,805.6,652.5z M805.6,636.5c-3.5,0-7.2,2.2-7.2,7c0,4.8,3.8,7,7.2,7c3.5,0,7.3-2.2,7.3-7
					c0-2.2-0.8-4-2.2-5.2C809.4,637.1,807.6,636.5,805.6,636.5z"/>
			</g>
		</g>
	</g>
</g>
</svg>
